<?xml version="1.0" encoding="UTF-8" standalone="no"?>
<svg
   xmlns:dc="http://purl.org/dc/elements/1.1/"
   xmlns:cc="http://creativecommons.org/ns#"
   xmlns:rdf="http://www.w3.org/1999/02/22-rdf-syntax-ns#"
   xmlns:svg="http://www.w3.org/2000/svg"
   xmlns="http://www.w3.org/2000/svg"
   viewBox="0 0 16 16"
   height="16"
   width="16"
   id="svg2"
   version="1.1">
  <metadata
     id="metadata8">
    <rdf:RDF>
      <cc:Work
         rdf:about="">
        <dc:format>image/svg+xml</dc:format>
        <dc:type
           rdf:resource="http://purl.org/dc/dcmitype/StillImage" />
        <dc:title></dc:title>
      </cc:Work>
    </rdf:RDF>
  </metadata>
  <defs
     id="defs6" />
  <g
     id="g128">
    <path
       id="path12"
       d="M 0,0.5 V 0 H 0.5 1 1.5 2 2.5 3 3.5 4 4.5 5 5.5 6 6.5 7 7.5 8 8.5 9 9.5 10 10.5 11 11.5 12 12.5 13 13.5 14 14.5 15 15.5 16 V 0.5 1 1.5 2 2.5 3 3.5 4 4.5 5 5.5 6 6.5 7 7.5 8 8.5 9 9.5 10 10.5 11 11.5 12 12.5 13 13.5 14 14.5 15 15.5 16 H 15.5 15 14.5 14 13.5 13 12.5 12 11.5 11 10.5 10 9.5 9 8.5 8 7.5 7 6.5 6 5.5 5 4.5 4 3.5 3 2.5 2 1.5 1 0.5 0 V 15.5 15 14.5 14 13.5 13 12.5 12 11.5 11 10.5 10 9.5 9 8.5 8 7.5 7 6.5 6 5.5 5 4.5 4 3.5 3 2.5 2 1.5 1 0.5 M 9.5,15 q 0.5,0 0.875,-0.125 0.375,-0.125 0.5,-0.5 Q 11,14 11.5,14 12,14 12.375,13.875 12.75,13.75 13,13.5 13.25,13.25 13.5,13 13.75,12.75 13.875,12.375 14,12 14,11.5 14,11 14.375,10.875 14.75,10.75 14.875,10.375 15,10 15,9.5 V 9 8.5 8 7.5 7 6.5 Q 15,6 14.875,5.625 14.75,5.25 14.375,5.125 L 14,5 V 4.5 Q 14,4 13.875,3.625 13.75,3.25 13.5,3 13.25,2.75 13,2.5 12.75,2.25 12.375,2.125 12,2 11.5,2 H 11 L 10.875,1.625 Q 10.75,1.25 10.375,1.125 10,1 9.5,1 H 9 8.5 8 7.5 7 6.5 Q 6,1 5.625,1.125 5.25,1.25 5.125,1.625 5,2 4.5,2 4,2 3.625,2.125 3.25,2.25 3,2.5 2.75,2.75 2.5,3 2.25,3.25 2.125,3.625 2,4 2,4.5 2,5 1.625,5.125 1.25,5.25 1.125,5.625 1,6 1,6.5 V 7 7.5 8 8.5 9 9.5 q 0,0.5 0,1 0,0.5 0.125,0.875 0.125,0.375 0.5,0.5 L 2,12 2.125,12.375 Q 2.25,12.75 2.5,13 2.75,13.25 3,13.5 3.25,13.75 3.625,13.875 L 4,14 4.125,14.375 q 0.125,0.375 0.5,0.5 Q 5,15 5.5,15 6,15 6.5,15 H 7 7.5 q 0.5,0 1,0 H 9 9.5"
       style="fill:#000000;fill-opacity:0" />
    <path
       id="path14"
       d="M 5.125,1.625 Q 5.25,1.25 5.625,1.125 L 6,1 5.71875,1.09375 5.4375,1.1875 5.625,1.125 Q 5.8125,1.0625 6.03125,1.03125 L 6.25,1 6.140625,1.015625 6.03125,1.03125 6.015625,1.515625 6,2 5.453125,1.953125 4.90625,1.90625 4.828125,1.953125 4.75,2 4.90625,1.90625 Q 5.0625,1.8125 5.125,1.625 L 5.1875,1.4375 5.09375,1.71875 5,2 5.125,1.625 M 5.625,2 H 6 6.125 6.25 6 Q 5.75,2 5.5,2 H 5.25 5.625"
       style="fill:#cbf1c9;fill-opacity:1" />
    <path
       id="path16"
       d="M 6.015625,1.515625 6.03125,1.03125 5.921875,1.046875 5.8125,1.0625 6.03125,1.03125 Q 6.25,1 6.5,1 H 6.75 6.375 6 6.5 7 V 1.5 2 H 6.5 6 L 6.015625,1.515625 M 5.875,2 H 6 6.375 6.75 6.5 Q 6.25,2 6,2 H 5.75 5.875"
       style="fill:#8fde8a;fill-opacity:1" />
    <path
       id="path18"
       d="M 7,1.5 V 1 H 7.5 8 V 1.5 2 H 7.5 7 V 1.5"
       style="fill:#7ed278;fill-opacity:1" />
    <path
       id="path20"
       d="M 8,1.5 V 1 H 8.5 9 V 1.5 2 H 8.5 8 V 1.5"
       style="fill:#81d67b;fill-opacity:1" />
    <path
       id="path22"
       d="M 9,1.5 V 1 H 9.5 10 9.625 9.25 9.5 Q 9.75,1 9.96875,1.03125 L 10.1875,1.0625 10.078125,1.046875 9.96875,1.03125 9.984375,1.515625 10,2 H 9.5 9 V 1.5 M 9.625,2 H 10 10.125 10.25 10 Q 9.75,2 9.5,2 H 9.25 9.625"
       style="fill:#94e08f;fill-opacity:1" />
    <path
       id="path24"
       d="M 9.984375,1.515625 9.96875,1.03125 9.859375,1.015625 9.75,1 9.96875,1.03125 Q 10.1875,1.0625 10.375,1.125 L 10.5625,1.1875 10.28125,1.09375 10,1 10.375,1.125 q 0.375,0.125 0.5,0.5 L 11,2 H 10.5 10 L 9.984375,1.515625 M 9.875,2 H 10 10.375 10.75 10.5 Q 10.25,2 10,2 H 9.75 9.875"
       style="fill:#d7f4d6;fill-opacity:1" />
    <path
       id="path26"
       d="M 3,2.5 Q 3.25,2.25 3.625,2.125 L 4,2 3.71875,2.09375 3.4375,2.1875 3.625,2.125 Q 3.8125,2.0625 4.03125,2.03125 L 4.25,2 4.140625,2.015625 4.03125,2.03125 3.890625,2.390625 Q 3.75,2.75 3.5,3 L 3.25,3.25 3,3 2.75,2.75 3,2.5 M 2.9375,2.5625 2.75,2.75 2.6875,2.8125 2.625,2.875 2.75,2.75 Q 2.875,2.625 3,2.5 L 3.125,2.375 2.9375,2.5625 m 0.25,0.75 L 3.25,3.25 3.4375,3.0625 3.625,2.875 3.5,3 Q 3.375,3.125 3.25,3.25 L 3.125,3.375 3.1875,3.3125"
       style="fill:#e6f8e5;fill-opacity:1" />
    <path
       id="path28"
       d="M 3.890625,2.390625 4.03125,2.03125 3.921875,2.046875 3.8125,2.0625 4.03125,2.03125 Q 4.25,2 4.5,2 H 4.75 4.375 4 4.5 5 4.625 4.25 4.5 Q 4.75,2 4.90625,1.90625 L 5.0625,1.8125 4.984375,1.859375 4.90625,1.90625 4.953125,2.453125 Q 5,3 4.625,3.125 L 4.25,3.25 4.53125,3.15625 4.8125,3.0625 4.625,3.125 Q 4.4375,3.1875 4.3125,3.3125 L 4.1875,3.4375 4.25,3.375 4.3125,3.3125 4.015625,3.015625 3.71875,2.71875 3.671875,2.796875 3.625,2.875 3.71875,2.71875 Q 3.8125,2.5625 3.875,2.375 L 3.9375,2.1875 3.84375,2.46875 3.75,2.75 3.890625,2.390625"
       style="fill:#6dc463;fill-opacity:1" />
    <path
       id="path30"
       d="M 4.953125,2.453125 4.90625,1.90625 5.453125,1.953125 Q 6,2 6.5,2 H 7 7.5 8 8.5 9 9.5 q 0.5,0 1,0 H 11 l 0.125,0.375 Q 11.25,2.75 11.5,3 11.75,3.25 11.875,3.625 L 12,4 12.375,4.125 Q 12.75,4.25 13,4.5 13.25,4.75 13.625,4.875 L 14,5 v 0.5 q 0,0.5 0,1 V 7 7.5 8 8.5 9 9.5 q 0,0.5 0.04687,1.046875 l 0.04687,0.546875 -0.546875,-0.04687 Q 13,11 12.875,11.375 q -0.125,0.375 -0.5,0.5 -0.375,0.125 -0.5,0.5 -0.125,0.375 -0.5,0.5 Q 11,13 11.046875,13.546875 l 0.04687,0.546875 -0.546875,-0.04687 Q 10,14 9.625,14.125 L 9.25,14.25 9.53125,14.15625 9.8125,14.0625 9.625,14.125 Q 9.4375,14.1875 9.3125,14.3125 L 9.1875,14.4375 9.25,14.375 9.3125,14.3125 9.03125,14.03125 Q 8.75,13.75 8.375,13.875 8,14 7.625,13.875 7.25,13.75 6.96875,14.03125 L 6.6875,14.3125 6.75,14.375 6.8125,14.4375 6.6875,14.3125 Q 6.5625,14.1875 6.375,14.125 L 6.1875,14.0625 6.46875,14.15625 6.75,14.25 6.375,14.125 Q 6,14 5.5,14 H 5 V 13.5 Q 5,13 4.625,12.875 4.25,12.75 4.125,12.375 4,12 3.625,11.875 3.25,11.75 3.125,11.375 3,11 2.5,11 H 2 V 10.5 Q 2,10 1.875,9.625 L 1.75,9.25 1.84375,9.53125 1.9375,9.8125 1.875,9.625 Q 1.8125,9.4375 1.6875,9.3125 L 1.5625,9.1875 1.625,9.25 1.6875,9.3125 1.96875,9.03125 Q 2.25,8.75 2.125,8.375 L 2,8 2.125,7.625 Q 2.25,7.25 1.96875,6.96875 L 1.6875,6.6875 1.625,6.75 1.5625,6.8125 1.6875,6.6875 Q 1.8125,6.5625 1.875,6.375 L 1.9375,6.1875 1.84375,6.46875 1.75,6.75 1.875,6.375 Q 2,6 1.953125,5.453125 L 1.90625,4.90625 2.453125,4.953125 Q 3,5 3.125,4.625 3.25,4.25 3.625,4.125 4,4 4.125,3.625 4.25,3.25 4.625,3.125 5,3 4.953125,2.453125 M 12.125,4.375 12,4 H 11.5 Q 11,4 11,4.5 V 5 L 10.625,5.125 Q 10.25,5.25 10,5.5 9.75,5.75 9.5,6 9.25,6.25 9,6.5 8.75,6.75 8.5,7 8.25,7.25 8,7.5 7.75,7.75 7.375,7.875 L 7,8 V 7.5 Q 7,7 6.625,6.875 6.25,6.75 6.125,6.375 6,6 5.5,6 5,6 4.875,6.375 4.75,6.75 5.015625,7.046875 L 5.28125,7.34375 5.328125,7.296875 5.375,7.25 5.28125,7.34375 Q 5.1875,7.4375 5.125,7.625 L 5.0625,7.8125 5.15625,7.53125 5.25,7.25 5.125,7.625 5,8 V 8.5 Q 5,9 5.125,9.375 L 5.25,9.75 5.15625,9.46875 5.0625,9.1875 5.125,9.375 Q 5.1875,9.5625 5.28125,9.71875 L 5.375,9.875 5.328125,9.796875 5.28125,9.71875 5.015625,9.984375 Q 4.75,10.25 4.875,10.625 5,11 5.375,11.125 5.75,11.25 5.875,11.625 6,12 6.375,12.125 6.75,12.25 7.015625,11.953125 L 7.28125,11.65625 7.234375,11.609375 7.1875,11.5625 7.28125,11.65625 Q 7.375,11.75 7.5,11.75 H 7.625 7.4375 7.25 7.5 Q 7.75,11.75 8,11.5 8.25,11.25 8.5,11 8.75,10.75 9,10.5 9.25,10.25 9.5,10 9.75,9.75 10,9.5 10.25,9.25 10.5,9 10.75,8.75 11,8.5 11.25,8.25 11.625,8.125 12,8 12.125,7.625 12.25,7.25 11.96875,6.96875 L 11.6875,6.6875 11.625,6.75 11.5625,6.8125 11.6875,6.6875 Q 11.8125,6.5625 11.875,6.375 L 11.9375,6.1875 11.84375,6.46875 11.75,6.75 11.875,6.375 Q 12,6 11.875,5.625 L 11.75,5.25 11.84375,5.53125 11.9375,5.8125 11.875,5.625 Q 11.8125,5.4375 11.6875,5.3125 L 11.5625,5.1875 11.625,5.25 11.6875,5.3125 11.96875,5.03125 Q 12.25,4.75 12.125,4.375"
       style="fill:#48ad3b;fill-opacity:1" />
    <path
       id="path32"
       d="M 11.125,2.375 11,2 H 11.5 12 11.625 11.25 11.5 q 0.25,0 0.46875,0.03125 L 12.1875,2.0625 12.078125,2.046875 11.96875,2.03125 12.109375,2.390625 12.25,2.75 12.15625,2.46875 12.0625,2.1875 12.125,2.375 q 0.0625,0.1875 0.15625,0.34375 L 12.375,2.875 12.328125,2.796875 12.28125,2.71875 12,3 11.71875,3.28125 11.765625,3.359375 11.8125,3.4375 11.71875,3.28125 Q 11.625,3.125 11.5,3 L 11.375,2.875 11.5625,3.0625 11.75,3.25 11.5,3 Q 11.25,2.75 11.125,2.375"
       style="fill:#79cd71;fill-opacity:1" />
    <path
       id="path34"
       d="M 12.109375,2.390625 11.96875,2.03125 11.859375,2.015625 11.75,2 11.96875,2.03125 Q 12.1875,2.0625 12.375,2.125 L 12.5625,2.1875 12.28125,2.09375 12,2 12.375,2.125 Q 12.75,2.25 13,2.5 13.25,2.75 13.5,3 13.75,3.25 13.875,3.625 L 14,4 13.90625,3.71875 13.8125,3.4375 13.875,3.625 q 0.0625,0.1875 0.09375,0.40625 L 14,4.25 13.984375,4.140625 13.96875,4.03125 13.609375,3.890625 Q 13.25,3.75 13,3.5 12.75,3.25 12.5,3 12.25,2.75 12.109375,2.390625"
       style="fill:#f0fbf0;fill-opacity:1" />
    <path
       id="path36"
       d="M 2.125,3.625 Q 2.25,3.25 2.5,3 L 2.75,2.75 3,3 3.25,3.25 3,3.5 Q 2.75,3.75 2.390625,3.890625 L 2.03125,4.03125 2.015625,4.140625 2,4.25 2.03125,4.03125 Q 2.0625,3.8125 2.125,3.625 L 2.1875,3.4375 2.09375,3.71875 2,4 2.125,3.625 M 3.0625,3.4375 3.25,3.25 3.3125,3.1875 3.375,3.125 3.25,3.25 Q 3.125,3.375 3,3.5 L 2.875,3.625 3.0625,3.4375 M 2.8125,2.6875 2.75,2.75 2.5625,2.9375 2.375,3.125 2.5,3 Q 2.625,2.875 2.75,2.75 L 2.875,2.625 2.8125,2.6875"
       style="fill:#e4f7e3;fill-opacity:1" />
    <path
       id="path38"
       d="M 3,3.5 Q 3.25,3.25 3.5,3 L 3.75,2.75 3.5625,2.9375 3.375,3.125 3.5,3 Q 3.625,2.875 3.71875,2.71875 L 3.8125,2.5625 3.765625,2.640625 3.71875,2.71875 4.015625,3.015625 4.3125,3.3125 4.375,3.25 4.4375,3.1875 4.3125,3.3125 Q 4.1875,3.4375 4.125,3.625 L 4.0625,3.8125 4.15625,3.53125 4.25,3.25 4.125,3.625 Q 4,4 3.625,4.125 L 3.25,4.25 3.53125,4.15625 3.8125,4.0625 3.625,4.125 Q 3.4375,4.1875 3.3125,4.3125 L 3.1875,4.4375 3.25,4.375 3.3125,4.3125 3.015625,4.015625 2.71875,3.71875 2.640625,3.765625 2.5625,3.8125 2.71875,3.71875 Q 2.875,3.625 3,3.5 L 3.125,3.375 2.9375,3.5625 2.75,3.75 3,3.5"
       style="fill:#59b64d;fill-opacity:1" />
    <path
       id="path40"
       d="M 11.875,3.625 11.75,3.25 11.84375,3.53125 11.9375,3.8125 11.875,3.625 Q 11.8125,3.4375 11.71875,3.28125 L 11.625,3.125 11.671875,3.203125 11.71875,3.28125 12,3 12.28125,2.71875 12.234375,2.640625 12.1875,2.5625 12.28125,2.71875 Q 12.375,2.875 12.5,3 L 12.625,3.125 12.4375,2.9375 12.25,2.75 12.5,3 Q 12.75,3.25 13,3.5 L 13.25,3.75 13.0625,3.5625 12.875,3.375 13,3.5 q 0.125,0.125 0.28125,0.21875 L 13.4375,3.8125 13.359375,3.765625 13.28125,3.71875 13,4 12.71875,4.28125 12.796875,4.328125 12.875,4.375 12.71875,4.28125 Q 12.5625,4.1875 12.375,4.125 L 12.1875,4.0625 12.46875,4.15625 12.75,4.25 12.375,4.125 12,4 11.875,3.625"
       style="fill:#62bb58;fill-opacity:1" />
    <path
       id="path42"
       d="M 2,4.5 V 4 4.375 4.75 4.5 Q 2,4.25 2.03125,4.03125 L 2.0625,3.8125 2.046875,3.921875 2.03125,4.03125 2.390625,3.890625 2.75,3.75 2.46875,3.84375 2.1875,3.9375 2.375,3.875 Q 2.5625,3.8125 2.71875,3.71875 L 2.875,3.625 2.796875,3.671875 2.71875,3.71875 3.015625,4.015625 3.3125,4.3125 3.375,4.25 3.4375,4.1875 3.3125,4.3125 Q 3.1875,4.4375 3.125,4.625 L 3.0625,4.8125 3.15625,4.53125 3.25,4.25 3.125,4.625 Q 3,5 2.453125,4.953125 L 1.90625,4.90625 1.859375,4.984375 1.8125,5.0625 1.90625,4.90625 Q 2,4.75 2,4.5 V 4.25 4.625 5 4.5"
       style="fill:#69c160;fill-opacity:1" />
    <path
       id="path44"
       d="M 11,4.5 Q 11,4 11.5,4 H 12 l 0.125,0.375 Q 12.25,4.75 11.96875,5.03125 L 11.6875,5.3125 11.75,5.375 11.8125,5.4375 11.6875,5.3125 Q 11.5625,5.1875 11.375,5.125 L 11.1875,5.0625 11.46875,5.15625 11.75,5.25 11.375,5.125 11,5 V 4.5"
       style="fill:#54b348;fill-opacity:1" />
    <path
       id="path46"
       d="M 13,4.5 12.75,4.25 12.9375,4.4375 13.125,4.625 13,4.5 Q 12.875,4.375 12.71875,4.28125 L 12.5625,4.1875 12.640625,4.234375 12.71875,4.28125 13,4 13.28125,3.71875 13.203125,3.671875 13.125,3.625 13.28125,3.71875 Q 13.4375,3.8125 13.625,3.875 L 13.8125,3.9375 13.53125,3.84375 13.25,3.75 13.609375,3.890625 13.96875,4.03125 13.953125,3.921875 13.9375,3.8125 13.96875,4.03125 Q 14,4.25 14,4.5 V 4.75 4.375 4 4.5 5 L 13.625,4.875 Q 13.25,4.75 13,4.5"
       style="fill:#7bd073;fill-opacity:1" />
    <path
       id="path48"
       d="M 1.125,5.625 Q 1.25,5.25 1.625,5.125 L 2,5 1.71875,5.09375 1.4375,5.1875 1.625,5.125 Q 1.8125,5.0625 1.90625,4.90625 L 2,4.75 1.953125,4.828125 1.90625,4.90625 1.953125,5.453125 2,6 V 5.625 5.25 5.5 Q 2,5.75 1.96875,5.96875 L 1.9375,6.1875 1.953125,6.078125 1.96875,5.96875 1.5,6 1.03125,6.03125 1.015625,6.140625 1,6.25 1.03125,6.03125 Q 1.0625,5.8125 1.125,5.625 L 1.1875,5.4375 1.09375,5.71875 1,6 1.125,5.625"
       style="fill:#bcedb9;fill-opacity:1" />
    <path
       id="path50"
       d="M 10,5.5 Q 10.25,5.25 10.625,5.125 L 11,5 10.71875,5.09375 10.4375,5.1875 10.625,5.125 Q 10.8125,5.0625 11,5.0625 H 11.1875 11.09375 11 V 5.53125 6 L 10.625,6.125 Q 10.25,6.25 10,6.5 9.75,6.75 9.5,7 9.25,7.25 9,7.5 8.75,7.75 8.5,8 L 8.25,8.25 7.984375,7.984375 7.71875,7.71875 7.640625,7.765625 7.5625,7.8125 7.71875,7.71875 Q 7.875,7.625 8,7.5 L 8.125,7.375 7.9375,7.5625 7.75,7.75 8,7.5 Q 8.25,7.25 8.5,7 8.75,6.75 9,6.5 9.25,6.25 9.5,6 9.75,5.75 10,5.5 M 8.1875,8.3125 8.25,8.25 8.4375,8.0625 8.625,7.875 8.5,8 Q 8.375,8.125 8.25,8.25 L 8.125,8.375 8.1875,8.3125 M 11,6.125 V 6 5.625 5.25 5.5 Q 11,5.75 11,6 V 6.25 6.125"
       style="fill:#afe8ac;fill-opacity:1" />
    <path
       id="path52"
       d="M 11,5.5 V 5 l 0.375,0.125 q 0.375,0.125 0.5,0.5 0.125,0.375 0,0.75 -0.125,0.375 -0.5,0.5 L 11,7 V 6.5 q 0,-0.5 0,-1"
       style="fill:#70c567;fill-opacity:1" />
    <path
       id="path54"
       d="M 14,5.5 V 5 l 0.375,0.125 q 0.375,0.125 0.5,0.5 L 15,6 14.90625,5.71875 14.8125,5.4375 14.875,5.625 q 0.0625,0.1875 0.09375,0.40625 L 15,6.25 14.984375,6.140625 14.96875,6.03125 14.484375,6.015625 14,6 V 5.5 m 0,0.125 V 6 6.125 6.25 6 Q 14,5.75 14,5.5 V 5.25 5.625"
       style="fill:#d5f3d3;fill-opacity:1" />
    <path
       id="path56"
       d="M 1,6.5 V 6 6.375 6.75 6.5 Q 1,6.25 1.03125,6.03125 L 1.0625,5.8125 1.046875,5.921875 1.03125,6.03125 1.5,6 1.96875,5.96875 1.984375,5.859375 2,5.75 1.96875,5.96875 Q 1.9375,6.1875 1.875,6.375 L 1.8125,6.5625 1.90625,6.28125 2,6 1.875,6.375 Q 1.75,6.75 1.375,6.875 L 1,7 V 6.5"
       style="fill:#7ed278;fill-opacity:1" />
    <path
       id="path58"
       d="M 4.875,6.375 Q 5,6 5.5,6 6,6 6.125,6.375 6.25,6.75 6.625,6.875 7,7 7,7.5 V 8 L 6.625,7.875 Q 6.25,7.75 6,7.5 5.75,7.25 5.5,7.25 H 5.25 5.4375 5.625 5.5 q -0.125,0 -0.21875,0.09375 L 5.1875,7.4375 5.234375,7.390625 5.28125,7.34375 5.015625,7.046875 Q 4.75,6.75 4.875,6.375"
       style="fill:#68c05d;fill-opacity:1" />
    <path
       id="path60"
       d="M 10,6.5 Q 10.25,6.25 10.625,6.125 L 11,6 V 6.5 7 L 10.875,7.375 Q 10.75,7.75 10.5,8 10.25,8.25 10,8.5 9.75,8.75 9.5,9 9.25,9.25 9,9.5 8.75,9.75 8.5,10 8.25,10.25 8,10.5 7.75,10.75 7.375,10.875 L 7,11 7.28125,10.90625 7.5625,10.8125 7.375,10.875 Q 7.1875,10.9375 7,10.9375 H 6.8125 6.90625 7 L 6.875,10.59375 Q 6.75,10.25 6.5,10 6.25,9.75 6,9.5 5.75,9.25 5.390625,9.109375 L 5.03125,8.96875 5.046875,9.078125 5.0625,9.1875 5.03125,8.96875 Q 5,8.75 5,8.5 V 8.25 8.625 9 8.5 8 L 5.375,8.125 Q 5.75,8.25 6,8.5 6.25,8.75 6.5,9 6.75,9.25 7.015625,8.953125 L 7.28125,8.65625 7.234375,8.609375 7.1875,8.5625 7.28125,8.65625 Q 7.375,8.75 7.5,8.75 H 7.625 7.4375 7.25 7.5 Q 7.75,8.75 8,8.5 8.25,8.25 8.5,8 8.75,7.75 9,7.5 9.25,7.25 9.5,7 9.75,6.75 10,6.5 M 11,6.375 V 6 5.875 5.75 6 q 0,0.25 0,0.5 V 6.75 6.375"
       style="fill:#fdfdfd;fill-opacity:1" />
    <path
       id="path62"
       d="M 14,6.5 V 6 L 14.484375,6.015625 14.96875,6.03125 14.953125,5.921875 14.9375,5.8125 14.96875,6.03125 Q 15,6.25 15,6.5 V 6.75 6.375 6 6.5 7 H 14.5 14 V 6.5 M 14,5.875 V 6 6.375 6.75 6.5 Q 14,6.25 14,6 V 5.75 5.875"
       style="fill:#94e08f;fill-opacity:1" />
    <path
       id="path64"
       d="M 1,7.5 V 7 L 1.375,6.875 1.75,6.75 1.46875,6.84375 1.1875,6.9375 1.375,6.875 Q 1.5625,6.8125 1.6875,6.6875 L 1.8125,6.5625 1.75,6.625 1.6875,6.6875 1.96875,6.96875 Q 2.25,7.25 2.125,7.625 L 2,8 H 1.5 1 V 7.5"
       style="fill:#68c05d;fill-opacity:1" />
    <path
       id="path66"
       d="M 5.125,7.625 Q 5.25,7.25 5.5,7.25 5.75,7.25 6,7.5 6.25,7.75 6.625,7.875 L 7,8 6.71875,7.90625 6.4375,7.8125 6.625,7.875 Q 6.8125,7.9375 7,7.9375 H 7.1875 7.09375 7 L 7.125,8.34375 7.25,8.75 7.15625,8.46875 7.0625,8.1875 7.125,8.375 Q 7.1875,8.5625 7.28125,8.65625 L 7.375,8.75 7.328125,8.703125 7.28125,8.65625 7.015625,8.953125 Q 6.75,9.25 6.5,9 6.25,8.75 6,8.5 5.75,8.25 5.375,8.125 L 5,8 5.125,7.625"
       style="fill:#f1faf0;fill-opacity:1" />
    <path
       id="path68"
       d="M 10.875,7.375 11,7 11.375,6.875 11.75,6.75 11.46875,6.84375 11.1875,6.9375 11.375,6.875 Q 11.5625,6.8125 11.6875,6.6875 L 11.8125,6.5625 11.75,6.625 11.6875,6.6875 11.96875,6.96875 Q 12.25,7.25 12.125,7.625 12,8 11.625,8.125 L 11.25,8.25 11.53125,8.15625 11.8125,8.0625 11.625,8.125 Q 11.4375,8.1875 11.28125,8.28125 L 11.125,8.375 11.203125,8.328125 11.28125,8.28125 11,8 10.71875,7.71875 10.671875,7.796875 10.625,7.875 10.71875,7.71875 Q 10.8125,7.5625 10.875,7.375 L 10.9375,7.1875 10.84375,7.46875 10.75,7.75 10.875,7.375"
       style="fill:#68c05d;fill-opacity:1" />
    <path
       id="path70"
       d="M 14,7.5 V 7 H 14.5 15 V 7.5 8 H 14.5 14 V 7.5"
       style="fill:#7ace73;fill-opacity:1" />
    <path
       id="path72"
       d="M 1,8.5 V 8 H 1.5 2 L 2.125,8.375 Q 2.25,8.75 1.96875,9.03125 L 1.6875,9.3125 1.75,9.375 1.8125,9.4375 1.6875,9.3125 Q 1.5625,9.1875 1.375,9.125 L 1.1875,9.0625 1.46875,9.15625 1.75,9.25 1.375,9.125 1,9 V 8.5"
       style="fill:#69c160;fill-opacity:1" />
    <path
       id="path74"
       d="M 7.125,8.34375 7,7.9375 H 6.90625 6.8125 7 q 0.1875,0 0.375,-0.0625 L 7.5625,7.8125 7.28125,7.90625 7,8 7.375,7.875 7.75,7.75 7.46875,7.84375 7.1875,7.9375 7.375,7.875 Q 7.5625,7.8125 7.71875,7.71875 L 7.875,7.625 7.796875,7.671875 7.71875,7.71875 7.984375,7.984375 8.25,8.25 8,8.5 Q 7.75,8.75 7.5,8.75 7.25,8.75 7.125,8.34375 M 8.0625,8.4375 8.25,8.25 8.3125,8.1875 8.375,8.125 8.25,8.25 Q 8.125,8.375 8,8.5 L 7.875,8.625 8.0625,8.4375"
       style="fill:#bcecba;fill-opacity:1" />
    <path
       id="path76"
       d="M 10,8.5 Q 10.25,8.25 10.5,8 L 10.75,7.75 10.5625,7.9375 10.375,8.125 10.5,8 Q 10.625,7.875 10.71875,7.71875 L 10.8125,7.5625 10.765625,7.640625 10.71875,7.71875 11,8 11.28125,8.28125 11.359375,8.234375 11.4375,8.1875 11.28125,8.28125 Q 11.125,8.375 11,8.5 L 10.875,8.625 11.0625,8.4375 11.25,8.25 11,8.5 Q 10.75,8.75 10.5,9 10.25,9.25 10,9.5 9.75,9.75 9.5,10 9.25,10.25 9,10.5 8.75,10.75 8.5,11 L 8.25,11.25 7.984375,10.984375 7.71875,10.71875 7.640625,10.765625 7.5625,10.8125 7.71875,10.71875 Q 7.875,10.625 8,10.5 L 8.125,10.375 7.9375,10.5625 7.75,10.75 8,10.5 Q 8.25,10.25 8.5,10 8.75,9.75 9,9.5 9.25,9.25 9.5,9 9.75,8.75 10,8.5 M 8.1875,11.3125 8.25,11.25 8.4375,11.0625 8.625,10.875 8.5,11 q -0.125,0.125 -0.25,0.25 l -0.125,0.125 0.0625,-0.0625"
       style="fill:#81d57b;fill-opacity:1" />
    <path
       id="path78"
       d="M 14,8.5 V 8 H 14.5 15 V 8.5 9 H 14.5 14 V 8.5"
       style="fill:#7bd073;fill-opacity:1" />
    <path
       id="path80"
       d="M 1,9.5 V 9 l 0.375,0.125 q 0.375,0.125 0.5,0.5 L 2,10 1.90625,9.71875 1.8125,9.4375 1.875,9.625 q 0.0625,0.1875 0.09375,0.40625 L 2,10.25 1.984375,10.140625 1.96875,10.03125 1.484375,10.015625 1,10 V 9.5 M 1,9.625 V 10 10.125 10.25 10 Q 1,9.75 1,9.5 V 9.25 9.625"
       style="fill:#7ace73;fill-opacity:1" />
    <path
       id="path82"
       d="M 5.125,9.375 5,9 5.09375,9.28125 5.1875,9.5625 5.125,9.375 Q 5.0625,9.1875 5.03125,8.96875 L 5,8.75 5.015625,8.859375 5.03125,8.96875 5.390625,9.109375 Q 5.75,9.25 6,9.5 6.25,9.75 6.5,10 6.75,10.25 6.875,10.59375 L 7,10.9375 H 7.09375 7.1875 7 q -0.1875,0 -0.375,-0.0625 L 6.4375,10.8125 6.71875,10.90625 7,11 6.625,10.875 Q 6.25,10.75 6,10.5 5.75,10.25 5.5,10 5.25,9.75 5.125,9.375"
       style="fill:#d6f3d5;fill-opacity:1" />
    <path
       id="path84"
       d="M 14,9.5 V 9 H 14.5 15 V 9.5 10 9.625 9.25 9.5 q 0,0.25 -0.03125,0.46875 L 14.9375,10.1875 14.953125,10.078125 14.96875,9.96875 14.484375,9.984375 14,10 V 9.5 m 0,0.125 V 10 10.125 10.25 10 Q 14,9.75 14,9.5 V 9.25 9.625"
       style="fill:#91de8d;fill-opacity:1" />
    <path
       id="path86"
       d="M 1,10.5 V 10 L 1.484375,10.015625 1.96875,10.03125 1.953125,9.921875 1.9375,9.8125 1.96875,10.03125 Q 2,10.25 2,10.5 V 10.75 10.375 10 10.5 11 L 1.515625,10.984375 1.03125,10.96875 1.046875,11.078125 1.0625,11.1875 1.03125,10.96875 Q 1,10.75 1,10.5 V 10.25 10.625 11 10.5 m 1,0.625 V 11 10.625 10.25 10.5 q 0,0.25 0,0.5 v 0.25 -0.125 M 1,9.875 V 10 10.375 10.75 10.5 Q 1,10.25 1,10 V 9.75 9.875"
       style="fill:#b5ebb2;fill-opacity:1" />
    <path
       id="path88"
       d="M 4.875,10.625 Q 4.75,10.25 5.015625,9.984375 L 5.28125,9.71875 5.234375,9.640625 5.1875,9.5625 5.28125,9.71875 Q 5.375,9.875 5.5,10 L 5.625,10.125 5.4375,9.9375 5.25,9.75 5.5,10 q 0.25,0.25 0.5,0.5 0.25,0.25 0.625,0.375 L 7,11 7.125,11.375 7.25,11.75 7.15625,11.46875 7.0625,11.1875 7.125,11.375 q 0.0625,0.1875 0.15625,0.28125 L 7.375,11.75 7.328125,11.703125 7.28125,11.65625 7.015625,11.953125 Q 6.75,12.25 6.375,12.125 6,12 5.875,11.625 5.75,11.25 5.375,11.125 5,11 4.875,10.625"
       style="fill:#54b348;fill-opacity:1" />
    <path
       id="path90"
       d="M 14.046875,10.546875 14,10 14.484375,9.984375 14.96875,9.96875 14.984375,9.859375 15,9.75 14.96875,9.96875 Q 14.9375,10.1875 14.875,10.375 L 14.8125,10.5625 14.90625,10.28125 15,10 14.875,10.375 q -0.125,0.375 -0.5,0.5 L 14,11 14.28125,10.90625 14.5625,10.8125 14.375,10.875 q -0.1875,0.0625 -0.28125,0.21875 L 14,11.25 14.04687,11.17187 14.09374,11.09374 14.04687,10.546865 M 14,9.875 V 10 10.375 10.75 10.5 Q 14,10.25 14,10 V 9.75 9.875"
       style="fill:#d0f2ce;fill-opacity:1" />
    <path
       id="path92"
       d="M 1.125,11.375 1,11 1.09375,11.28125 1.1875,11.5625 1.125,11.375 Q 1.0625,11.1875 1.03125,10.96875 L 1,10.75 1.015625,10.859375 1.03125,10.96875 1.515625,10.984375 2,11 V 11.5 12 L 1.625,11.875 q -0.375,-0.125 -0.5,-0.5 m 0.875,0 V 11 10.875 10.75 11 q 0,0.25 0,0.5 v 0.25 -0.375"
       style="fill:#fafefa;fill-opacity:1" />
    <path
       id="path94"
       d="M 2,11.5 V 11 H 2.5 Q 3,11 3.125,11.375 L 3.25,11.75 3.15625,11.46875 3.0625,11.1875 3.125,11.375 q 0.0625,0.1875 0.1875,0.3125 l 0.125,0.125 L 3.375,11.75 3.3125,11.6875 3.015625,11.984375 2.71875,12.28125 2.796875,12.328125 2.875,12.375 2.71875,12.28125 Q 2.5625,12.1875 2.375,12.125 L 2.1875,12.0625 2.46875,12.15625 2.75,12.25 2.375,12.125 2,12 v -0.5"
       style="fill:#60ba56;fill-opacity:1" />
    <path
       id="path96"
       d="M 7.125,11.375 7,11 7.375,10.875 7.75,10.75 7.46875,10.84375 7.1875,10.9375 7.375,10.875 Q 7.5625,10.8125 7.71875,10.71875 L 7.875,10.625 7.796875,10.671875 7.71875,10.71875 7.984375,10.984375 8.25,11.25 8,11.5 q -0.25,0.25 -0.5,0.25 -0.25,0 -0.375,-0.375 M 8.0625,11.4375 8.25,11.25 8.3125,11.1875 8.375,11.125 8.25,11.25 Q 8.125,11.375 8,11.5 l -0.125,0.125 0.1875,-0.1875"
       style="fill:#79ce71;fill-opacity:1" />
    <path
       id="path98"
       d="M 12.875,11.375 Q 13,11 13.546875,11.046875 l 0.546875,0.04687 0.04687,-0.07813 0.04687,-0.07813 -0.09375,0.15625 Q 14,11.25 14,11.5 V 11.75 11.375 11 11.5 12 11.625 11.25 11.5 q 0,0.25 -0.03125,0.46875 L 13.9375,12.1875 13.953125,12.078125 13.96875,11.96875 13.609375,12.109375 13.25,12.25 13.53125,12.15625 13.8125,12.0625 13.625,12.125 q -0.1875,0.0625 -0.34375,0.15625 L 13.125,12.375 13.203125,12.328125 13.28125,12.28125 12.984375,11.984375 12.6875,11.6875 12.625,11.75 l -0.0625,0.0625 0.125,-0.125 q 0.125,-0.125 0.1875,-0.3125 L 12.9375,11.1875 12.84375,11.46875 12.75,11.75 12.875,11.375"
       style="fill:#6fc566;fill-opacity:1" />
    <path
       id="path100"
       d="M 2.125,12.375 2,12 2.375,12.125 Q 2.75,12.25 3,12.5 L 3.25,12.75 3,13 2.75,13.25 2.5,13 Q 2.25,12.75 2.125,12.375 M 2.5625,13.0625 2.75,13.25 2.8125,13.3125 2.875,13.375 2.75,13.25 Q 2.625,13.125 2.5,13 l -0.125,-0.125 0.1875,0.1875 m 0.75,-0.25 L 3.25,12.75 3.0625,12.5625 2.875,12.375 3,12.5 q 0.125,0.125 0.25,0.25 l 0.125,0.125 -0.0625,-0.0625"
       style="fill:#d5f3d3;fill-opacity:1" />
    <path
       id="path102"
       d="M 3,12.5 2.75,12.25 2.9375,12.4375 3.125,12.625 3,12.5 Q 2.875,12.375 2.71875,12.28125 L 2.5625,12.1875 2.640625,12.234375 2.71875,12.28125 3.015625,11.984375 3.3125,11.6875 3.25,11.625 3.1875,11.5625 l 0.125,0.125 q 0.125,0.125 0.3125,0.1875 L 3.8125,11.9375 3.53125,11.84375 3.25,11.75 3.625,11.875 Q 4,12 4.125,12.375 L 4.25,12.75 4.15625,12.46875 4.0625,12.1875 4.125,12.375 q 0.0625,0.1875 0.1875,0.3125 l 0.125,0.125 L 4.375,12.75 4.3125,12.6875 4.015625,12.984375 3.71875,13.28125 3.765625,13.359375 3.8125,13.4375 3.71875,13.28125 Q 3.625,13.125 3.5,13 L 3.375,12.875 3.5625,13.0625 3.75,13.25 3.5,13 Q 3.25,12.75 3,12.5"
       style="fill:#4eb042;fill-opacity:1" />
    <path
       id="path104"
       d="M 11.875,12.375 Q 12,12 12.375,11.875 L 12.75,11.75 12.46875,11.84375 12.1875,11.9375 12.375,11.875 q 0.1875,-0.0625 0.3125,-0.1875 l 0.125,-0.125 -0.0625,0.0625 -0.0625,0.0625 0.296875,0.296875 0.296875,0.296875 0.07813,-0.04687 0.07813,-0.04687 -0.15625,0.09375 Q 13.125,12.375 13,12.5 L 12.875,12.625 13.0625,12.4375 13.25,12.25 13,12.5 Q 12.75,12.75 12.5,13 L 12.25,13.25 12.4375,13.0625 12.625,12.875 12.5,13 q -0.125,0.125 -0.21875,0.28125 L 12.1875,13.4375 12.23437,13.35937 12.28124,13.28124 11.984375,12.984375 11.6875,12.6875 11.625,12.75 l -0.0625,0.0625 0.125,-0.125 q 0.125,-0.125 0.1875,-0.3125 L 11.9375,12.1875 11.84375,12.46875 11.75,12.75 11.875,12.375"
       style="fill:#56b44b;fill-opacity:1" />
    <path
       id="path106"
       d="m 13,12.5 q 0.25,-0.25 0.609375,-0.390625 L 13.96875,11.96875 13.984375,11.859375 14,11.75 13.96875,11.96875 Q 13.9375,12.1875 13.875,12.375 L 13.8125,12.5625 13.90625,12.28125 14,12 13.875,12.375 Q 13.75,12.75 13.5,13 L 13.25,13.25 13,13 12.75,12.75 13,12.5 M 12.9375,12.5625 12.75,12.75 12.6875,12.8125 12.625,12.875 12.75,12.75 Q 12.875,12.625 13,12.5 l 0.125,-0.125 -0.1875,0.1875 m 0.25,0.75 L 13.25,13.25 13.4375,13.0625 13.625,12.875 13.5,13 q -0.125,0.125 -0.25,0.25 l -0.125,0.125 0.0625,-0.0625"
       style="fill:#e4f7e3;fill-opacity:1" />
    <path
       id="path108"
       d="M 3,13.5 2.75,13.25 3,13 3.25,12.75 3.5,13 q 0.25,0.25 0.375,0.625 L 4,14 3.625,13.875 Q 3.25,13.75 3,13.5 M 3.4375,12.9375 3.25,12.75 3.1875,12.6875 3.125,12.625 3.25,12.75 Q 3.375,12.875 3.5,13 l 0.125,0.125 -0.1875,-0.1875 m -0.75,0.25 L 2.75,13.25 2.9375,13.4375 3.125,13.625 3,13.5 Q 2.875,13.375 2.75,13.25 l -0.125,-0.125 0.0625,0.0625"
       style="fill:#d2f3d1;fill-opacity:1" />
    <path
       id="path110"
       d="M 3.875,13.625 3.75,13.25 3.84375,13.53125 3.9375,13.8125 3.875,13.625 Q 3.8125,13.4375 3.71875,13.28125 L 3.625,13.125 3.671875,13.203125 3.71875,13.28125 4.015625,12.984375 4.3125,12.6875 4.25,12.625 4.1875,12.5625 l 0.125,0.125 q 0.125,0.125 0.3125,0.1875 L 4.8125,12.9375 4.53125,12.84375 4.25,12.75 4.625,12.875 Q 5,13 5,13.5 V 14 H 4.5 4 L 3.875,13.625"
       style="fill:#60ba56;fill-opacity:1" />
    <path
       id="path112"
       d="M 11.046875,13.546875 Q 11,13 11.375,12.875 L 11.75,12.75 11.46875,12.84375 11.1875,12.9375 11.375,12.875 q 0.1875,-0.0625 0.3125,-0.1875 l 0.125,-0.125 -0.0625,0.0625 -0.0625,0.0625 0.296875,0.296875 0.296875,0.296875 0.04687,-0.07813 L 12.375,13.125 12.28125,13.28125 Q 12.1875,13.4375 12.125,13.625 L 12.0625,13.8125 12.15625,13.53125 12.25,13.25 12.109375,13.609375 11.96875,13.96875 12.078125,13.953125 12.1875,13.9375 11.96875,13.96875 Q 11.75,14 11.5,14 H 11.25 11.625 12 11.5 11 11.375 11.75 11.5 q -0.25,0 -0.40625,0.09375 l -0.15625,0.09375 0.07813,-0.04687 0.07813,-0.04687 -0.04687,-0.546875"
       style="fill:#69c160;fill-opacity:1" />
    <path
       id="path114"
       d="M 12.109375,13.609375 Q 12.25,13.25 12.5,13 L 12.75,12.75 13,13 13.25,13.25 13,13.5 q -0.25,0.25 -0.625,0.375 L 12,14 12.28125,13.90625 12.5625,13.8125 12.375,13.875 q -0.1875,0.0625 -0.40625,0.09375 L 11.75,14 11.859375,13.98437 11.96875,13.96874 12.109375,13.609365 M 13.0625,13.4375 13.25,13.25 13.3125,13.1875 13.375,13.125 13.25,13.25 Q 13.125,13.375 13,13.5 l -0.125,0.125 0.1875,-0.1875 m -0.25,-0.75 L 12.75,12.75 12.5625,12.9375 12.375,13.125 12.5,13 q 0.125,-0.125 0.25,-0.25 l 0.125,-0.125 -0.0625,0.0625"
       style="fill:#e1f7e0;fill-opacity:1" />
    <path
       id="path116"
       d="M 4.125,14.375 4,14 H 4.5 5 L 5.015625,14.484375 5.03125,14.96875 5.140625,14.984375 5.25,15 5.03125,14.96875 Q 4.8125,14.9375 4.625,14.875 L 4.4375,14.8125 4.71875,14.90625 5,15 4.625,14.875 Q 4.25,14.75 4.125,14.375 M 5.125,14 H 5 4.625 4.25 4.5 Q 4.75,14 5,14 H 5.25 5.125"
       style="fill:#fafefa;fill-opacity:1" />
    <path
       id="path118"
       d="M 5.015625,14.484375 5,14 H 5.5 6 5.625 5.25 5.5 q 0.25,0 0.46875,0.03125 L 6.1875,14.0625 6.078125,14.046875 5.96875,14.03125 5.984375,14.515625 6,15 H 5.5 5 5.375 5.75 5.5 Q 5.25,15 5.03125,14.96875 L 4.8125,14.9375 4.921875,14.953125 5.03125,14.96875 5.015625,14.484375 M 5.625,15 H 6 6.125 6.25 6 Q 5.75,15 5.5,15 H 5.25 5.625 M 5.375,14 H 5 4.875 4.75 5 q 0.25,0 0.5,0 H 5.75 5.375"
       style="fill:#b0e9ad;fill-opacity:1" />
    <path
       id="path120"
       d="M 5.984375,14.515625 5.96875,14.03125 5.859375,14.015625 5.75,14 5.96875,14.03125 Q 6.1875,14.0625 6.375,14.125 L 6.5625,14.1875 6.28125,14.09375 6,14 6.375,14.125 q 0.375,0.125 0.5,0.5 L 7,15 H 6.5 6 L 5.984375,14.515625 M 5.875,15 H 6 6.375 6.75 6.5 Q 6.25,15 6,15 H 5.75 5.875"
       style="fill:#79cd71;fill-opacity:1" />
    <path
       id="path122"
       d="M 6.875,14.625 6.75,14.25 6.84375,14.53125 6.9375,14.8125 6.875,14.625 Q 6.8125,14.4375 6.6875,14.3125 L 6.5625,14.1875 6.625,14.25 6.6875,14.3125 6.96875,14.03125 Q 7.25,13.75 7.625,13.875 8,14 8.375,13.875 8.75,13.75 9.03125,14.03125 L 9.3125,14.3125 9.375,14.25 9.4375,14.1875 9.3125,14.3125 Q 9.1875,14.4375 9.125,14.625 L 9.0625,14.8125 9.15625,14.53125 9.25,14.25 9.125,14.625 9,15 H 8.5 Q 8,15 7.5,15 H 7 L 6.875,14.625"
       style="fill:#69c160;fill-opacity:1" />
    <path
       id="path124"
       d="m 9.125,14.625 q 0.125,-0.375 0.5,-0.5 L 10,14 9.71875,14.09375 9.4375,14.1875 9.625,14.125 q 0.1875,-0.0625 0.40625,-0.09375 L 10.25,14 10.140625,14.015625 10.03125,14.03125 10,14.5 9.96875,14.96875 10.078125,14.953125 10.1875,14.9375 9.96875,14.96875 Q 9.75,15 9.5,15 H 9.25 9.625 10 9.5 9 l 0.125,-0.375"
       style="fill:#7bd073;fill-opacity:1" />
    <path
       id="path126"
       d="M 10,14.5 10.03125,14.03125 9.921875,14.046875 9.8125,14.0625 10.03125,14.03125 Q 10.25,14 10.5,14 H 10.75 10.375 10 l 0.546875,0.04687 0.546875,0.04687 0.07813,-0.04687 L 11.25,14 11.09375,14.09375 Q 10.9375,14.1875 10.875,14.375 L 10.8125,14.5625 10.90625,14.28125 11,14 10.875,14.375 q -0.125,0.375 -0.5,0.5 L 10,15 10.28125,14.90625 10.5625,14.8125 10.375,14.875 q -0.1875,0.0625 -0.40625,0.09375 L 9.75,15 9.859375,14.984375 9.96875,14.96875 10,14.5"
       style="fill:#bcedb9;fill-opacity:1" />
  </g>
</svg>
