<?xml version="1.0" encoding="UTF-8" standalone="no"?>
<svg
   xmlns:dc="http://purl.org/dc/elements/1.1/"
   xmlns:cc="http://creativecommons.org/ns#"
   xmlns:rdf="http://www.w3.org/1999/02/22-rdf-syntax-ns#"
   xmlns:svg="http://www.w3.org/2000/svg"
   xmlns="http://www.w3.org/2000/svg"
   viewBox="0 0 16 16"
   height="16"
   width="16"
   id="svg2"
   version="1.1">
  <metadata
     id="metadata8">
    <rdf:RDF>
      <cc:Work
         rdf:about="">
        <dc:format>image/svg+xml</dc:format>
        <dc:type
           rdf:resource="http://purl.org/dc/dcmitype/StillImage" />
        <dc:title></dc:title>
      </cc:Work>
    </rdf:RDF>
  </metadata>
  <defs
     id="defs6" />
  <g
     id="g446">
    <path
       id="path12"
       d="M 0,0.5 V 0 H 0.5 1 L 1.125,0.375 1.25,0.75 1.15625,0.46875 1.0625,0.1875 1.125,0.375 Q 1.1875,0.5625 1.3125,0.6875 L 1.4375,0.8125 1.375,0.75 1.3125,0.6875 1,1 0.6875,1.3125 0.75,1.375 0.8125,1.4375 0.6875,1.3125 Q 0.5625,1.1875 0.375,1.125 L 0.1875,1.0625 0.46875,1.15625 0.75,1.25 0.375,1.125 0,1 V 0.5"
       style="fill:#ffffff;fill-opacity:0.00392157" />
    <path
       id="path14"
       d="M 1.125,0.375 1,0 H 1.5 2 2.5 3 L 2.875,0.375 Q 2.75,0.75 2.375,0.875 L 2,1 1.625,0.875 Q 1.25,0.75 1.125,0.375"
       style="fill:#000000;fill-opacity:0" />
    <path
       id="path16"
       d="M 2.875,0.375 3,0 H 3.5 4 V 0.5 1 L 3.625,1.125 3.25,1.25 3.53125,1.15625 3.8125,1.0625 3.625,1.125 Q 3.4375,1.1875 3.3125,1.3125 L 3.1875,1.4375 3.25,1.375 3.3125,1.3125 3,1 2.6875,0.6875 2.625,0.75 2.5625,0.8125 2.6875,0.6875 Q 2.8125,0.5625 2.875,0.375 L 2.9375,0.1875 2.84375,0.46875 2.75,0.75 2.875,0.375"
       style="fill:#dfdfdf;fill-opacity:0.70980392" />
    <path
       id="path18"
       d="M 4,0.5 V 0 H 4.5 5 L 4.875,0.375 Q 4.75,0.75 4.375,0.875 L 4,1 V 0.5"
       style="fill:#d1d1d1;fill-opacity:1" />
    <path
       id="path20"
       d="M 4.875,0.375 5,0 H 5.5 6 V 0.5 1 L 5.625,1.125 5.25,1.25 5.53125,1.15625 5.8125,1.0625 5.625,1.125 Q 5.4375,1.1875 5.3125,1.3125 L 5.1875,1.4375 5.25,1.375 5.3125,1.3125 5,1 4.6875,0.6875 4.625,0.75 4.5625,0.8125 4.6875,0.6875 Q 4.8125,0.5625 4.875,0.375 L 4.9375,0.1875 4.84375,0.46875 4.75,0.75 4.875,0.375"
       style="fill:#b6b6b6;fill-opacity:1" />
    <path
       id="path22"
       d="M 6,0.5 V 0 H 6.5 7 V 0.5 1 H 6.5 6 V 0.5"
       style="fill:#a1a1a1;fill-opacity:1" />
    <path
       id="path24"
       d="M 7,0.5 V 0 H 7.5 8 8.5 9 V 0.5 1 H 8.5 Q 8,1 7.5,1 H 7 V 0.5"
       style="fill:#949494;fill-opacity:1" />
    <path
       id="path26"
       d="M 9,0.5 V 0 H 9.5 10 V 0.5 1 H 9.5 9 V 0.5"
       style="fill:#a1a1a1;fill-opacity:1" />
    <path
       id="path28"
       d="M 10,0.5 V 0 H 10.5 11 L 11.125,0.375 11.25,0.75 11.15625,0.46875 11.0625,0.1875 11.125,0.375 q 0.0625,0.1875 0.1875,0.3125 l 0.125,0.125 L 11.375,0.75 11.3125,0.6875 11,1 10.6875,1.3125 10.75,1.375 10.8125,1.4375 10.6875,1.3125 Q 10.5625,1.1875 10.375,1.125 L 10.1875,1.0625 10.46875,1.15625 10.75,1.25 10.375,1.125 10,1 V 0.5"
       style="fill:#b6b6b6;fill-opacity:1" />
    <path
       id="path30"
       d="M 11.125,0.375 11,0 H 11.5 12 V 0.5 1 L 11.625,0.875 q -0.375,-0.125 -0.5,-0.5"
       style="fill:#d1d1d1;fill-opacity:1" />
    <path
       id="path32"
       d="M 12,0.5 V 0 H 12.5 13 L 13.125,0.375 13.25,0.75 13.15625,0.46875 13.0625,0.1875 13.125,0.375 q 0.0625,0.1875 0.1875,0.3125 l 0.125,0.125 L 13.375,0.75 13.3125,0.6875 13,1 12.6875,1.3125 12.75,1.375 12.8125,1.4375 12.6875,1.3125 Q 12.5625,1.1875 12.375,1.125 L 12.1875,1.0625 12.46875,1.15625 12.75,1.25 12.375,1.125 12,1 V 0.5"
       style="fill:#dfdfdf;fill-opacity:0.70980392" />
    <path
       id="path34"
       d="M 13.125,0.375 13,0 h 0.5 0.5 0.5 0.5 l -0.125,0.375 q -0.125,0.375 -0.5,0.5 L 14,1 13.625,0.875 q -0.375,-0.125 -0.5,-0.5"
       style="fill:#000000;fill-opacity:0" />
    <path
       id="path36"
       d="M 14.875,0.375 15,0 H 15.5 16 V 0.5 1 L 15.625,1.125 15.25,1.25 15.53125,1.15625 15.8125,1.0625 15.625,1.125 Q 15.4375,1.1875 15.3125,1.3125 L 15.1875,1.4375 15.25,1.375 15.3125,1.3125 15,1 14.6875,0.6875 14.625,0.75 14.5625,0.8125 14.6875,0.6875 Q 14.8125,0.5625 14.875,0.375 L 14.9375,0.1875 14.84375,0.46875 14.75,0.75 14.875,0.375"
       style="fill:#ffffff;fill-opacity:0.00392157" />
    <path
       id="path38"
       d="M 0,1.5 V 1 l 0.375,0.125 q 0.375,0.125 0.5,0.5 L 1,2 0.875,2.375 Q 0.75,2.75 0.375,2.875 L 0,3 V 2.5 2 1.5"
       style="fill:#000000;fill-opacity:0" />
    <path
       id="path40"
       d="M 0.875,1.625 0.75,1.25 0.84375,1.53125 0.9375,1.8125 0.875,1.625 Q 0.8125,1.4375 0.6875,1.3125 L 0.5625,1.1875 0.625,1.25 0.6875,1.3125 1,1 1.3125,0.6875 1.25,0.625 1.1875,0.5625 1.3125,0.6875 Q 1.4375,0.8125 1.625,0.875 L 1.8125,0.9375 1.53125,0.84375 1.25,0.75 1.625,0.875 2,1 V 1.5 2 H 1.5 1 L 0.875,1.625"
       style="fill:#d5d5d5;fill-opacity:0.11764706" />
    <path
       id="path42"
       d="M 2,1.5 V 1 L 2.375,0.875 2.75,0.75 2.46875,0.84375 2.1875,0.9375 2.375,0.875 Q 2.5625,0.8125 2.6875,0.6875 L 2.8125,0.5625 2.75,0.625 2.6875,0.6875 3,1 3.3125,1.3125 3.375,1.25 3.4375,1.1875 3.3125,1.3125 Q 3.1875,1.4375 3.125,1.625 L 3.0625,1.8125 3.15625,1.53125 3.25,1.25 3.125,1.625 3,2 H 2.5 2 V 1.5"
       style="fill:#cacaca;fill-opacity:0.45490196" />
    <path
       id="path44"
       d="M 3.125,1.625 Q 3.25,1.25 3.625,1.125 L 4,1 3.875,1.375 Q 3.75,1.75 3.375,1.875 L 3,2 3.125,1.625"
       style="fill:#bbbbbb;fill-opacity:0.85882353" />
    <path
       id="path46"
       d="M 3.875,1.375 4,1 4.375,0.875 4.75,0.75 4.46875,0.84375 4.1875,0.9375 4.375,0.875 Q 4.5625,0.8125 4.6875,0.6875 L 4.8125,0.5625 4.75,0.625 4.6875,0.6875 5,1 5.3125,1.3125 5.375,1.25 5.4375,1.1875 5.3125,1.3125 Q 5.1875,1.4375 5.125,1.625 L 5.0625,1.8125 5.15625,1.53125 5.25,1.25 5.125,1.625 5,2 4.625,2.125 4.25,2.25 4.53125,2.15625 4.8125,2.0625 4.625,2.125 Q 4.4375,2.1875 4.3125,2.3125 L 4.1875,2.4375 4.25,2.375 4.3125,2.3125 4,2 3.6875,1.6875 3.625,1.75 3.5625,1.8125 3.6875,1.6875 Q 3.8125,1.5625 3.875,1.375 L 3.9375,1.1875 3.84375,1.46875 3.75,1.75 3.875,1.375"
       style="fill:#afafaf;fill-opacity:1" />
    <path
       id="path48"
       d="M 5.125,1.625 Q 5.25,1.25 5.625,1.125 L 6,1 V 1.5 2 H 5.5 5 L 5.125,1.625"
       style="fill:#9f9f9f;fill-opacity:1" />
    <path
       id="path50"
       d="M 6,1.5 V 1 H 6.5 7 V 1.5 2 H 6.5 6 V 1.5"
       style="fill:#929292;fill-opacity:1" />
    <path
       id="path52"
       d="M 7,1.5 V 1 H 7.5 Q 8,1 8.5,1 H 9 V 1.5 2 H 8.5 Q 8,2 7.5,2 H 7 V 1.5"
       style="fill:#8a8a8a;fill-opacity:1" />
    <path
       id="path54"
       d="M 9,1.5 V 1 H 9.5 10 V 1.5 2 H 9.5 9 V 1.5"
       style="fill:#919191;fill-opacity:1" />
    <path
       id="path56"
       d="M 10,1.5 V 1 l 0.375,0.125 q 0.375,0.125 0.5,0.5 L 11,2 H 10.5 10 V 1.5"
       style="fill:#9e9e9e;fill-opacity:1" />
    <path
       id="path58"
       d="M 10.875,1.625 10.75,1.25 10.84375,1.53125 10.9375,1.8125 10.875,1.625 Q 10.8125,1.4375 10.6875,1.3125 L 10.5625,1.1875 10.625,1.25 10.6875,1.3125 11,1 11.3125,0.6875 11.25,0.625 11.1875,0.5625 l 0.125,0.125 q 0.125,0.125 0.3125,0.1875 L 11.8125,0.9375 11.53125,0.84375 11.25,0.75 11.625,0.875 12,1 12.125,1.375 12.25,1.75 12.15625,1.46875 12.0625,1.1875 12.125,1.375 q 0.0625,0.1875 0.1875,0.3125 l 0.125,0.125 L 12.375,1.75 12.3125,1.6875 12,2 11.6875,2.3125 11.75,2.375 11.8125,2.4375 11.6875,2.3125 Q 11.5625,2.1875 11.375,2.125 L 11.1875,2.0625 11.46875,2.15625 11.75,2.25 11.375,2.125 11,2 10.875,1.625"
       style="fill:#aeaeae;fill-opacity:1" />
    <path
       id="path60"
       d="M 12.125,1.375 12,1 12.375,1.125 q 0.375,0.125 0.5,0.5 L 13,2 12.625,1.875 q -0.375,-0.125 -0.5,-0.5"
       style="fill:#bbbbbb;fill-opacity:0.85882353" />
    <path
       id="path62"
       d="M 12.875,1.625 12.75,1.25 12.84375,1.53125 12.9375,1.8125 12.875,1.625 Q 12.8125,1.4375 12.6875,1.3125 L 12.5625,1.1875 12.625,1.25 12.6875,1.3125 13,1 13.3125,0.6875 13.25,0.625 13.1875,0.5625 l 0.125,0.125 q 0.125,0.125 0.3125,0.1875 L 13.8125,0.9375 13.53125,0.84375 13.25,0.75 13.625,0.875 14,1 V 1.5 2 H 13.5 13 L 12.875,1.625"
       style="fill:#cacaca;fill-opacity:0.45490196" />
    <path
       id="path64"
       d="M 14,1.5 V 1 L 14.375,0.875 14.75,0.75 14.46875,0.84375 14.1875,0.9375 14.375,0.875 Q 14.5625,0.8125 14.6875,0.6875 L 14.8125,0.5625 14.75,0.625 14.6875,0.6875 15,1 15.3125,1.3125 15.375,1.25 15.4375,1.1875 15.3125,1.3125 Q 15.1875,1.4375 15.125,1.625 L 15.0625,1.8125 15.15625,1.53125 15.25,1.25 15.125,1.625 15,2 H 14.5 14 V 1.5"
       style="fill:#d5d5d5;fill-opacity:0.11764706" />
    <path
       id="path66"
       d="m 15.125,1.625 q 0.125,-0.375 0.5,-0.5 L 16,1 V 1.5 2 2.5 3 L 15.625,2.875 Q 15.25,2.75 15.125,2.375 L 15,2 15.125,1.625"
       style="fill:#000000;fill-opacity:0" />
    <path
       id="path68"
       d="M 0.875,2.375 1,2 H 1.5 2 V 2.5 3 L 1.625,3.125 1.25,3.25 1.53125,3.15625 1.8125,3.0625 1.625,3.125 Q 1.4375,3.1875 1.3125,3.3125 L 1.1875,3.4375 1.25,3.375 1.3125,3.3125 1,3 0.6875,2.6875 0.625,2.75 0.5625,2.8125 0.6875,2.6875 Q 0.8125,2.5625 0.875,2.375 L 0.9375,2.1875 0.84375,2.46875 0.75,2.75 0.875,2.375"
       style="fill:#cacaca;fill-opacity:0.45490196" />
    <path
       id="path70"
       d="M 2,2.5 V 2 H 2.5 3 L 2.875,2.375 Q 2.75,2.75 2.375,2.875 L 2,3 V 2.5"
       style="fill:#c1c1c1;fill-opacity:1" />
    <path
       id="path72"
       d="M 2.875,2.375 3,2 3.375,1.875 3.75,1.75 3.46875,1.84375 3.1875,1.9375 3.375,1.875 Q 3.5625,1.8125 3.6875,1.6875 L 3.8125,1.5625 3.75,1.625 3.6875,1.6875 4,2 4.3125,2.3125 4.375,2.25 4.4375,2.1875 4.3125,2.3125 Q 4.1875,2.4375 4.125,2.625 L 4.0625,2.8125 4.15625,2.53125 4.25,2.25 4.125,2.625 4,3 3.625,3.125 Q 3.25,3.25 3.125,3.625 L 3,4 2.625,4.125 2.25,4.25 2.53125,4.15625 2.8125,4.0625 2.625,4.125 Q 2.4375,4.1875 2.3125,4.3125 L 2.1875,4.4375 2.25,4.375 2.3125,4.3125 2,4 1.6875,3.6875 1.625,3.75 1.5625,3.8125 1.6875,3.6875 Q 1.8125,3.5625 1.875,3.375 L 1.9375,3.1875 1.84375,3.46875 1.75,3.75 1.875,3.375 2,3 2.375,2.875 q 0.375,-0.125 0.5,-0.5"
       style="fill:#9a9a9a;fill-opacity:1" />
    <path
       id="path74"
       d="M 4.125,2.625 Q 4.25,2.25 4.625,2.125 L 5,2 V 2.5 3 H 4.5 4 L 4.125,2.625"
       style="fill:#858585;fill-opacity:0.99607843" />
    <path
       id="path76"
       d="M 5,2.5 V 2 H 5.5 6 L 5.875,2.375 Q 5.75,2.75 5.375,2.875 L 5,3 V 2.5"
       style="fill:#8c8c8c;fill-opacity:1" />
    <path
       id="path78"
       d="M 5.875,2.375 6,2 H 6.5 7 V 2.5 3 L 6.625,3.125 6.25,3.25 6.53125,3.15625 6.8125,3.0625 6.625,3.125 Q 6.4375,3.1875 6.28125,3.28125 L 6.125,3.375 6.203125,3.328125 6.28125,3.28125 5.984375,2.984375 5.6875,2.6875 5.625,2.75 5.5625,2.8125 5.6875,2.6875 Q 5.8125,2.5625 5.875,2.375 L 5.9375,2.1875 5.84375,2.46875 5.75,2.75 5.875,2.375"
       style="fill:#8e8e8e;fill-opacity:1" />
    <path
       id="path80"
       d="M 7,2.5 V 2 H 7.5 Q 8,2 8.5,2 H 9 V 2.5 3 H 8.5 8 7.5 7 V 2.5"
       style="fill:#8f8f8f;fill-opacity:1" />
    <path
       id="path82"
       d="M 9,2.5 V 2 H 9.5 10 V 2.5 3 H 9.5 9 V 2.5"
       style="fill:#8e8e8e;fill-opacity:1" />
    <path
       id="path84"
       d="M 10,2.5 V 2 H 10.5 11 L 11.125,2.375 11.25,2.75 11.15625,2.46875 11.0625,2.1875 11.125,2.375 q 0.0625,0.1875 0.1875,0.3125 l 0.125,0.125 L 11.375,2.75 11.3125,2.6875 11.015625,2.984375 10.71875,3.28125 10.796875,3.328125 10.875,3.375 10.71875,3.28125 Q 10.5625,3.1875 10.375,3.125 L 10.1875,3.0625 10.46875,3.15625 10.75,3.25 10.375,3.125 10,3 V 2.5"
       style="fill:#8d8d8d;fill-opacity:1" />
    <path
       id="path86"
       d="M 11.125,2.375 11,2 11.375,2.125 q 0.375,0.125 0.5,0.5 L 12,3 11.625,2.875 q -0.375,-0.125 -0.5,-0.5"
       style="fill:#868686;fill-opacity:0.99607843" />
    <path
       id="path88"
       d="M 11.875,2.625 11.75,2.25 11.84375,2.53125 11.9375,2.8125 11.875,2.625 Q 11.8125,2.4375 11.6875,2.3125 L 11.5625,2.1875 11.625,2.25 11.6875,2.3125 12,2 12.3125,1.6875 12.25,1.625 12.1875,1.5625 l 0.125,0.125 q 0.125,0.125 0.3125,0.1875 L 12.8125,1.9375 12.53125,1.84375 12.25,1.75 12.625,1.875 13,2 13.125,2.375 q 0.125,0.375 0.5,0.5 L 14,3 14.125,3.375 14.25,3.75 14.15625,3.46875 14.0625,3.1875 14.125,3.375 q 0.0625,0.1875 0.1875,0.3125 l 0.125,0.125 L 14.375,3.75 14.3125,3.6875 14,4 13.6875,4.3125 13.75,4.375 13.8125,4.4375 13.6875,4.3125 Q 13.5625,4.1875 13.375,4.125 L 13.1875,4.0625 13.46875,4.15625 13.75,4.25 13.375,4.125 13,4 12.875,3.625 Q 12.75,3.25 12.375,3.125 L 12,3 11.875,2.625"
       style="fill:#9a9a9a;fill-opacity:1" />
    <path
       id="path90"
       d="M 13.125,2.375 13,2 H 13.5 14 V 2.5 3 L 13.625,2.875 q -0.375,-0.125 -0.5,-0.5"
       style="fill:#c1c1c1;fill-opacity:1" />
    <path
       id="path92"
       d="M 14,2.5 V 2 H 14.5 15 L 15.125,2.375 15.25,2.75 15.15625,2.46875 15.0625,2.1875 15.125,2.375 q 0.0625,0.1875 0.1875,0.3125 l 0.125,0.125 L 15.375,2.75 15.3125,2.6875 15,3 14.6875,3.3125 14.75,3.375 14.8125,3.4375 14.6875,3.3125 Q 14.5625,3.1875 14.375,3.125 L 14.1875,3.0625 14.46875,3.15625 14.75,3.25 14.375,3.125 14,3 V 2.5"
       style="fill:#cacaca;fill-opacity:0.45490196" />
    <path
       id="path94"
       d="M 0,3.5 V 3 L 0.375,2.875 0.75,2.75 0.46875,2.84375 0.1875,2.9375 0.375,2.875 Q 0.5625,2.8125 0.6875,2.6875 L 0.8125,2.5625 0.75,2.625 0.6875,2.6875 1,3 1.3125,3.3125 1.375,3.25 1.4375,3.1875 1.3125,3.3125 Q 1.1875,3.4375 1.125,3.625 L 1.0625,3.8125 1.15625,3.53125 1.25,3.25 1.125,3.625 1,4 H 0.5 0 V 3.5"
       style="fill:#dfdfdf;fill-opacity:0.70980392" />
    <path
       id="path96"
       d="M 1.125,3.625 Q 1.25,3.25 1.625,3.125 L 2,3 1.875,3.375 Q 1.75,3.75 1.375,3.875 L 1,4 1.125,3.625"
       style="fill:#bbbbbb;fill-opacity:0.85882353" />
    <path
       id="path98"
       d="M 3.125,3.625 Q 3.25,3.25 3.625,3.125 L 4,3 V 3.5 4 H 3.5 3 L 3.125,3.625"
       style="fill:#888888;fill-opacity:1" />
    <path
       id="path100"
       d="M 4,3.5 V 3 H 4.5 5 L 4.875,3.375 Q 4.75,3.75 4.375,3.875 L 4,4 V 3.5"
       style="fill:#8d8d8d;fill-opacity:0.99607843" />
    <path
       id="path102"
       d="M 4.875,3.375 5,3 5.375,2.875 5.75,2.75 5.46875,2.84375 5.1875,2.9375 5.375,2.875 Q 5.5625,2.8125 5.6875,2.6875 L 5.8125,2.5625 5.75,2.625 5.6875,2.6875 5.984375,2.984375 6.28125,3.28125 6.359375,3.234375 6.4375,3.1875 6.28125,3.28125 Q 6.125,3.375 6,3.5 L 5.875,3.625 6.0625,3.4375 6.25,3.25 6,3.5 Q 5.75,3.75 5.5,4 L 5.25,4.25 4.96875,3.96875 4.6875,3.6875 4.625,3.75 4.5625,3.8125 4.6875,3.6875 Q 4.8125,3.5625 4.875,3.375 L 4.9375,3.1875 4.84375,3.46875 4.75,3.75 4.875,3.375 M 5.1875,4.3125 5.25,4.25 5.4375,4.0625 5.625,3.875 5.5,4 Q 5.375,4.125 5.25,4.25 L 5.125,4.375 5.1875,4.3125"
       style="fill:#aaaaaa;fill-opacity:1" />
    <path
       id="path104"
       d="M 6,3.5 Q 6.25,3.25 6.625,3.125 L 7,3 V 3.5 4 L 6.625,4.125 6.25,4.25 6.53125,4.15625 6.8125,4.0625 6.625,4.125 Q 6.4375,4.1875 6.3125,4.3125 L 6.1875,4.4375 6.25,4.375 6.3125,4.3125 6.03125,4.03125 5.75,3.75 6,3.5 M 5.9375,3.5625 5.75,3.75 5.6875,3.8125 5.625,3.875 5.75,3.75 Q 5.875,3.625 6,3.5 L 6.125,3.375 5.9375,3.5625"
       style="fill:#cccccc;fill-opacity:1" />
    <path
       id="path106"
       d="M 7,3.5 V 3 H 7.5 8 V 3.5 4 H 7.5 7 V 3.5"
       style="fill:#e4e4e4;fill-opacity:1" />
    <path
       id="path108"
       d="M 8,3.5 V 3 H 8.5 9 V 3.5 4 H 8.5 8 V 3.5"
       style="fill:#e5e5e5;fill-opacity:1" />
    <path
       id="path110"
       d="M 9,3.5 V 3 H 9.5 10 V 3.5 4 H 9.5 9 V 3.5"
       style="fill:#dadada;fill-opacity:1" />
    <path
       id="path112"
       d="M 10,3.5 V 3 l 0.375,0.125 Q 10.75,3.25 11,3.5 L 11.25,3.75 10.984375,4.015625 10.71875,4.28125 10.796875,4.328125 10.875,4.375 10.71875,4.28125 Q 10.5625,4.1875 10.375,4.125 L 10.1875,4.0625 10.46875,4.15625 10.75,4.25 10.375,4.125 10,4 V 3.5 M 11.3125,3.8125 11.25,3.75 11.0625,3.5625 10.875,3.375 11,3.5 q 0.125,0.125 0.25,0.25 l 0.125,0.125 -0.0625,-0.0625"
       style="fill:#c3c3c3;fill-opacity:1" />
    <path
       id="path114"
       d="M 11,3.5 10.75,3.25 10.9375,3.4375 11.125,3.625 11,3.5 Q 10.875,3.375 10.71875,3.28125 L 10.5625,3.1875 10.640625,3.234375 10.71875,3.28125 11.015625,2.984375 11.3125,2.6875 11.25,2.625 11.1875,2.5625 l 0.125,0.125 q 0.125,0.125 0.3125,0.1875 L 11.8125,2.9375 11.53125,2.84375 11.25,2.75 11.625,2.875 12,3 12.125,3.375 12.25,3.75 12.15625,3.46875 12.0625,3.1875 12.125,3.375 q 0.0625,0.1875 0.1875,0.3125 l 0.125,0.125 L 12.375,3.75 12.3125,3.6875 12.03125,3.96875 11.75,4.25 11.5,4 Q 11.25,3.75 11,3.5 M 11.5625,4.0625 11.75,4.25 11.8125,4.3125 11.875,4.375 11.75,4.25 Q 11.625,4.125 11.5,4 l -0.125,-0.125 0.1875,0.1875"
       style="fill:#9c9c9c;fill-opacity:0.99607843" />
    <path
       id="path116"
       d="M 12.125,3.375 12,3 12.375,3.125 q 0.375,0.125 0.5,0.5 L 13,4 12.625,3.875 q -0.375,-0.125 -0.5,-0.5"
       style="fill:#8e8e8e;fill-opacity:1" />
    <path
       id="path118"
       d="M 14.125,3.375 14,3 14.375,3.125 q 0.375,0.125 0.5,0.5 L 15,4 14.625,3.875 q -0.375,-0.125 -0.5,-0.5"
       style="fill:#bbbbbb;fill-opacity:0.85882353" />
    <path
       id="path120"
       d="M 14.875,3.625 14.75,3.25 14.84375,3.53125 14.9375,3.8125 14.875,3.625 Q 14.8125,3.4375 14.6875,3.3125 L 14.5625,3.1875 14.625,3.25 14.6875,3.3125 15,3 15.3125,2.6875 15.25,2.625 15.1875,2.5625 l 0.125,0.125 q 0.125,0.125 0.3125,0.1875 L 15.8125,2.9375 15.53125,2.84375 15.25,2.75 15.625,2.875 16,3 V 3.5 4 H 15.5 15 L 14.875,3.625"
       style="fill:#dfdfdf;fill-opacity:0.70980392" />
    <path
       id="path122"
       d="M 0,4.5 V 4 H 0.5 1 V 4.5 5 H 0.5 0 V 4.5"
       style="fill:#d1d1d1;fill-opacity:1" />
    <path
       id="path124"
       d="M 1,4.5 V 4 L 1.375,3.875 1.75,3.75 1.46875,3.84375 1.1875,3.9375 1.375,3.875 Q 1.5625,3.8125 1.6875,3.6875 L 1.8125,3.5625 1.75,3.625 1.6875,3.6875 2,4 2.3125,4.3125 2.375,4.25 2.4375,4.1875 2.3125,4.3125 Q 2.1875,4.4375 2.125,4.625 L 2.0625,4.8125 2.15625,4.53125 2.25,4.25 2.125,4.625 2,5 H 1.5 1 V 4.5"
       style="fill:#b0b0b0;fill-opacity:1" />
    <path
       id="path126"
       d="M 2.125,4.625 Q 2.25,4.25 2.625,4.125 L 3,4 V 4.5 5 H 2.5 2 L 2.125,4.625"
       style="fill:#858585;fill-opacity:0.99607843" />
    <path
       id="path128"
       d="M 3,4.5 V 4 H 3.5 4 L 3.875,4.375 Q 3.75,4.75 3.375,4.875 L 3,5 V 4.5"
       style="fill:#898989;fill-opacity:0.99607843" />
    <path
       id="path130"
       d="M 3.875,4.375 4,4 4.375,3.875 4.75,3.75 4.46875,3.84375 4.1875,3.9375 4.375,3.875 Q 4.5625,3.8125 4.6875,3.6875 L 4.8125,3.5625 4.75,3.625 4.6875,3.6875 4.96875,3.96875 5.25,4.25 5,4.5 Q 4.75,4.75 4.5,5 L 4.25,5.25 4.4375,5.0625 4.625,4.875 4.5,5 Q 4.375,5.125 4.3125,5.25 L 4.25,5.375 4.28125,5.3125 4.3125,5.25 4,4.96875 3.6875,4.6875 3.625,4.75 3.5625,4.8125 3.6875,4.6875 Q 3.8125,4.5625 3.875,4.375 L 3.9375,4.1875 3.84375,4.46875 3.75,4.75 3.875,4.375 M 5.0625,4.4375 5.25,4.25 5.3125,4.1875 5.375,4.125 5.25,4.25 Q 5.125,4.375 5,4.5 L 4.875,4.625 5.0625,4.4375"
       style="fill:#a7a7a7;fill-opacity:1" />
    <path
       id="path132"
       d="M 5,4.5 Q 5.25,4.25 5.5,4 L 5.75,3.75 6.03125,4.03125 6.3125,4.3125 6.375,4.25 6.4375,4.1875 6.3125,4.3125 Q 6.1875,4.4375 6.125,4.625 L 6.0625,4.8125 6.15625,4.53125 6.25,4.25 6.125,4.625 6,5 5.625,5.125 5.25,5.25 5.53125,5.15625 5.8125,5.0625 5.625,5.125 Q 5.4375,5.1875 5.34375,5.28125 L 5.25,5.375 5.296875,5.328125 5.34375,5.28125 5.046875,5.015625 4.75,4.75 5,4.5 M 4.9375,4.5625 4.75,4.75 4.6875,4.8125 4.625,4.875 4.75,4.75 Q 4.875,4.625 5,4.5 L 5.125,4.375 4.9375,4.5625 M 5.8125,3.6875 5.75,3.75 5.5625,3.9375 5.375,4.125 5.5,4 Q 5.625,3.875 5.75,3.75 L 5.875,3.625 5.8125,3.6875"
       style="fill:#d5d5d5;fill-opacity:1" />
    <path
       id="path134"
       d="M 6.125,4.625 Q 6.25,4.25 6.625,4.125 L 7,4 6.875,4.375 Q 6.75,4.75 6.375,4.875 L 6,5 6.125,4.625"
       style="fill:#efefef;fill-opacity:1" />
    <path
       id="path136"
       d="M 6.875,4.375 7,4 H 7.5 8 L 7.875,4.375 Q 7.75,4.75 7.5,5 L 7.25,5.25 6.96875,4.96875 6.6875,4.6875 6.625,4.75 6.5625,4.8125 6.6875,4.6875 Q 6.8125,4.5625 6.875,4.375 L 6.9375,4.1875 6.84375,4.46875 6.75,4.75 6.875,4.375 M 7.1875,5.3125 7.25,5.25 7.4375,5.0625 7.625,4.875 7.5,5 Q 7.375,5.125 7.25,5.25 L 7.125,5.375 7.1875,5.3125"
       style="fill:#f8f8f8;fill-opacity:1" />
    <path
       id="path138"
       d="M 7.875,4.375 8,4 H 8.5 9 L 9.125,4.375 9.25,4.75 9.15625,4.46875 9.0625,4.1875 9.125,4.375 Q 9.1875,4.5625 9.28125,4.71875 L 9.375,4.875 9.328125,4.796875 9.28125,4.71875 9.015625,5.015625 8.75,5.3125 8.8125,5.34375 8.875,5.375 8.75,5.3125 Q 8.625,5.25 8.5,5.25 H 8.375 8.5625 8.75 8.5 8.25 8.4375 8.625 8.5 q -0.125,0 -0.25,0.0625 L 8.125,5.375 8.1875,5.34375 8.25,5.3125 7.984375,5.015625 7.71875,4.71875 7.671875,4.796875 7.625,4.875 7.71875,4.71875 Q 7.8125,4.5625 7.875,4.375 L 7.9375,4.1875 7.84375,4.46875 7.75,4.75 7.875,4.375"
       style="fill:#ececec;fill-opacity:1" />
    <path
       id="path140"
       d="M 9.125,4.375 9,4 H 9.5 10 L 10.125,4.375 10.25,4.75 10.15625,4.46875 10.0625,4.1875 10.125,4.375 q 0.0625,0.1875 0.15625,0.34375 L 10.375,4.875 10.328125,4.796875 10.28125,4.71875 10,5 9.71875,5.28125 9.765625,5.359375 9.8125,5.4375 9.71875,5.28125 Q 9.625,5.125 9.5,5 L 9.375,4.875 9.5625,5.0625 9.75,5.25 9.5,5 Q 9.25,4.75 9.125,4.375"
       style="fill:#eeeeee;fill-opacity:1" />
    <path
       id="path142"
       d="M 10.125,4.375 10,4 10.375,4.125 Q 10.75,4.25 11,4.5 L 11.25,4.75 10.984375,5.015625 10.71875,5.28125 10.765625,5.359375 10.8125,5.4375 10.71875,5.28125 Q 10.625,5.125 10.5,5 L 10.375,4.875 10.5625,5.0625 10.75,5.25 10.5,5 Q 10.25,4.75 10.125,4.375 M 11.3125,4.8125 11.25,4.75 11.0625,4.5625 10.875,4.375 11,4.5 q 0.125,0.125 0.25,0.25 l 0.125,0.125 -0.0625,-0.0625"
       style="fill:#ebebeb;fill-opacity:1" />
    <path
       id="path144"
       d="M 11,4.5 10.75,4.25 10.9375,4.4375 11.125,4.625 11,4.5 Q 10.875,4.375 10.71875,4.28125 L 10.5625,4.1875 10.640625,4.234375 10.71875,4.28125 10.984375,4.015625 11.25,3.75 11.5,4 Q 11.75,4.25 12,4.5 L 12.25,4.75 11.984375,5.015625 11.71875,5.28125 11.765625,5.359375 11.8125,5.4375 11.71875,5.28125 Q 11.625,5.125 11.5,5 L 11.375,4.875 11.5625,5.0625 11.75,5.25 11.5,5 Q 11.25,4.75 11,4.5 M 12.3125,4.8125 12.25,4.75 12.0625,4.5625 11.875,4.375 12,4.5 q 0.125,0.125 0.25,0.25 L 12.375,4.875 12.3125,4.8125 M 11.4375,3.9375 11.25,3.75 11.1875,3.6875 11.125,3.625 11.25,3.75 Q 11.375,3.875 11.5,4 l 0.125,0.125 -0.1875,-0.1875"
       style="fill:#c0c0c0;fill-opacity:1" />
    <path
       id="path146"
       d="M 12,4.5 11.75,4.25 12.03125,3.96875 12.3125,3.6875 12.25,3.625 12.1875,3.5625 l 0.125,0.125 q 0.125,0.125 0.3125,0.1875 L 12.8125,3.9375 12.53125,3.84375 12.25,3.75 12.625,3.875 13,4 13.125,4.375 13.25,4.75 13.15625,4.46875 13.0625,4.1875 13.125,4.375 q 0.0625,0.1875 0.1875,0.3125 l 0.125,0.125 L 13.375,4.75 13.3125,4.6875 13.015625,4.984375 12.71875,5.28125 12.765625,5.359375 12.8125,5.4375 12.71875,5.28125 Q 12.625,5.125 12.5,5 L 12.375,4.875 12.5625,5.0625 12.75,5.25 12.5,5 Q 12.25,4.75 12,4.5 M 11.6875,4.1875 11.75,4.25 11.9375,4.4375 12.125,4.625 12,4.5 Q 11.875,4.375 11.75,4.25 l -0.125,-0.125 0.0625,0.0625"
       style="fill:#999999;fill-opacity:0.99607843" />
    <path
       id="path148"
       d="M 13.125,4.375 13,4 13.375,4.125 q 0.375,0.125 0.5,0.5 L 14,5 13.625,4.875 q -0.375,-0.125 -0.5,-0.5"
       style="fill:#868686;fill-opacity:0.99607843" />
    <path
       id="path150"
       d="M 13.875,4.625 13.75,4.25 13.84375,4.53125 13.9375,4.8125 13.875,4.625 Q 13.8125,4.4375 13.6875,4.3125 L 13.5625,4.1875 13.625,4.25 13.6875,4.3125 14,4 14.3125,3.6875 14.25,3.625 14.1875,3.5625 l 0.125,0.125 q 0.125,0.125 0.3125,0.1875 L 14.8125,3.9375 14.53125,3.84375 14.25,3.75 14.625,3.875 15,4 15.125,4.375 15.25,4.75 15.15625,4.46875 15.0625,4.1875 15.125,4.375 q 0.0625,0.1875 0.1875,0.3125 l 0.125,0.125 L 15.375,4.75 15.3125,4.6875 15,5 14.6875,5.3125 14.75,5.375 14.8125,5.4375 14.6875,5.3125 Q 14.5625,5.1875 14.375,5.125 L 14.1875,5.0625 14.46875,5.15625 14.75,5.25 14.375,5.125 14,5 13.875,4.625"
       style="fill:#afafaf;fill-opacity:1" />
    <path
       id="path152"
       d="M 15.125,4.375 15,4 H 15.5 16 V 4.5 5 L 15.625,4.875 q -0.375,-0.125 -0.5,-0.5"
       style="fill:#d1d1d1;fill-opacity:1" />
    <path
       id="path154"
       d="M 0,5.5 V 5 H 0.5 1 V 5.5 6 H 0.5 0 V 5.5"
       style="fill:#b6b6b6;fill-opacity:1" />
    <path
       id="path156"
       d="M 1,5.5 V 5 H 1.5 2 V 5.5 6 H 1.5 1 V 5.5"
       style="fill:#a1a1a1;fill-opacity:1" />
    <path
       id="path158"
       d="M 2,5.5 V 5 H 2.5 3 V 5.5 6 6.5 7 7.5 Q 3,8 3,8.5 3,9 2.5,9 H 2 V 8.5 Q 2,8 2,7.5 V 7 6.5 6 5.5"
       style="fill:#8b8b8b;fill-opacity:1" />
    <path
       id="path160"
       d="M 3,5.5 V 5 L 3.375,4.875 3.75,4.75 3.46875,4.84375 3.1875,4.9375 3.375,4.875 Q 3.5625,4.8125 3.6875,4.6875 L 3.8125,4.5625 3.75,4.625 3.6875,4.6875 4,4.96875 4.3125,5.25 4.34375,5.1875 4.375,5.125 4.3125,5.25 Q 4.25,5.375 4.25,5.5 V 5.625 5.4375 5.25 5.5 5.75 5.5625 5.375 5.5 q 0,0.125 0.0625,0.25 L 4.375,5.875 4.34375,5.8125 4.3125,5.75 4,6.03125 3.6875,6.3125 3.75,6.375 3.8125,6.4375 3.6875,6.3125 Q 3.5625,6.1875 3.375,6.125 L 3.1875,6.0625 3.46875,6.15625 3.75,6.25 3.375,6.125 3,6 V 5.5"
       style="fill:#9a9a9a;fill-opacity:1" />
    <path
       id="path162"
       d="M 4.25,5.5 Q 4.25,5.25 4.5,5 L 4.75,4.75 5.046875,5.015625 5.34375,5.28125 5.390625,5.234375 5.4375,5.1875 5.34375,5.28125 Q 5.25,5.375 5.25,5.5 V 5.625 5.4375 5.25 5.5 5.75 5.5625 5.375 5.5 q 0,0.125 0.0625,0.1875 L 5.375,5.75 5.34375,5.71875 5.3125,5.6875 5.03125,5.96875 4.75,6.25 4.5,6 Q 4.25,5.75 4.25,5.5 M 4.5625,6.0625 4.75,6.25 4.8125,6.3125 4.875,6.375 4.75,6.25 Q 4.625,6.125 4.5,6 L 4.375,5.875 4.5625,6.0625 M 4.8125,4.6875 4.75,4.75 4.5625,4.9375 4.375,5.125 4.5,5 Q 4.625,4.875 4.75,4.75 L 4.875,4.625 4.8125,4.6875"
       style="fill:#c4c4c4;fill-opacity:1" />
    <path
       id="path164"
       d="m 5.25,5.5 q 0,-0.25 0.375,-0.375 L 6,5 5.875,5.375 Q 5.75,5.75 5.5,5.75 5.25,5.75 5.25,5.5"
       style="fill:#fafafa;fill-opacity:1" />
    <path
       id="path166"
       d="M 5.875,5.375 6,5 6.375,4.875 6.75,4.75 6.46875,4.84375 6.1875,4.9375 6.375,4.875 Q 6.5625,4.8125 6.6875,4.6875 L 6.8125,4.5625 6.75,4.625 6.6875,4.6875 6.96875,4.96875 7.25,5.25 7,5.5 Q 6.75,5.75 6.5,6 L 6.25,6.25 5.984375,5.953125 5.71875,5.65625 5.671875,5.703125 5.625,5.75 5.71875,5.65625 Q 5.8125,5.5625 5.875,5.375 L 5.9375,5.1875 5.84375,5.46875 5.75,5.75 5.875,5.375 M 6.1875,6.3125 6.25,6.25 6.4375,6.0625 6.625,5.875 6.5,6 Q 6.375,6.125 6.25,6.25 L 6.125,6.375 6.1875,6.3125 M 7.0625,5.4375 7.25,5.25 7.3125,5.1875 7.375,5.125 7.25,5.25 Q 7.125,5.375 7,5.5 L 6.875,5.625 7.0625,5.4375"
       style="fill:#e8e8e8;fill-opacity:1" />
    <path
       id="path168"
       d="M 7,5.5 Q 7.25,5.25 7.5,5 L 7.75,4.75 7.5625,4.9375 7.375,5.125 7.5,5 Q 7.625,4.875 7.71875,4.71875 L 7.8125,4.5625 7.765625,4.640625 7.71875,4.71875 7.984375,5.015625 8.25,5.3125 8.3125,5.28125 8.375,5.25 8.25,5.3125 Q 8.125,5.375 8,5.5 L 7.875,5.625 8.0625,5.4375 8.25,5.25 8,5.5 Q 7.75,5.75 7.5,6 L 7.25,6.25 7.4375,6.0625 7.625,5.875 7.5,6 Q 7.375,6.125 7.28125,6.28125 L 7.1875,6.4375 7.234375,6.359375 7.28125,6.28125 7.015625,6.015625 6.75,5.75 7,5.5 M 6.9375,5.5625 6.75,5.75 6.6875,5.8125 6.625,5.875 6.75,5.75 Q 6.875,5.625 7,5.5 L 7.125,5.375 6.9375,5.5625"
       style="fill:#c2c2c2;fill-opacity:1" />
    <path
       id="path170"
       d="M 8,5.5 Q 8.25,5.25 8.5,5.25 8.75,5.25 9,5.5 L 9.25,5.75 9.0625,5.5625 8.875,5.375 9,5.5 Q 9.125,5.625 9.28125,5.71875 L 9.4375,5.8125 9.359375,5.765625 9.28125,5.71875 8.984375,6.015625 8.6875,6.3125 8.71875,6.34375 8.75,6.375 8.6875,6.3125 Q 8.625,6.25 8.5,6.25 H 8.375 8.5625 8.75 8.5 8.25 8.4375 8.625 8.5 q -0.125,0 -0.21875,0.09375 L 8.1875,6.4375 8.234375,6.390625 8.28125,6.34375 8.015625,6.046875 7.75,5.75 8,5.5 M 7.9375,5.5625 7.75,5.75 7.6875,5.8125 7.625,5.875 7.75,5.75 Q 7.875,5.625 8,5.5 L 8.125,5.375 7.9375,5.5625"
       style="fill:#9e9e9e;fill-opacity:1" />
    <path
       id="path172"
       d="M 9,5.5 8.75,5.25 8.9375,5.4375 9.125,5.625 9,5.5 Q 8.875,5.375 8.75,5.3125 L 8.625,5.25 8.6875,5.28125 8.75,5.3125 9.015625,5.015625 9.28125,4.71875 9.234375,4.640625 9.1875,4.5625 9.28125,4.71875 Q 9.375,4.875 9.5,5 L 9.625,5.125 9.4375,4.9375 9.25,4.75 9.5,5 Q 9.75,5.25 9.875,5.625 L 10,6 9.625,5.875 Q 9.25,5.75 9,5.5"
       style="fill:#c4c4c4;fill-opacity:1" />
    <path
       id="path174"
       d="M 9.875,5.625 9.75,5.25 9.84375,5.53125 9.9375,5.8125 9.875,5.625 Q 9.8125,5.4375 9.71875,5.28125 L 9.625,5.125 9.671875,5.203125 9.71875,5.28125 10,5 10.28125,4.71875 10.234375,4.640625 10.1875,4.5625 10.28125,4.71875 Q 10.375,4.875 10.5,5 L 10.625,5.125 10.4375,4.9375 10.25,4.75 10.5,5 q 0.25,0.25 0.375,0.625 L 11,6 H 10.5 10 L 9.875,5.625"
       style="fill:#fbfbfb;fill-opacity:1" />
    <path
       id="path176"
       d="M 10.875,5.625 10.75,5.25 10.84375,5.53125 10.9375,5.8125 10.875,5.625 Q 10.8125,5.4375 10.71875,5.28125 L 10.625,5.125 10.671875,5.203125 10.71875,5.28125 10.984375,5.015625 11.25,4.75 11.5,5 q 0.25,0.25 0.375,0.625 L 12,6 H 11.5 11 L 10.875,5.625 M 11.4375,4.9375 11.25,4.75 11.1875,4.6875 11.125,4.625 11.25,4.75 Q 11.375,4.875 11.5,5 l 0.125,0.125 -0.1875,-0.1875"
       style="fill:#e3e3e3;fill-opacity:1" />
    <path
       id="path178"
       d="M 11.875,5.625 11.75,5.25 11.84375,5.53125 11.9375,5.8125 11.875,5.625 Q 11.8125,5.4375 11.71875,5.28125 L 11.625,5.125 11.671875,5.203125 11.71875,5.28125 11.984375,5.015625 12.25,4.75 12.5,5 q 0.25,0.25 0.375,0.625 L 13,6 V 6.5 7 L 12.625,7.125 12.25,7.25 12.53125,7.15625 12.8125,7.0625 12.625,7.125 Q 12.4375,7.1875 12.28125,7.28125 L 12.125,7.375 12.203125,7.328125 12.28125,7.28125 11.984375,6.984375 11.6875,6.6875 11.625,6.75 11.5625,6.8125 11.6875,6.6875 Q 11.8125,6.5625 11.875,6.375 L 11.9375,6.1875 11.84375,6.46875 11.75,6.75 11.875,6.375 12,6 11.875,5.625 M 12.4375,4.9375 12.25,4.75 12.1875,4.6875 12.125,4.625 12.25,4.75 Q 12.375,4.875 12.5,5 l 0.125,0.125 -0.1875,-0.1875"
       style="fill:#b8b8b8;fill-opacity:1" />
    <path
       id="path180"
       d="M 12.875,5.625 12.75,5.25 12.84375,5.53125 12.9375,5.8125 12.875,5.625 Q 12.8125,5.4375 12.71875,5.28125 L 12.625,5.125 12.671875,5.203125 12.71875,5.28125 13.015625,4.984375 13.3125,4.6875 13.25,4.625 13.1875,4.5625 l 0.125,0.125 q 0.125,0.125 0.3125,0.1875 L 13.8125,4.9375 13.53125,4.84375 13.25,4.75 13.625,4.875 14,5 V 5.5 6 H 13.5 13 L 12.875,5.625"
       style="fill:#8c8c8c;fill-opacity:1" />
    <path
       id="path182"
       d="M 14,5.5 V 5 l 0.375,0.125 q 0.375,0.125 0.5,0.5 L 15,6 H 14.5 14 V 5.5"
       style="fill:#9e9e9e;fill-opacity:1" />
    <path
       id="path184"
       d="M 14.875,5.625 14.75,5.25 14.84375,5.53125 14.9375,5.8125 14.875,5.625 Q 14.8125,5.4375 14.6875,5.3125 L 14.5625,5.1875 14.625,5.25 14.6875,5.3125 15,5 15.3125,4.6875 15.25,4.625 15.1875,4.5625 l 0.125,0.125 q 0.125,0.125 0.3125,0.1875 L 15.8125,4.9375 15.53125,4.84375 15.25,4.75 15.625,4.875 16,5 V 5.5 6 H 15.5 15 L 14.875,5.625"
       style="fill:#b6b6b6;fill-opacity:1" />
    <path
       id="path186"
       d="M 0,6.5 V 6 H 0.5 1 V 6.5 7 H 0.5 0 V 6.5"
       style="fill:#a1a1a1;fill-opacity:1" />
    <path
       id="path188"
       d="M 1,6.5 V 6 H 1.5 2 V 6.5 7 H 1.5 1 V 6.5"
       style="fill:#969696;fill-opacity:1" />
    <path
       id="path190"
       d="M 3,6.5 V 6 l 0.375,0.125 q 0.375,0.125 0.5,0.5 L 4,7 H 3.5 3 V 6.5"
       style="fill:#929292;fill-opacity:1" />
    <path
       id="path192"
       d="M 3.875,6.625 3.75,6.25 3.84375,6.53125 3.9375,6.8125 3.875,6.625 Q 3.8125,6.4375 3.6875,6.3125 L 3.5625,6.1875 3.625,6.25 3.6875,6.3125 4,6.03125 4.3125,5.75 4.28125,5.6875 4.25,5.625 4.3125,5.75 Q 4.375,5.875 4.5,6 L 4.625,6.125 4.4375,5.9375 4.25,5.75 4.5,6 Q 4.75,6.25 5,6.5 L 5.25,6.75 5.0625,6.5625 4.875,6.375 5,6.5 Q 5.125,6.625 5.25,6.6875 L 5.375,6.75 5.3125,6.71875 5.25,6.6875 4.96875,7 4.6875,7.3125 4.75,7.375 4.8125,7.4375 4.6875,7.3125 Q 4.5625,7.1875 4.375,7.125 L 4.1875,7.0625 4.46875,7.15625 4.75,7.25 4.375,7.125 4,7 3.875,6.625"
       style="fill:#a6a6a6;fill-opacity:1" />
    <path
       id="path194"
       d="M 5,6.5 4.75,6.25 5.03125,5.96875 5.3125,5.6875 5.28125,5.65625 5.25,5.625 5.3125,5.6875 Q 5.375,5.75 5.5,5.75 H 5.625 5.4375 5.25 5.5 5.75 5.5625 5.375 5.5 q 0.125,0 0.21875,-0.09375 L 5.8125,5.5625 5.765625,5.609375 5.71875,5.65625 5.984375,5.953125 6.25,6.25 6,6.5 Q 5.75,6.75 5.5,6.75 5.25,6.75 5,6.5 M 6.0625,6.4375 6.25,6.25 6.3125,6.1875 6.375,6.125 6.25,6.25 Q 6.125,6.375 6,6.5 L 5.875,6.625 6.0625,6.4375 M 4.6875,6.1875 4.75,6.25 4.9375,6.4375 5.125,6.625 5,6.5 Q 4.875,6.375 4.75,6.25 L 4.625,6.125 4.6875,6.1875"
       style="fill:#bdbdbd;fill-opacity:1" />
    <path
       id="path196"
       d="M 6,6.5 Q 6.25,6.25 6.5,6 L 6.75,5.75 7.015625,6.015625 7.28125,6.28125 7.328125,6.203125 7.375,6.125 7.28125,6.28125 Q 7.1875,6.4375 7.125,6.625 L 7.0625,6.8125 7.15625,6.53125 7.25,6.25 7.125,6.625 7,7 6.625,7.125 6.25,7.25 6.53125,7.15625 6.8125,7.0625 6.625,7.125 Q 6.4375,7.1875 6.28125,7.28125 L 6.125,7.375 6.203125,7.328125 6.28125,7.28125 6.015625,6.984375 5.75,6.6875 5.6875,6.71875 5.625,6.75 5.75,6.6875 Q 5.875,6.625 6,6.5 L 6.125,6.375 5.9375,6.5625 5.75,6.75 6,6.5 M 6.8125,5.6875 6.75,5.75 6.5625,5.9375 6.375,6.125 6.5,6 Q 6.625,5.875 6.75,5.75 L 6.875,5.625 6.8125,5.6875"
       style="fill:#adadad;fill-opacity:1" />
    <path
       id="path198"
       d="M 7.125,6.625 Q 7.25,6.25 7.5,6 L 7.75,5.75 8.015625,6.046875 8.28125,6.34375 8.328125,6.296875 8.375,6.25 8.28125,6.34375 Q 8.1875,6.4375 8.125,6.625 L 8.0625,6.8125 8.15625,6.53125 8.25,6.25 8.125,6.625 8,7 H 7.5 7 L 7.125,6.625 M 7.8125,5.6875 7.75,5.75 7.5625,5.9375 7.375,6.125 7.5,6 Q 7.625,5.875 7.75,5.75 L 7.875,5.625 7.8125,5.6875"
       style="fill:#949494;fill-opacity:1" />
    <path
       id="path200"
       d="M 8.125,6.625 Q 8.25,6.25 8.5,6.25 q 0.25,0 0.25,0.25 0,0.25 -0.375,0.375 L 8,7 8.125,6.625"
       style="fill:#818181;fill-opacity:1" />
    <path
       id="path202"
       d="M 8.75,6.5 V 6.25 6.4375 6.625 6.5 Q 8.75,6.375 8.6875,6.3125 L 8.625,6.25 8.65625,6.28125 8.6875,6.3125 8.984375,6.015625 9.28125,5.71875 9.203125,5.671875 9.125,5.625 9.28125,5.71875 Q 9.4375,5.8125 9.625,5.875 L 9.8125,5.9375 9.53125,5.84375 9.25,5.75 9.625,5.875 10,6 V 6.5 7 L 9.625,7.125 9.25,7.25 9.53125,7.15625 9.8125,7.0625 9.625,7.125 Q 9.4375,7.1875 9.28125,7.28125 L 9.125,7.375 9.203125,7.328125 9.28125,7.28125 8.96875,7 8.65625,6.71875 8.609375,6.765625 8.5625,6.8125 8.65625,6.71875 Q 8.75,6.625 8.75,6.5 V 6.375 6.5625 6.75 6.5"
       style="fill:#bbbbbb;fill-opacity:1" />
    <path
       id="path204"
       d="M 10,6.5 V 6 H 10.5 11 V 6.5 7 H 10.5 10 V 6.5"
       style="fill:#ffffff;fill-opacity:1" />
    <path
       id="path206"
       d="M 11,6.5 V 6 h 0.5 0.5 l -0.125,0.375 q -0.125,0.375 -0.5,0.5 L 11,7 V 6.5"
       style="fill:#e5e5e5;fill-opacity:1" />
    <path
       id="path208"
       d="M 13,6.5 V 6 H 13.5 14 V 6.5 7 H 13.5 13 V 6.5"
       style="fill:#8d8d8d;fill-opacity:1" />
    <path
       id="path210"
       d="M 14,6.5 V 6 H 14.5 15 V 6.5 7 H 14.5 14 V 6.5"
       style="fill:#939393;fill-opacity:1" />
    <path
       id="path212"
       d="M 15,6.5 V 6 H 15.5 16 V 6.5 7 H 15.5 15 V 6.5"
       style="fill:#a1a1a1;fill-opacity:1" />
    <path
       id="path214"
       d="M 0,7.5 V 7 H 0.5 1 V 7.5 Q 1,8 1,8.5 V 9 H 0.5 0 V 8.5 8 7.5"
       style="fill:#949494;fill-opacity:1" />
    <path
       id="path216"
       d="M 1,7.5 V 7 H 1.5 2 V 7.5 Q 2,8 2,8.5 V 9 H 1.5 1 V 8.5 Q 1,8 1,7.5"
       style="fill:#909090;fill-opacity:1" />
    <path
       id="path218"
       d="M 3,7.5 V 7 H 3.5 4 V 7.5 Q 4,8 4,8.5 V 9 9.5 10 10.5 11 H 3.5 3 2.5 2 V 10.5 10 9.5 9 H 2.5 Q 3,9 3,8.5 3,8 3,7.5"
       style="fill:#8a8a8a;fill-opacity:1" />
    <path
       id="path220"
       d="M 4,7.5 V 7 L 4.375,7.125 Q 4.75,7.25 4.875,7.625 5,8 5.375,7.875 L 5.75,7.75 5.46875,7.84375 5.1875,7.9375 5.375,7.875 Q 5.5625,7.8125 5.71875,7.71875 L 5.875,7.625 5.796875,7.671875 5.71875,7.71875 6.015625,7.984375 6.3125,8.25 6.34375,8.1875 6.375,8.125 6.3125,8.25 Q 6.25,8.375 6.25,8.5 V 8.625 8.4375 8.25 8.5 8.75 8.5625 8.375 8.5 q 0,0.125 0.0625,0.25 L 6.375,8.875 6.34375,8.8125 6.3125,8.75 6,9.03125 5.6875,9.3125 5.75,9.375 5.8125,9.4375 5.6875,9.3125 Q 5.5625,9.1875 5.375,9.125 L 5.1875,9.0625 5.46875,9.15625 5.75,9.25 5.375,9.125 Q 5,9 4.5,9 H 4 V 8.5 Q 4,8 4,7.5"
       style="fill:#878787;fill-opacity:1" />
    <path
       id="path222"
       d="M 4.875,7.625 4.75,7.25 4.84375,7.53125 4.9375,7.8125 4.875,7.625 Q 4.8125,7.4375 4.6875,7.3125 L 4.5625,7.1875 4.625,7.25 4.6875,7.3125 4.96875,7 5.25,6.6875 5.1875,6.65625 5.125,6.625 5.25,6.6875 Q 5.375,6.75 5.5,6.75 H 5.625 5.4375 5.25 5.5 5.75 5.5625 5.375 5.5 q 0.125,0 0.25,-0.0625 L 5.875,6.625 5.8125,6.65625 5.75,6.6875 6.015625,6.984375 6.28125,7.28125 6.359375,7.234375 6.4375,7.1875 6.28125,7.28125 Q 6.125,7.375 6,7.5 L 5.875,7.625 6.0625,7.4375 6.25,7.25 6,7.5 Q 5.75,7.75 5.375,7.875 5,8 4.875,7.625"
       style="fill:#848484;fill-opacity:1" />
    <path
       id="path224"
       d="M 6,7.5 Q 6.25,7.25 6.625,7.125 L 7,7 6.875,7.375 Q 6.75,7.75 6.5,8 L 6.25,8.25 6.4375,8.0625 6.625,7.875 6.5,8 Q 6.375,8.125 6.3125,8.25 L 6.25,8.375 6.28125,8.3125 6.3125,8.25 6.015625,7.984375 5.71875,7.71875 5.640625,7.765625 5.5625,7.8125 5.71875,7.71875 Q 5.875,7.625 6,7.5 L 6.125,7.375 5.9375,7.5625 5.75,7.75 6,7.5"
       style="fill:#8f8f8f;fill-opacity:1" />
    <path
       id="path226"
       d="M 6.875,7.375 7,7 H 7.5 8 V 7.5 8 L 7.625,8.125 7.25,8.25 7.53125,8.15625 7.8125,8.0625 7.625,8.125 Q 7.4375,8.1875 7.34375,8.28125 L 7.25,8.375 7.296875,8.328125 7.34375,8.28125 7.03125,8 6.71875,7.71875 6.671875,7.796875 6.625,7.875 6.71875,7.71875 Q 6.8125,7.5625 6.875,7.375 L 6.9375,7.1875 6.84375,7.46875 6.75,7.75 6.875,7.375"
       style="fill:#979797;fill-opacity:1" />
    <path
       id="path228"
       d="M 8,7.5 V 7 L 8.375,6.875 8.75,6.75 8.46875,6.84375 8.1875,6.9375 8.375,6.875 Q 8.5625,6.8125 8.65625,6.71875 L 8.75,6.625 8.703125,6.671875 8.65625,6.71875 8.96875,7 9.28125,7.28125 9.359375,7.234375 9.4375,7.1875 9.28125,7.28125 Q 9.125,7.375 9,7.5 L 8.875,7.625 9.0625,7.4375 9.25,7.25 9,7.5 Q 8.75,7.75 8.375,7.875 L 8,8 V 7.5"
       style="fill:#939393;fill-opacity:1" />
    <path
       id="path230"
       d="M 9,7.5 Q 9.25,7.25 9.625,7.125 L 10,7 9.875,7.375 Q 9.75,7.75 9.5,8 L 9.25,8.25 9.4375,8.0625 9.625,7.875 9.5,8 Q 9.375,8.125 9.28125,8.28125 L 9.1875,8.4375 9.234375,8.359375 9.28125,8.28125 9,8 8.71875,7.71875 8.640625,7.765625 8.5625,7.8125 8.71875,7.71875 Q 8.875,7.625 9,7.5 L 9.125,7.375 8.9375,7.5625 8.75,7.75 9,7.5"
       style="fill:#c2c2c2;fill-opacity:1" />
    <path
       id="path232"
       d="M 9.875,7.375 10,7 H 10.5 11 L 10.875,7.375 Q 10.75,7.75 10.5,8 L 10.25,8.25 9.984375,7.984375 9.71875,7.71875 9.671875,7.796875 9.625,7.875 9.71875,7.71875 Q 9.8125,7.5625 9.875,7.375 L 9.9375,7.1875 9.84375,7.46875 9.75,7.75 9.875,7.375 M 10.1875,8.3125 10.25,8.25 10.4375,8.0625 10.625,7.875 10.5,8 q -0.125,0.125 -0.25,0.25 l -0.125,0.125 0.0625,-0.0625"
       style="fill:#f3f3f3;fill-opacity:1" />
    <path
       id="path234"
       d="M 10.875,7.375 11,7 11.375,6.875 11.75,6.75 11.46875,6.84375 11.1875,6.9375 11.375,6.875 Q 11.5625,6.8125 11.6875,6.6875 L 11.8125,6.5625 11.75,6.625 11.6875,6.6875 11.984375,6.984375 12.28125,7.28125 12.359375,7.234375 12.4375,7.1875 12.28125,7.28125 Q 12.125,7.375 12,7.5 L 11.875,7.625 12.0625,7.4375 12.25,7.25 12,7.5 Q 11.75,7.75 11.5,8 L 11.25,8.25 10.984375,7.984375 10.71875,7.71875 10.671875,7.796875 10.625,7.875 10.71875,7.71875 Q 10.8125,7.5625 10.875,7.375 L 10.9375,7.1875 10.84375,7.46875 10.75,7.75 10.875,7.375 M 11.1875,8.3125 11.25,8.25 11.4375,8.0625 11.625,7.875 11.5,8 q -0.125,0.125 -0.25,0.25 l -0.125,0.125 0.0625,-0.0625"
       style="fill:#cfcfcf;fill-opacity:1" />
    <path
       id="path236"
       d="M 12,7.5 Q 12.25,7.25 12.625,7.125 L 13,7 V 7.5 8 L 12.625,8.125 12.25,8.25 12.53125,8.15625 12.8125,8.0625 12.625,8.125 Q 12.4375,8.1875 12.3125,8.3125 L 12.1875,8.4375 12.25,8.375 12.3125,8.3125 12.03125,8.03125 11.75,7.75 12,7.5 M 11.9375,7.5625 11.75,7.75 11.6875,7.8125 11.625,7.875 11.75,7.75 Q 11.875,7.625 12,7.5 l 0.125,-0.125 -0.1875,0.1875"
       style="fill:#a8a8a8;fill-opacity:1" />
    <path
       id="path238"
       d="M 13,7.5 V 7 H 13.5 14 V 7.5 8 H 13.5 13 V 7.5"
       style="fill:#8c8c8c;fill-opacity:1" />
    <path
       id="path240"
       d="M 14,7.5 V 7 H 14.5 15 V 7.5 8 H 14.5 14 V 7.5"
       style="fill:#8e8e8e;fill-opacity:1" />
    <path
       id="path242"
       d="M 15,7.5 V 7 H 15.5 16 V 7.5 8 8.5 9 H 15.5 15 V 8.5 8 7.5"
       style="fill:#949494;fill-opacity:1" />
    <path
       id="path244"
       d="M 6.25,8.5 Q 6.25,8.25 6.5,8 L 6.75,7.75 6.5625,7.9375 6.375,8.125 6.5,8 Q 6.625,7.875 6.71875,7.71875 L 6.8125,7.5625 6.765625,7.640625 6.71875,7.71875 7.03125,8 7.34375,8.28125 7.390625,8.234375 7.4375,8.1875 7.34375,8.28125 Q 7.25,8.375 7.25,8.5 V 8.625 8.4375 8.25 8.5 8.75 8.5625 8.375 8.5 q 0,0.125 0.09375,0.21875 L 7.4375,8.8125 7.390625,8.765625 7.34375,8.71875 7.046875,8.984375 6.75,9.25 6.5,9 Q 6.25,8.75 6.25,8.5 M 6.5625,9.0625 6.75,9.25 6.8125,9.3125 6.875,9.375 6.75,9.25 Q 6.625,9.125 6.5,9 L 6.375,8.875 6.5625,9.0625"
       style="fill:#c2c2c2;fill-opacity:1" />
    <path
       id="path246"
       d="m 7.25,8.5 q 0,-0.25 0.375,-0.375 L 8,8 V 8.5 9 L 7.625,8.875 Q 7.25,8.75 7.25,8.5"
       style="fill:#f0f0f0;fill-opacity:1" />
    <path
       id="path248"
       d="M 8,8.5 V 8 L 8.375,7.875 8.75,7.75 8.46875,7.84375 8.1875,7.9375 8.375,7.875 Q 8.5625,7.8125 8.71875,7.71875 L 8.875,7.625 8.796875,7.671875 8.71875,7.71875 9,8 9.28125,8.28125 9.328125,8.203125 9.375,8.125 9.28125,8.28125 Q 9.1875,8.4375 9.125,8.625 L 9.0625,8.8125 9.15625,8.53125 9.25,8.25 9.125,8.625 9,9 H 8.5 8 V 8.5"
       style="fill:#e5e5e5;fill-opacity:1" />
    <path
       id="path250"
       d="M 9.125,8.625 Q 9.25,8.25 9.5,8 L 9.75,7.75 9.5625,7.9375 9.375,8.125 9.5,8 Q 9.625,7.875 9.71875,7.71875 L 9.8125,7.5625 9.765625,7.640625 9.71875,7.71875 9.984375,7.984375 10.25,8.25 10,8.5 Q 9.75,8.75 9.375,8.875 L 9,9 9.125,8.625 M 10.0625,8.4375 10.25,8.25 10.3125,8.1875 10.375,8.125 10.25,8.25 Q 10.125,8.375 10,8.5 L 9.875,8.625 10.0625,8.4375"
       style="fill:#d7d7d7;fill-opacity:1" />
    <path
       id="path252"
       d="M 10,8.5 Q 10.25,8.25 10.5,8 L 10.75,7.75 10.5625,7.9375 10.375,8.125 10.5,8 Q 10.625,7.875 10.71875,7.71875 L 10.8125,7.5625 10.765625,7.640625 10.71875,7.71875 10.984375,7.984375 11.25,8.25 11,8.5 Q 10.75,8.75 10.5,9 L 10.25,9.25 10.4375,9.0625 10.625,8.875 10.5,9 Q 10.375,9.125 10.28125,9.28125 L 10.1875,9.4375 10.234375,9.359375 10.28125,9.28125 10,9 9.71875,8.71875 9.640625,8.765625 9.5625,8.8125 9.71875,8.71875 Q 9.875,8.625 10,8.5 L 10.125,8.375 9.9375,8.5625 9.75,8.75 10,8.5 M 11.0625,8.4375 11.25,8.25 11.3125,8.1875 11.375,8.125 11.25,8.25 Q 11.125,8.375 11,8.5 l -0.125,0.125 0.1875,-0.1875"
       style="fill:#c2c2c2;fill-opacity:1" />
    <path
       id="path254"
       d="M 11,8.5 Q 11.25,8.25 11.5,8 L 11.75,7.75 12.03125,8.03125 12.3125,8.3125 12.375,8.25 12.4375,8.1875 12.3125,8.3125 Q 12.1875,8.4375 12.125,8.625 L 12.0625,8.8125 12.15625,8.53125 12.25,8.25 12.125,8.625 12,9 11.625,9.125 11.25,9.25 11.53125,9.15625 11.8125,9.0625 11.625,9.125 Q 11.4375,9.1875 11.3125,9.3125 L 11.1875,9.4375 11.25,9.375 11.3125,9.3125 11.03125,9.03125 10.75,8.75 11,8.5 M 10.9375,8.5625 10.75,8.75 10.6875,8.8125 10.625,8.875 10.75,8.75 Q 10.875,8.625 11,8.5 L 11.125,8.375 10.9375,8.5625 M 11.8125,7.6875 11.75,7.75 11.5625,7.9375 11.375,8.125 11.5,8 q 0.125,-0.125 0.25,-0.25 l 0.125,-0.125 -0.0625,0.0625"
       style="fill:#a0a0a0;fill-opacity:1" />
    <path
       id="path256"
       d="m 12.125,8.625 q 0.125,-0.375 0.5,-0.5 L 13,8 V 8.5 9 H 12.5 12 l 0.125,-0.375"
       style="fill:#8c8c8c;fill-opacity:1" />
    <path
       id="path258"
       d="M 13,8.5 V 8 H 13.5 14 V 8.5 9 H 13.5 13 V 8.5"
       style="fill:#8b8b8b;fill-opacity:1" />
    <path
       id="path260"
       d="M 14,8.5 V 8 H 14.5 15 V 8.5 9 H 14.5 14 V 8.5"
       style="fill:#909090;fill-opacity:1" />
    <path
       id="path262"
       d="M 0,9.5 V 9 H 0.5 1 V 9.5 10 H 0.5 0 V 9.5"
       style="fill:#a1a1a1;fill-opacity:1" />
    <path
       id="path264"
       d="M 1,9.5 V 9 H 1.5 2 V 9.5 10 H 1.5 1 V 9.5"
       style="fill:#979797;fill-opacity:1" />
    <path
       id="path266"
       d="M 4,9.5 V 9 H 4.5 Q 5,9 5.375,9.125 5.75,9.25 5.875,9.625 L 6,10 H 5.5 Q 5,10 4.5,10 H 4 V 9.5"
       style="fill:#898989;fill-opacity:1" />
    <path
       id="path268"
       d="M 5.875,9.625 5.75,9.25 5.84375,9.53125 5.9375,9.8125 5.875,9.625 Q 5.8125,9.4375 5.6875,9.3125 L 5.5625,9.1875 5.625,9.25 5.6875,9.3125 6,9.03125 6.3125,8.75 6.28125,8.6875 6.25,8.625 6.3125,8.75 Q 6.375,8.875 6.5,9 L 6.625,9.125 6.4375,8.9375 6.25,8.75 6.5,9 Q 6.75,9.25 7,9.5 L 7.25,9.75 7.0625,9.5625 6.875,9.375 7,9.5 Q 7.125,9.625 7.28125,9.71875 L 7.4375,9.8125 7.359375,9.765625 7.28125,9.71875 7.015625,9.984375 Q 6.75,10.25 6.375,10.125 L 6,10 5.875,9.625"
       style="fill:#afafaf;fill-opacity:1" />
    <path
       id="path270"
       d="M 7,9.5 6.75,9.25 7.046875,8.984375 7.34375,8.71875 7.296875,8.671875 7.25,8.625 7.34375,8.71875 Q 7.4375,8.8125 7.625,8.875 L 7.8125,8.9375 7.53125,8.84375 7.25,8.75 7.625,8.875 8,9 V 9.5 10 L 7.625,9.875 Q 7.25,9.75 7,9.5 M 6.6875,9.1875 6.75,9.25 6.9375,9.4375 7.125,9.625 7,9.5 Q 6.875,9.375 6.75,9.25 L 6.625,9.125 6.6875,9.1875"
       style="fill:#cdcdcd;fill-opacity:1" />
    <path
       id="path272"
       d="M 8,9.5 V 9 H 8.5 9 L 8.875,9.375 Q 8.75,9.75 8.375,9.875 L 8,10 V 9.5"
       style="fill:#c7c7c7;fill-opacity:1" />
    <path
       id="path274"
       d="M 8.875,9.375 9,9 9.375,8.875 9.75,8.75 9.46875,8.84375 9.1875,8.9375 9.375,8.875 Q 9.5625,8.8125 9.71875,8.71875 L 9.875,8.625 9.796875,8.671875 9.71875,8.71875 10,9 10.28125,9.28125 10.328125,9.203125 10.375,9.125 10.28125,9.28125 Q 10.1875,9.4375 10.125,9.625 L 10.0625,9.8125 10.15625,9.53125 10.25,9.25 10.125,9.625 10,10 9.625,10.125 9.25,10.25 9.53125,10.15625 9.8125,10.0625 9.625,10.125 Q 9.4375,10.1875 9.34375,10.28125 L 9.25,10.375 9.296875,10.328125 9.34375,10.28125 9.015625,9.984375 8.6875,9.6875 8.625,9.75 8.5625,9.8125 8.6875,9.6875 Q 8.8125,9.5625 8.875,9.375 L 8.9375,9.1875 8.84375,9.46875 8.75,9.75 8.875,9.375"
       style="fill:#b6b6b6;fill-opacity:1" />
    <path
       id="path276"
       d="M 10.125,9.625 Q 10.25,9.25 10.5,9 L 10.75,8.75 11.03125,9.03125 11.3125,9.3125 11.375,9.25 11.4375,9.1875 11.3125,9.3125 Q 11.1875,9.4375 11.125,9.625 L 11.0625,9.8125 11.15625,9.53125 11.25,9.25 11.125,9.625 11,10 H 10.5 10 L 10.125,9.625 M 10.8125,8.6875 10.75,8.75 10.5625,8.9375 10.375,9.125 10.5,9 q 0.125,-0.125 0.25,-0.25 l 0.125,-0.125 -0.0625,0.0625"
       style="fill:#9f9f9f;fill-opacity:1" />
    <path
       id="path278"
       d="m 11.125,9.625 q 0.125,-0.375 0.5,-0.5 L 12,9 V 9.5 10 H 11.5 11 l 0.125,-0.375"
       style="fill:#8d8d8d;fill-opacity:1" />
    <path
       id="path280"
       d="M 12,9.5 V 9 H 12.5 13 V 9.5 Q 13,10 12.5,10 H 12 V 9.5"
       style="fill:#868686;fill-opacity:1" />
    <path
       id="path282"
       d="M 13,9.5 V 9 H 13.5 14 V 9.5 10 10.5 11 H 13.5 13 12.5 12 V 10.5 10 h 0.5 Q 13,10 13,9.5"
       style="fill:#8a8a8a;fill-opacity:1" />
    <path
       id="path284"
       d="M 14,9.5 V 9 H 14.5 15 V 9.5 10 H 14.5 14 V 9.5"
       style="fill:#979797;fill-opacity:1" />
    <path
       id="path286"
       d="M 15,9.5 V 9 H 15.5 16 V 9.5 10 H 15.5 15 V 9.5"
       style="fill:#a1a1a1;fill-opacity:1" />
    <path
       id="path288"
       d="M 0,10.5 V 10 H 0.5 1 V 10.5 11 H 0.5 0 v -0.5"
       style="fill:#b6b6b6;fill-opacity:1" />
    <path
       id="path290"
       d="M 1,10.5 V 10 H 1.5 2 V 10.5 11 H 1.5 1 v -0.5"
       style="fill:#a2a2a2;fill-opacity:1" />
    <path
       id="path292"
       d="M 4,10.5 V 10 h 0.5 q 0.5,0 1,0 H 6 L 5.875,10.375 Q 5.75,10.75 5.375,10.875 5,11 4.5,11 H 4 v -0.5"
       style="fill:#8b8b8b;fill-opacity:1" />
    <path
       id="path294"
       d="M 5.875,10.375 6,10 6.375,10.125 Q 6.75,10.25 7.015625,9.984375 L 7.28125,9.71875 7.203125,9.671875 7.125,9.625 7.28125,9.71875 Q 7.4375,9.8125 7.625,9.875 L 7.8125,9.9375 7.53125,9.84375 7.25,9.75 7.625,9.875 8,10 V 10.5 11 L 7.625,11.125 7.25,11.25 7.53125,11.15625 7.8125,11.0625 7.625,11.125 Q 7.4375,11.1875 7.3125,11.3125 L 7.1875,11.4375 7.25,11.375 7.3125,11.3125 7.03125,11.03125 Q 6.75,10.75 6.5,11 L 6.25,11.25 6.4375,11.0625 6.625,10.875 6.5,11 Q 6.375,11.125 6.28125,11.28125 L 6.1875,11.4375 6.234375,11.359375 6.28125,11.28125 5.984375,10.984375 5.6875,10.6875 5.625,10.75 5.5625,10.8125 5.6875,10.6875 Q 5.8125,10.5625 5.875,10.375 L 5.9375,10.1875 5.84375,10.46875 5.75,10.75 5.875,10.375"
       style="fill:#8c8c8c;fill-opacity:1" />
    <path
       id="path296"
       d="M 8,10.5 V 10 L 8.375,9.875 8.75,9.75 8.46875,9.84375 8.1875,9.9375 8.375,9.875 Q 8.5625,9.8125 8.6875,9.6875 L 8.8125,9.5625 8.75,9.625 8.6875,9.6875 9.015625,9.984375 9.34375,10.28125 9.390625,10.234375 9.4375,10.1875 9.34375,10.28125 Q 9.25,10.375 9.25,10.5 V 10.625 10.4375 10.25 10.5 10.75 10.5625 10.375 10.5 q 0,0.125 0.09375,0.21875 L 9.4375,10.8125 9.390625,10.765625 9.34375,10.71875 9.015625,11.015625 8.6875,11.3125 8.75,11.375 8.8125,11.4375 8.6875,11.3125 Q 8.5625,11.1875 8.375,11.125 L 8.1875,11.0625 8.46875,11.15625 8.75,11.25 8.375,11.125 8,11 v -0.5"
       style="fill:#8b8b8b;fill-opacity:1" />
    <path
       id="path298"
       d="m 9.25,10.5 q 0,-0.25 0.375,-0.375 L 10,10 H 10.5 11 V 10.5 11 H 10.5 10 L 9.625,10.875 Q 9.25,10.75 9.25,10.5"
       style="fill:#8a8a8a;fill-opacity:1" />
    <path
       id="path300"
       d="M 11,10.5 V 10 H 11.5 12 V 10.5 11 H 11.5 11 v -0.5"
       style="fill:#8b8b8b;fill-opacity:1" />
    <path
       id="path302"
       d="M 14,10.5 V 10 H 14.5 15 V 10.5 11 H 14.5 14 v -0.5"
       style="fill:#a2a2a2;fill-opacity:1" />
    <path
       id="path304"
       d="M 15,10.5 V 10 H 15.5 16 V 10.5 11 H 15.5 15 v -0.5"
       style="fill:#b6b6b6;fill-opacity:1" />
    <path
       id="path306"
       d="M 0,11.5 V 11 H 0.5 1 V 11.5 12 H 0.5 0 v -0.5"
       style="fill:#d1d1d1;fill-opacity:1" />
    <path
       id="path308"
       d="M 1,11.5 V 11 H 1.5 2 L 2.125,11.375 2.25,11.75 2.15625,11.46875 2.0625,11.1875 2.125,11.375 q 0.0625,0.1875 0.1875,0.3125 l 0.125,0.125 L 2.375,11.75 2.3125,11.6875 2,12 1.6875,12.3125 1.75,12.375 1.8125,12.4375 1.6875,12.3125 Q 1.5625,12.1875 1.375,12.125 L 1.1875,12.0625 1.46875,12.15625 1.75,12.25 1.375,12.125 1,12 v -0.5"
       style="fill:#b0b0b0;fill-opacity:1" />
    <path
       id="path310"
       d="M 2.125,11.375 2,11 H 2.5 3 V 11.5 12 L 2.625,11.875 q -0.375,-0.125 -0.5,-0.5"
       style="fill:#858585;fill-opacity:0.99607843" />
    <path
       id="path312"
       d="M 3,11.5 V 11 H 3.5 4 V 11.5 12 H 3.5 3 v -0.5"
       style="fill:#878787;fill-opacity:0.99607843" />
    <path
       id="path314"
       d="M 4,11.5 V 11 H 4.5 Q 5,11 5.375,10.875 L 5.75,10.75 5.46875,10.84375 5.1875,10.9375 5.375,10.875 Q 5.5625,10.8125 5.6875,10.6875 L 5.8125,10.5625 5.75,10.625 5.6875,10.6875 5.984375,10.984375 6.28125,11.28125 6.328125,11.203125 6.375,11.125 6.28125,11.28125 Q 6.1875,11.4375 6.125,11.625 L 6.0625,11.8125 6.15625,11.53125 6.25,11.25 6.125,11.625 6,12 H 5.5 5 4.5 4 v -0.5"
       style="fill:#898989;fill-opacity:1" />
    <path
       id="path316"
       d="M 6.125,11.625 Q 6.25,11.25 6.5,11 6.75,10.75 7.03125,11.03125 L 7.3125,11.3125 7.375,11.25 7.4375,11.1875 7.3125,11.3125 Q 7.1875,11.4375 7.125,11.625 L 7.0625,11.8125 7.15625,11.53125 7.25,11.25 7.125,11.625 7,12 H 6.5 6 l 0.125,-0.375"
       style="fill:#bcbcbc;fill-opacity:1" />
    <path
       id="path318"
       d="m 7.125,11.625 q 0.125,-0.375 0.5,-0.5 L 8,11 V 11.5 12 H 7.5 7 l 0.125,-0.375"
       style="fill:#dedede;fill-opacity:1" />
    <path
       id="path320"
       d="M 8,11.5 V 11 l 0.375,0.125 q 0.375,0.125 0.5,0.5 L 9,12 H 8.5 8 v -0.5"
       style="fill:#c8c8c8;fill-opacity:1" />
    <path
       id="path322"
       d="M 8.875,11.625 8.75,11.25 8.84375,11.53125 8.9375,11.8125 8.875,11.625 Q 8.8125,11.4375 8.6875,11.3125 L 8.5625,11.1875 8.625,11.25 8.6875,11.3125 9.015625,11.015625 9.34375,10.71875 9.296875,10.671875 9.25,10.625 9.34375,10.71875 Q 9.4375,10.8125 9.625,10.875 L 9.8125,10.9375 9.53125,10.84375 9.25,10.75 9.625,10.875 10,11 V 11.5 12 H 9.5 9 L 8.875,11.625"
       style="fill:#a7a7a7;fill-opacity:1" />
    <path
       id="path324"
       d="M 10,11.5 V 11 H 10.5 11 V 11.5 12 12.5 13 H 10.5 10 V 12.5 12 11.5"
       style="fill:#888888;fill-opacity:1" />
    <path
       id="path326"
       d="M 11,11.5 V 11 H 11.5 12 V 11.5 12 H 11.5 11 v -0.5"
       style="fill:#898989;fill-opacity:1" />
    <path
       id="path328"
       d="M 12,11.5 V 11 H 12.5 13 V 11.5 12 H 12.5 12 v -0.5"
       style="fill:#878787;fill-opacity:0.99607843" />
    <path
       id="path330"
       d="M 13,11.5 V 11 h 0.5 0.5 l -0.125,0.375 q -0.125,0.375 -0.5,0.5 L 13,12 v -0.5"
       style="fill:#858585;fill-opacity:0.99607843" />
    <path
       id="path332"
       d="M 13.875,11.375 14,11 H 14.5 15 V 11.5 12 L 14.625,12.125 14.25,12.25 14.53125,12.15625 14.8125,12.0625 14.625,12.125 q -0.1875,0.0625 -0.3125,0.1875 l -0.125,0.125 L 14.25,12.375 14.3125,12.3125 14,12 13.6875,11.6875 13.625,11.75 l -0.0625,0.0625 0.125,-0.125 q 0.125,-0.125 0.1875,-0.3125 L 13.9375,11.1875 13.84375,11.46875 13.75,11.75 13.875,11.375"
       style="fill:#b0b0b0;fill-opacity:1" />
    <path
       id="path334"
       d="M 15,11.5 V 11 H 15.5 16 V 11.5 12 H 15.5 15 v -0.5"
       style="fill:#d1d1d1;fill-opacity:1" />
    <path
       id="path336"
       d="M 0,12.5 V 12 H 0.5 1 L 1.125,12.375 1.25,12.75 1.15625,12.46875 1.0625,12.1875 1.125,12.375 q 0.0625,0.1875 0.1875,0.3125 l 0.125,0.125 L 1.375,12.75 1.3125,12.6875 1,13 0.6875,13.3125 0.75,13.375 0.8125,13.4375 0.6875,13.3125 Q 0.5625,13.1875 0.375,13.125 L 0.1875,13.0625 0.46875,13.15625 0.75,13.25 0.375,13.125 0,13 v -0.5"
       style="fill:#dfdfdf;fill-opacity:0.70980392" />
    <path
       id="path338"
       d="M 1.125,12.375 1,12 1.375,12.125 q 0.375,0.125 0.5,0.5 L 2,13 1.625,12.875 q -0.375,-0.125 -0.5,-0.5"
       style="fill:#bbbbbb;fill-opacity:0.85882353" />
    <path
       id="path340"
       d="M 1.875,12.625 1.75,12.25 1.84375,12.53125 1.9375,12.8125 1.875,12.625 Q 1.8125,12.4375 1.6875,12.3125 L 1.5625,12.1875 1.625,12.25 1.6875,12.3125 2,12 2.3125,11.6875 2.25,11.625 2.1875,11.5625 l 0.125,0.125 q 0.125,0.125 0.3125,0.1875 L 2.8125,11.9375 2.53125,11.84375 2.25,11.75 2.625,11.875 3,12 3.125,12.375 q 0.125,0.375 0.5,0.5 L 4,13 4.125,13.375 4.25,13.75 4.15625,13.46875 4.0625,13.1875 4.125,13.375 q 0.0625,0.1875 0.1875,0.3125 l 0.125,0.125 L 4.375,13.75 4.3125,13.6875 4,14 3.6875,14.3125 3.75,14.375 3.8125,14.4375 3.6875,14.3125 Q 3.5625,14.1875 3.375,14.125 L 3.1875,14.0625 3.46875,14.15625 3.75,14.25 3.375,14.125 3,14 2.875,13.625 Q 2.75,13.25 2.375,13.125 L 2,13 1.875,12.625"
       style="fill:#9a9a9a;fill-opacity:1" />
    <path
       id="path342"
       d="M 3.125,12.375 3,12 H 3.5 4 V 12.5 13 L 3.625,12.875 q -0.375,-0.125 -0.5,-0.5"
       style="fill:#8d8d8d;fill-opacity:1" />
    <path
       id="path344"
       d="M 4,12.5 V 12 H 4.5 5 V 12.5 13 H 4.5 4 v -0.5"
       style="fill:#848484;fill-opacity:0.99607843" />
    <path
       id="path346"
       d="M 5,12.5 V 12 H 5.5 6 L 6.125,12.375 6.25,12.75 6.15625,12.46875 6.0625,12.1875 6.125,12.375 q 0.0625,0.1875 0.15625,0.34375 L 6.375,12.875 6.328125,12.796875 6.28125,12.71875 5.984375,13.015625 5.6875,13.3125 5.75,13.375 5.8125,13.4375 5.6875,13.3125 Q 5.5625,13.1875 5.375,13.125 L 5.1875,13.0625 5.46875,13.15625 5.75,13.25 5.375,13.125 5,13 v -0.5"
       style="fill:#878787;fill-opacity:1" />
    <path
       id="path348"
       d="M 6.125,12.375 6,12 H 6.5 7 L 7.125,12.375 7.25,12.75 7.15625,12.46875 7.0625,12.1875 7.125,12.375 q 0.0625,0.1875 0.1875,0.3125 l 0.125,0.125 L 7.375,12.75 7.3125,12.6875 7.015625,12.984375 6.71875,13.28125 6.765625,13.359375 6.8125,13.4375 6.71875,13.28125 Q 6.625,13.125 6.5,13 L 6.375,12.875 6.5625,13.0625 6.75,13.25 6.5,13 Q 6.25,12.75 6.125,12.375"
       style="fill:#bdbdbd;fill-opacity:1" />
    <path
       id="path350"
       d="M 7.125,12.375 7,12 H 7.5 8 V 12.5 13 L 7.625,12.875 q -0.375,-0.125 -0.5,-0.5"
       style="fill:#e1e1e1;fill-opacity:1" />
    <path
       id="path352"
       d="M 8,12.5 V 12 H 8.5 9 l -0.125,0.375 q -0.125,0.375 -0.5,0.5 L 8,13 v -0.5"
       style="fill:#cbcbcb;fill-opacity:1" />
    <path
       id="path354"
       d="M 8.875,12.375 9,12 H 9.5 10 V 12.5 13 L 9.625,13.125 9.25,13.25 9.53125,13.15625 9.8125,13.0625 9.625,13.125 Q 9.4375,13.1875 9.3125,13.3125 L 9.1875,13.4375 9.25,13.375 9.3125,13.3125 9,13 8.6875,12.6875 8.625,12.75 8.5625,12.8125 8.6875,12.6875 Q 8.8125,12.5625 8.875,12.375 L 8.9375,12.1875 8.84375,12.46875 8.75,12.75 8.875,12.375"
       style="fill:#a9a9a9;fill-opacity:1" />
    <path
       id="path356"
       d="M 11,12.5 V 12 h 0.5 0.5 v 0.5 0.5 l -0.125,0.375 q -0.125,0.375 -0.5,0.5 L 11,14 V 13.5 13 12.5"
       style="fill:#858585;fill-opacity:0.99607843" />
    <path
       id="path358"
       d="M 12,12.5 V 12 h 0.5 0.5 l -0.125,0.375 q -0.125,0.375 -0.5,0.5 L 12,13 v -0.5"
       style="fill:#8d8d8d;fill-opacity:1" />
    <path
       id="path360"
       d="M 12.875,12.375 13,12 13.375,11.875 13.75,11.75 13.46875,11.84375 13.1875,11.9375 13.375,11.875 q 0.1875,-0.0625 0.3125,-0.1875 l 0.125,-0.125 L 13.75,11.625 13.6875,11.6875 14,12 l 0.3125,0.3125 0.0625,-0.0625 0.0625,-0.0625 -0.125,0.125 q -0.125,0.125 -0.1875,0.3125 L 14.0625,12.8125 14.15625,12.53125 14.25,12.25 14.125,12.625 14,13 13.625,13.125 q -0.375,0.125 -0.5,0.5 L 13,14 12.625,14.125 12.25,14.25 12.53125,14.15625 12.8125,14.0625 12.625,14.125 q -0.1875,0.0625 -0.3125,0.1875 l -0.125,0.125 L 12.25,14.375 12.3125,14.3125 12,14 11.6875,13.6875 11.625,13.75 l -0.0625,0.0625 0.125,-0.125 q 0.125,-0.125 0.1875,-0.3125 L 11.9375,13.1875 11.84375,13.46875 11.75,13.75 11.875,13.375 12,13 12.375,12.875 q 0.375,-0.125 0.5,-0.5"
       style="fill:#9a9a9a;fill-opacity:1" />
    <path
       id="path362"
       d="m 14.125,12.625 q 0.125,-0.375 0.5,-0.5 L 15,12 14.875,12.375 q -0.125,0.375 -0.5,0.5 L 14,13 14.125,12.625"
       style="fill:#bbbbbb;fill-opacity:0.85882353" />
    <path
       id="path364"
       d="M 14.875,12.375 15,12 H 15.5 16 V 12.5 13 L 15.625,13.125 15.25,13.25 15.53125,13.15625 15.8125,13.0625 15.625,13.125 q -0.1875,0.0625 -0.3125,0.1875 l -0.125,0.125 L 15.25,13.375 15.3125,13.3125 15,13 14.6875,12.6875 14.625,12.75 l -0.0625,0.0625 0.125,-0.125 q 0.125,-0.125 0.1875,-0.3125 L 14.9375,12.1875 14.84375,12.46875 14.75,12.75 14.875,12.375"
       style="fill:#dfdfdf;fill-opacity:0.70980392" />
    <path
       id="path366"
       d="M 0,13.5 V 13 l 0.375,0.125 q 0.375,0.125 0.5,0.5 L 1,14 0.875,14.375 q -0.125,0.375 -0.5,0.5 L 0,15 V 14.5 14 13.5"
       style="fill:#000000;fill-opacity:0" />
    <path
       id="path368"
       d="M 0.875,13.625 0.75,13.25 0.84375,13.53125 0.9375,13.8125 0.875,13.625 Q 0.8125,13.4375 0.6875,13.3125 L 0.5625,13.1875 0.625,13.25 0.6875,13.3125 1,13 1.3125,12.6875 1.25,12.625 1.1875,12.5625 l 0.125,0.125 q 0.125,0.125 0.3125,0.1875 L 1.8125,12.9375 1.53125,12.84375 1.25,12.75 1.625,12.875 2,13 V 13.5 14 H 1.5 1 L 0.875,13.625"
       style="fill:#cacaca;fill-opacity:0.45490196" />
    <path
       id="path370"
       d="M 2,13.5 V 13 l 0.375,0.125 q 0.375,0.125 0.5,0.5 L 3,14 H 2.5 2 v -0.5"
       style="fill:#c1c1c1;fill-opacity:1" />
    <path
       id="path372"
       d="M 4.125,13.375 4,13 H 4.5 5 V 13.5 14 L 4.625,13.875 q -0.375,-0.125 -0.5,-0.5"
       style="fill:#858585;fill-opacity:0.99607843" />
    <path
       id="path374"
       d="M 5,13.5 V 13 l 0.375,0.125 q 0.375,0.125 0.5,0.5 L 6,14 H 5.5 5 v -0.5"
       style="fill:#8a8a8a;fill-opacity:1" />
    <path
       id="path376"
       d="M 5.875,13.625 5.75,13.25 5.84375,13.53125 5.9375,13.8125 5.875,13.625 Q 5.8125,13.4375 5.6875,13.3125 L 5.5625,13.1875 5.625,13.25 5.6875,13.3125 5.984375,13.015625 6.28125,12.71875 6.234375,12.640625 6.1875,12.5625 6.28125,12.71875 Q 6.375,12.875 6.5,13 L 6.625,13.125 6.4375,12.9375 6.25,12.75 6.5,13 q 0.25,0.25 0.375,0.625 L 7,14 H 6.5 6 L 5.875,13.625"
       style="fill:#8d8d8d;fill-opacity:1" />
    <path
       id="path378"
       d="M 6.875,13.625 6.75,13.25 6.84375,13.53125 6.9375,13.8125 6.875,13.625 Q 6.8125,13.4375 6.71875,13.28125 L 6.625,13.125 6.671875,13.203125 6.71875,13.28125 7.015625,12.984375 7.3125,12.6875 7.25,12.625 7.1875,12.5625 l 0.125,0.125 q 0.125,0.125 0.3125,0.1875 L 7.8125,12.9375 7.53125,12.84375 7.25,12.75 7.625,12.875 8,13 V 13.5 14 H 7.5 7 L 6.875,13.625"
       style="fill:#8f8f8f;fill-opacity:1" />
    <path
       id="path380"
       d="M 8,13.5 V 13 L 8.375,12.875 8.75,12.75 8.46875,12.84375 8.1875,12.9375 8.375,12.875 Q 8.5625,12.8125 8.6875,12.6875 L 8.8125,12.5625 8.75,12.625 8.6875,12.6875 9,13 9.3125,13.3125 9.375,13.25 9.4375,13.1875 9.3125,13.3125 Q 9.1875,13.4375 9.125,13.625 L 9.0625,13.8125 9.15625,13.53125 9.25,13.25 9.125,13.625 9,14 H 8.5 8 v -0.5"
       style="fill:#8e8e8e;fill-opacity:1" />
    <path
       id="path382"
       d="m 9.125,13.625 q 0.125,-0.375 0.5,-0.5 L 10,13 V 13.5 14 H 9.5 9 l 0.125,-0.375"
       style="fill:#8c8c8c;fill-opacity:1" />
    <path
       id="path384"
       d="M 10,13.5 V 13 H 10.5 11 V 13.5 14 H 10.5 10 v -0.5"
       style="fill:#8a8a8a;fill-opacity:1" />
    <path
       id="path386"
       d="m 13.125,13.625 q 0.125,-0.375 0.5,-0.5 L 14,13 V 13.5 14 H 13.5 13 l 0.125,-0.375"
       style="fill:#c1c1c1;fill-opacity:1" />
    <path
       id="path388"
       d="M 14,13.5 V 13 L 14.375,12.875 14.75,12.75 14.46875,12.84375 14.1875,12.9375 14.375,12.875 q 0.1875,-0.0625 0.3125,-0.1875 l 0.125,-0.125 L 14.75,12.625 14.6875,12.6875 15,13 l 0.3125,0.3125 0.0625,-0.0625 0.0625,-0.0625 -0.125,0.125 q -0.125,0.125 -0.1875,0.3125 L 15.0625,13.8125 15.15625,13.53125 15.25,13.25 15.125,13.625 15,14 H 14.5 14 v -0.5"
       style="fill:#cacaca;fill-opacity:0.45490196" />
    <path
       id="path390"
       d="m 15.125,13.625 q 0.125,-0.375 0.5,-0.5 L 16,13 v 0.5 0.5 0.5 0.5 l -0.375,-0.125 q -0.375,-0.125 -0.5,-0.5 L 15,14 15.125,13.625"
       style="fill:#000000;fill-opacity:0" />
    <path
       id="path392"
       d="M 0.875,14.375 1,14 H 1.5 2 V 14.5 15 L 1.625,15.125 1.25,15.25 1.53125,15.15625 1.8125,15.0625 1.625,15.125 Q 1.4375,15.1875 1.3125,15.3125 L 1.1875,15.4375 1.25,15.375 1.3125,15.3125 1,15 0.6875,14.6875 0.625,14.75 0.5625,14.8125 0.6875,14.6875 Q 0.8125,14.5625 0.875,14.375 L 0.9375,14.1875 0.84375,14.46875 0.75,14.75 0.875,14.375"
       style="fill:#d5d5d5;fill-opacity:0.11764706" />
    <path
       id="path394"
       d="M 2,14.5 V 14 H 2.5 3 L 3.125,14.375 3.25,14.75 3.15625,14.46875 3.0625,14.1875 3.125,14.375 q 0.0625,0.1875 0.1875,0.3125 l 0.125,0.125 L 3.375,14.75 3.3125,14.6875 3,15 2.6875,15.3125 2.75,15.375 2.8125,15.4375 2.6875,15.3125 Q 2.5625,15.1875 2.375,15.125 L 2.1875,15.0625 2.46875,15.15625 2.75,15.25 2.375,15.125 2,15 v -0.5"
       style="fill:#cacaca;fill-opacity:0.45490196" />
    <path
       id="path396"
       d="M 3.125,14.375 3,14 3.375,14.125 q 0.375,0.125 0.5,0.5 L 4,15 3.625,14.875 q -0.375,-0.125 -0.5,-0.5"
       style="fill:#bbbbbb;fill-opacity:0.85882353" />
    <path
       id="path398"
       d="M 3.875,14.625 3.75,14.25 3.84375,14.53125 3.9375,14.8125 3.875,14.625 Q 3.8125,14.4375 3.6875,14.3125 L 3.5625,14.1875 3.625,14.25 3.6875,14.3125 4,14 4.3125,13.6875 4.25,13.625 4.1875,13.5625 l 0.125,0.125 q 0.125,0.125 0.3125,0.1875 L 4.8125,13.9375 4.53125,13.84375 4.25,13.75 4.625,13.875 5,14 V 14.5 15 H 4.5 4 L 3.875,14.625"
       style="fill:#b0b0b0;fill-opacity:1" />
    <path
       id="path400"
       d="M 5,14.5 V 14 H 5.5 6 V 14.5 15 H 5.5 5 v -0.5"
       style="fill:#a2a2a2;fill-opacity:1" />
    <path
       id="path402"
       d="M 6,14.5 V 14 H 6.5 7 V 14.5 15 H 6.5 6 v -0.5"
       style="fill:#939393;fill-opacity:1" />
    <path
       id="path404"
       d="M 7,14.5 V 14 H 7.5 8 V 14.5 15 H 7.5 7 v -0.5"
       style="fill:#8a8a8a;fill-opacity:1" />
    <path
       id="path406"
       d="M 8,14.5 V 14 H 8.5 9 V 14.5 15 H 8.5 8 v -0.5"
       style="fill:#8c8c8c;fill-opacity:1" />
    <path
       id="path408"
       d="M 9,14.5 V 14 H 9.5 10 V 14.5 15 H 9.5 9 v -0.5"
       style="fill:#959595;fill-opacity:1" />
    <path
       id="path410"
       d="M 10,14.5 V 14 H 10.5 11 V 14.5 15 H 10.5 10 v -0.5"
       style="fill:#a2a2a2;fill-opacity:1" />
    <path
       id="path412"
       d="M 11,14.5 V 14 L 11.375,13.875 11.75,13.75 11.46875,13.84375 11.1875,13.9375 11.375,13.875 q 0.1875,-0.0625 0.3125,-0.1875 l 0.125,-0.125 L 11.75,13.625 11.6875,13.6875 12,14 l 0.3125,0.3125 0.0625,-0.0625 0.0625,-0.0625 -0.125,0.125 q -0.125,0.125 -0.1875,0.3125 L 12.0625,14.8125 12.15625,14.53125 12.25,14.25 12.125,14.625 12,15 H 11.5 11 v -0.5"
       style="fill:#b0b0b0;fill-opacity:1" />
    <path
       id="path414"
       d="m 12.125,14.625 q 0.125,-0.375 0.5,-0.5 L 13,14 12.875,14.375 q -0.125,0.375 -0.5,0.5 L 12,15 12.125,14.625"
       style="fill:#bbbbbb;fill-opacity:0.85882353" />
    <path
       id="path416"
       d="M 12.875,14.375 13,14 H 13.5 14 V 14.5 15 L 13.625,15.125 13.25,15.25 13.53125,15.15625 13.8125,15.0625 13.625,15.125 q -0.1875,0.0625 -0.3125,0.1875 l -0.125,0.125 L 13.25,15.375 13.3125,15.3125 13,15 12.6875,14.6875 12.625,14.75 l -0.0625,0.0625 0.125,-0.125 q 0.125,-0.125 0.1875,-0.3125 L 12.9375,14.1875 12.84375,14.46875 12.75,14.75 12.875,14.375"
       style="fill:#cacaca;fill-opacity:0.45490196" />
    <path
       id="path418"
       d="M 14,14.5 V 14 h 0.5 0.5 l 0.125,0.375 0.125,0.375 -0.09375,-0.28125 -0.09375,-0.28125 0.0625,0.1875 q 0.0625,0.1875 0.1875,0.3125 l 0.125,0.125 L 15.375,14.75 15.3125,14.6875 15,15 l -0.3125,0.3125 0.0625,0.0625 0.0625,0.0625 -0.125,-0.125 Q 14.5625,15.1875 14.375,15.125 L 14.1875,15.0625 14.46875,15.15625 14.75,15.25 14.375,15.125 14,15 v -0.5"
       style="fill:#d5d5d5;fill-opacity:0.11764706" />
    <path
       id="path420"
       d="M 0,15.5 V 15 L 0.375,14.875 0.75,14.75 0.46875,14.84375 0.1875,14.9375 0.375,14.875 Q 0.5625,14.8125 0.6875,14.6875 L 0.8125,14.5625 0.75,14.625 0.6875,14.6875 1,15 1.3125,15.3125 1.375,15.25 1.4375,15.1875 1.3125,15.3125 Q 1.1875,15.4375 1.125,15.625 L 1.0625,15.8125 1.15625,15.53125 1.25,15.25 1.125,15.625 1,16 H 0.5 0 v -0.5"
       style="fill:#ffffff;fill-opacity:0.00392157" />
    <path
       id="path422"
       d="m 1.125,15.625 q 0.125,-0.375 0.5,-0.5 L 2,15 2.375,15.125 q 0.375,0.125 0.5,0.5 L 3,16 H 2.5 2 1.5 1 l 0.125,-0.375"
       style="fill:#000000;fill-opacity:0" />
    <path
       id="path424"
       d="M 2.875,15.625 2.75,15.25 2.84375,15.53125 2.9375,15.8125 2.875,15.625 Q 2.8125,15.4375 2.6875,15.3125 L 2.5625,15.1875 2.625,15.25 2.6875,15.3125 3,15 3.3125,14.6875 3.25,14.625 3.1875,14.5625 l 0.125,0.125 q 0.125,0.125 0.3125,0.1875 L 3.8125,14.9375 3.53125,14.84375 3.25,14.75 3.625,14.875 4,15 V 15.5 16 H 3.5 3 L 2.875,15.625"
       style="fill:#dfdfdf;fill-opacity:0.70980392" />
    <path
       id="path426"
       d="M 4,15.5 V 15 H 4.5 5 V 15.5 16 H 4.5 4 v -0.5"
       style="fill:#d1d1d1;fill-opacity:1" />
    <path
       id="path428"
       d="M 5,15.5 V 15 H 5.5 6 V 15.5 16 H 5.5 5 v -0.5"
       style="fill:#b6b6b6;fill-opacity:1" />
    <path
       id="path430"
       d="M 6,15.5 V 15 H 6.5 7 V 15.5 16 H 6.5 6 v -0.5"
       style="fill:#a1a1a1;fill-opacity:1" />
    <path
       id="path432"
       d="M 7,15.5 V 15 H 7.5 8 8.5 9 V 15.5 16 H 8.5 8 7.5 7 v -0.5"
       style="fill:#949494;fill-opacity:1" />
    <path
       id="path434"
       d="M 9,15.5 V 15 H 9.5 10 V 15.5 16 H 9.5 9 v -0.5"
       style="fill:#a1a1a1;fill-opacity:1" />
    <path
       id="path436"
       d="M 10,15.5 V 15 H 10.5 11 V 15.5 16 H 10.5 10 v -0.5"
       style="fill:#b6b6b6;fill-opacity:1" />
    <path
       id="path438"
       d="M 11,15.5 V 15 H 11.5 12 V 15.5 16 H 11.5 11 v -0.5"
       style="fill:#d1d1d1;fill-opacity:1" />
    <path
       id="path440"
       d="M 12,15.5 V 15 L 12.375,14.875 12.75,14.75 12.46875,14.84375 12.1875,14.9375 12.375,14.875 q 0.1875,-0.0625 0.3125,-0.1875 l 0.125,-0.125 L 12.75,14.625 12.6875,14.6875 13,15 l 0.3125,0.3125 0.0625,-0.0625 0.0625,-0.0625 -0.125,0.125 q -0.125,0.125 -0.1875,0.3125 L 13.0625,15.8125 13.15625,15.53125 13.25,15.25 13.125,15.625 13,16 H 12.5 12 v -0.5"
       style="fill:#dfdfdf;fill-opacity:0.70980392" />
    <path
       id="path442"
       d="m 13.125,15.625 q 0.125,-0.375 0.5,-0.5 L 14,15 l 0.375,0.125 q 0.375,0.125 0.5,0.5 L 15,16 H 14.5 14 13.5 13 l 0.125,-0.375"
       style="fill:#000000;fill-opacity:0" />
    <path
       id="path444"
       d="M 14.875,15.625 14.75,15.25 14.84375,15.53125 14.9375,15.8125 14.875,15.625 q -0.0625,-0.1875 -0.1875,-0.3125 l -0.125,-0.125 0.0625,0.0625 0.0625,0.0625 L 15,15 15.3125,14.6875 15.25,14.625 l -0.0625,-0.0625 0.125,0.125 q 0.125,0.125 0.3125,0.1875 L 15.8125,14.9375 15.53125,14.84375 15.25,14.75 15.625,14.875 16,15 V 15.5 16 H 15.5 15 l -0.125,-0.375"
       style="fill:#ffffff;fill-opacity:0.00392157" />
  </g>
</svg>
