<?xml version="1.0" encoding="UTF-8" standalone="no"?>
<svg
   xmlns:dc="http://purl.org/dc/elements/1.1/"
   xmlns:cc="http://creativecommons.org/ns#"
   xmlns:rdf="http://www.w3.org/1999/02/22-rdf-syntax-ns#"
   xmlns:svg="http://www.w3.org/2000/svg"
   xmlns="http://www.w3.org/2000/svg"
   viewBox="0 0 16 16"
   height="16"
   width="16"
   id="svg2"
   version="1.1">
  <metadata
     id="metadata8">
    <rdf:RDF>
      <cc:Work
         rdf:about="">
        <dc:format>image/svg+xml</dc:format>
        <dc:type
           rdf:resource="http://purl.org/dc/dcmitype/StillImage" />
        <dc:title></dc:title>
      </cc:Work>
    </rdf:RDF>
  </metadata>
  <defs
     id="defs6" />
  <g
     id="g106">
    <path
       id="path12"
       d="M 0,0.5 V 0 H 0.5 1 1.5 2 2.5 3 3.5 4 4.5 5 5.5 6 6.5 7 7.5 8 8.5 9 9.5 10 10.5 11 11.5 12 12.5 13 13.5 14 14.5 15 15.5 16 V 0.5 1 1.5 2 2.5 3 3.5 4 4.5 5 5.5 6 6.5 7 7.5 8 8.5 9 9.5 10 10.5 11 11.5 12 12.5 13 13.5 14 14.5 15 15.5 16 H 15.5 15 14.5 14 13.5 13 12.5 12 11.5 11 10.5 10 9.5 9 8.5 8 7.5 7 6.5 6 5.5 5 4.5 4 3.5 3 2.5 2 1.5 1 0.5 0 V 15.5 15 14.5 14 13.5 13 12.5 12 11.5 11 10.5 10 9.5 9 8.5 8 7.5 7 6.5 6 5.5 5 4.5 4 3.5 3 2.5 2 1.5 1 0.5 M 9.5,15 q 0.5,0 0.875,-0.125 0.375,-0.125 0.5,-0.5 L 11,14 h 0.5 Q 12,14 12.375,13.875 12.75,13.75 13,13.5 13.25,13.25 13.5,13 13.75,12.75 13.875,12.375 14,12 14,11.5 V 11 l 0.375,-0.125 q 0.375,-0.125 0.5,-0.5 Q 15,10 15,9.5 15,9 15,8.5 V 8 7.5 Q 15,7 15,6.5 15,6 14.875,5.625 14.75,5.25 14.375,5.125 L 14,5 V 4.5 Q 14,4 13.875,3.625 13.75,3.25 13.5,3 13.25,2.75 13,2.5 12.75,2.25 12.375,2.125 12,2 11.5,2 H 11 L 10.875,1.625 Q 10.75,1.25 10.375,1.125 10,1 9.5,1 9,1 8.5,1 H 8 7.5 Q 7,1 6.5,1 6,1 5.625,1.125 5.25,1.25 5.125,1.625 L 5,2 H 4.5 Q 4,2 3.625,2.125 3.25,2.25 3,2.5 2.75,2.75 2.5,3 2.25,3.25 2.125,3.625 2,4 2,4.5 V 5 L 1.625,5.125 Q 1.25,5.25 1.125,5.625 1,6 1,6.5 1,7 1,7.5 V 8 8.5 q 0,0.5 0,1 0,0.5 0,1 0,0.5 0.125,0.875 0.125,0.375 0.5,0.5 L 2,12 2.125,12.375 Q 2.25,12.75 2.5,13 2.75,13.25 3,13.5 3.25,13.75 3.625,13.875 L 4,14 4.125,14.375 q 0.125,0.375 0.5,0.5 Q 5,15 5.5,15 q 0.5,0 1,0 0.5,0 1,0 0.5,0 1,0 0.5,0 1,0"
       style="fill:#000000;fill-opacity:0" />
    <path
       id="path14"
       d="M 5.125,1.625 Q 5.25,1.25 5.625,1.125 L 6,1 5.71875,1.09375 5.4375,1.1875 5.625,1.125 Q 5.8125,1.0625 6.03125,1.03125 L 6.25,1 6.140625,1.015625 6.03125,1.03125 6.015625,1.515625 6,2 H 5.5 5 L 5.125,1.625 M 5.625,2 H 6 6.125 6.25 6 Q 5.75,2 5.5,2 H 5.25 5.625"
       style="fill:#ffc0c0;fill-opacity:1" />
    <path
       id="path16"
       d="M 6.015625,1.515625 6.03125,1.03125 5.921875,1.046875 5.8125,1.0625 6.03125,1.03125 Q 6.25,1 6.5,1 H 6.75 6.375 6 6.5 7 V 1.5 2 H 6.5 6 L 6.015625,1.515625 M 5.875,2 H 6 6.375 6.75 6.5 Q 6.25,2 6,2 H 5.75 5.875 m 0.75,0 H 7 7.125 7.25 7 Q 6.75,2 6.5,2 H 6.25 6.625 m 0.5,-1 H 7 6.625 6.25 6.5 Q 6.75,1 7,1 H 7.25 7.125"
       style="fill:#ff7575;fill-opacity:1" />
    <path
       id="path18"
       d="M 7,1.5 V 1 H 7.5 8 V 1.5 2 H 7.5 7 V 1.5 M 6.875,2 H 7 7.375 7.75 7.5 Q 7.25,2 7,2 H 6.75 6.875 m 0.5,-1 H 7 6.875 6.75 7 Q 7.25,1 7.5,1 H 7.75 7.375"
       style="fill:#ff5a5a;fill-opacity:1" />
    <path
       id="path20"
       d="M 8,1.5 V 1 H 8.5 9 V 1.5 2 H 8.5 8 V 1.5 M 8.625,2 H 9 9.125 9.25 9 Q 8.75,2 8.5,2 H 8.25 8.625 m 0.5,-1 H 9 8.625 8.25 8.5 Q 8.75,1 9,1 H 9.25 9.125"
       style="fill:#ff6060;fill-opacity:1" />
    <path
       id="path22"
       d="M 9,1.5 V 1 H 9.5 10 9.625 9.25 9.5 Q 9.75,1 9.96875,1.03125 L 10.1875,1.0625 10.078125,1.046875 9.96875,1.03125 9.984375,1.515625 10,2 H 9.5 9 V 1.5 M 8.875,2 H 9 9.375 9.75 9.5 Q 9.25,2 9,2 H 8.75 8.875 m 0.75,0 H 10 10.125 10.25 10 Q 9.75,2 9.5,2 H 9.25 9.625 M 9.375,1 H 9 8.875 8.75 9 Q 9.25,1 9.5,1 H 9.75 9.375"
       style="fill:#ff7b7b;fill-opacity:1" />
    <path
       id="path24"
       d="M 9.984375,1.515625 9.96875,1.03125 9.859375,1.015625 9.75,1 9.96875,1.03125 Q 10.1875,1.0625 10.375,1.125 L 10.5625,1.1875 10.28125,1.09375 10,1 10.375,1.125 q 0.375,0.125 0.5,0.5 L 11,2 H 10.5 10 L 9.984375,1.515625 M 9.875,2 H 10 10.375 10.75 10.5 Q 10.25,2 10,2 H 9.75 9.875"
       style="fill:#ffcfcf;fill-opacity:1" />
    <path
       id="path26"
       d="M 3,2.5 Q 3.25,2.25 3.625,2.125 L 4,2 3.71875,2.09375 3.4375,2.1875 3.625,2.125 Q 3.8125,2.0625 4.03125,2.03125 L 4.25,2 4.140625,2.015625 4.03125,2.03125 4.015625,2.515625 4,3 3.625,3.125 3.25,3.25 3.53125,3.15625 3.8125,3.0625 3.625,3.125 Q 3.4375,3.1875 3.3125,3.3125 L 3.1875,3.4375 3.25,3.375 3.3125,3.3125 3.03125,3.03125 2.75,2.75 3,2.5 M 2.9375,2.5625 2.75,2.75 2.6875,2.8125 2.625,2.875 2.75,2.75 Q 2.875,2.625 3,2.5 L 3.125,2.375 2.9375,2.5625"
       style="fill:#ffe1e1;fill-opacity:1" />
    <path
       id="path28"
       d="M 4.015625,2.515625 4.03125,2.03125 3.921875,2.046875 3.8125,2.0625 4.03125,2.03125 Q 4.25,2 4.5,2 H 4.75 4.375 4 4.5 5 L 4.875,2.375 Q 4.75,2.75 4.375,2.875 L 4,3 4.015625,2.515625"
       style="fill:#ff3939;fill-opacity:1" />
    <path
       id="path30"
       d="M 4.875,2.375 5,2 H 5.5 Q 6,2 6.5,2 7,2 7.5,2 H 8 8.5 q 0.5,0 1,0 0.5,0 1,0 H 11 l 0.125,0.375 q 0.125,0.375 0.5,0.5 L 12,3 12.125,3.375 q 0.125,0.375 0.5,0.5 L 13,4 13.125,4.375 q 0.125,0.375 0.5,0.5 L 14,5 v 0.5 q 0,0.5 0,1 0,0.5 0,1 V 8 8.5 q 0,0.5 0,1 0,0.5 0,1 V 11 l -0.375,0.125 q -0.375,0.125 -0.5,0.5 L 13,12 12.625,12.125 q -0.375,0.125 -0.5,0.5 L 12,13 11.625,13.125 q -0.375,0.125 -0.5,0.5 L 11,14 h -0.5 q -0.5,0 -1,0 -0.5,0 -1,0 -0.5,0 -1,0 -0.5,0 -1,0 -0.5,0 -1,0 H 5 L 4.875,13.625 Q 4.75,13.25 4.328125,13.171875 L 3.90625,13.09375 3.953125,12.546875 Q 4,12 3.453125,12.046875 L 2.90625,12.09375 2.828125,11.671875 Q 2.75,11.25 2.375,11.125 L 2,11 V 10.5 Q 2,10 2,9.5 2,9 2,8.5 V 8 7.5 Q 2,7 2,6.5 2,6 2,5.5 V 5 L 2.375,4.875 Q 2.75,4.75 2.875,4.375 L 3,4 3.375,3.875 Q 3.75,3.75 3.875,3.375 L 4,3 4.375,2.875 Q 4.75,2.75 4.875,2.375 M 10.5,9 Q 11,9 11.375,8.875 11.75,8.75 11.875,8.375 12,8 11.875,7.625 11.75,7.25 11.375,7.125 11,7 10.5,7 10,7 9.5,7 9,7 8.5,7 8,7 7.5,7 7,7 6.5,7 6,7 5.5,7 5,7 4.625,7.125 4.25,7.25 4.125,7.625 4,8 4.125,8.375 4.25,8.75 4.625,8.875 5,9 5.5,9 q 0.5,0 1,0 0.5,0 1,0 0.5,0 1,0 0.5,0 1,0 0.5,0 1,0"
       style="fill:#ff0000;fill-opacity:1" />
    <path
       id="path32"
       d="M 11.125,2.375 11,2 H 11.5 12 11.625 11.25 11.5 q 0.25,0 0.46875,0.03125 L 12.1875,2.0625 12.078125,2.046875 11.96875,2.03125 11.984375,2.515625 12,3 11.625,2.875 q -0.375,-0.125 -0.5,-0.5"
       style="fill:#ff4e4e;fill-opacity:1" />
    <path
       id="path34"
       d="M 11.984375,2.515625 11.96875,2.03125 11.859375,2.015625 11.75,2 11.96875,2.03125 Q 12.1875,2.0625 12.375,2.125 L 12.5625,2.1875 12.28125,2.09375 12,2 12.375,2.125 Q 12.75,2.25 13,2.5 13.25,2.75 13.5,3 13.75,3.25 13.875,3.625 L 14,4 13.90625,3.71875 13.8125,3.4375 13.875,3.625 q 0.0625,0.1875 0.09375,0.40625 L 14,4.25 13.984375,4.140625 13.96875,4.03125 13.484375,4.015625 13,4 12.875,3.625 Q 12.75,3.25 12.375,3.125 L 12,3 11.984375,2.515625"
       style="fill:#ffeded;fill-opacity:1" />
    <path
       id="path36"
       d="M 2.125,3.625 Q 2.25,3.25 2.5,3 L 2.75,2.75 3.03125,3.03125 3.3125,3.3125 3.375,3.25 3.4375,3.1875 3.3125,3.3125 Q 3.1875,3.4375 3.125,3.625 L 3.0625,3.8125 3.15625,3.53125 3.25,3.25 3.125,3.625 3,4 2.515625,4.015625 2.03125,4.03125 2.015625,4.140625 2,4.25 2.03125,4.03125 Q 2.0625,3.8125 2.125,3.625 L 2.1875,3.4375 2.09375,3.71875 2,4 2.125,3.625 M 2.8125,2.6875 2.75,2.75 2.5625,2.9375 2.375,3.125 2.5,3 Q 2.625,2.875 2.75,2.75 L 2.875,2.625 2.8125,2.6875"
       style="fill:#ffdede;fill-opacity:1" />
    <path
       id="path38"
       d="M 3.125,3.625 Q 3.25,3.25 3.625,3.125 L 4,3 3.875,3.375 Q 3.75,3.75 3.375,3.875 L 3,4 3.125,3.625"
       style="fill:#ff1818;fill-opacity:1" />
    <path
       id="path40"
       d="M 12.125,3.375 12,3 12.375,3.125 q 0.375,0.125 0.5,0.5 L 13,4 12.625,3.875 q -0.375,-0.125 -0.5,-0.5"
       style="fill:#ff2727;fill-opacity:1" />
    <path
       id="path42"
       d="M 2,4.5 V 4 4.375 4.75 4.5 Q 2,4.25 2.03125,4.03125 L 2.0625,3.8125 2.046875,3.921875 2.03125,4.03125 2.515625,4.015625 3,4 2.875,4.375 Q 2.75,4.75 2.375,4.875 L 2,5 V 4.5"
       style="fill:#ff3333;fill-opacity:1" />
    <path
       id="path44"
       d="M 13.125,4.375 13,4 13.484375,4.015625 13.96875,4.03125 13.953125,3.921875 13.9375,3.8125 13.96875,4.03125 Q 14,4.25 14,4.5 V 4.75 4.375 4 4.5 5 L 13.625,4.875 q -0.375,-0.125 -0.5,-0.5"
       style="fill:#ff5454;fill-opacity:1" />
    <path
       id="path46"
       d="M 1.125,5.625 Q 1.25,5.25 1.625,5.125 L 2,5 V 5.5 6 L 1.515625,6.015625 1.03125,6.03125 1.015625,6.140625 1,6.25 1.03125,6.03125 Q 1.0625,5.8125 1.125,5.625 L 1.1875,5.4375 1.09375,5.71875 1,6 1.125,5.625 M 2,6.125 V 6 5.625 5.25 5.5 Q 2,5.75 2,6 V 6.25 6.125"
       style="fill:#ffaeae;fill-opacity:1" />
    <path
       id="path48"
       d="M 14,5.5 V 5 l 0.375,0.125 q 0.375,0.125 0.5,0.5 L 15,6 14.90625,5.71875 14.8125,5.4375 14.875,5.625 q 0.0625,0.1875 0.09375,0.40625 L 15,6.25 14.984375,6.140625 14.96875,6.03125 14.484375,6.015625 14,6 V 5.5 m 0,0.125 V 6 6.125 6.25 6 Q 14,5.75 14,5.5 V 5.25 5.625"
       style="fill:#ffcccc;fill-opacity:1" />
    <path
       id="path50"
       d="M 1,6.5 V 6 6.375 6.75 6.5 Q 1,6.25 1.03125,6.03125 L 1.0625,5.8125 1.046875,5.921875 1.03125,6.03125 1.515625,6.015625 2,6 V 6.5 7 H 1.5 1 V 6.5 M 1,6.625 V 7 7.125 7.25 7 Q 1,6.75 1,6.5 V 6.25 6.625 m 1,0.5 V 7 6.625 6.25 6.5 Q 2,6.75 2,7 V 7.25 7.125 M 2,6.375 V 6 5.875 5.75 6 Q 2,6.25 2,6.5 V 6.75 6.375"
       style="fill:#ff5a5a;fill-opacity:1" />
    <path
       id="path52"
       d="M 14,6.5 V 6 L 14.484375,6.015625 14.96875,6.03125 14.953125,5.921875 14.9375,5.8125 14.96875,6.03125 Q 15,6.25 15,6.5 V 6.75 6.375 6 6.5 7 H 14.5 14 V 6.5 m 0,0.125 V 7 7.125 7.25 7 Q 14,6.75 14,6.5 V 6.25 6.625 m 1,0.5 V 7 6.625 6.25 6.5 Q 15,6.75 15,7 V 7.25 7.125 M 14,5.875 V 6 6.375 6.75 6.5 Q 14,6.25 14,6 V 5.75 5.875"
       style="fill:#ff7b7b;fill-opacity:1" />
    <path
       id="path54"
       d="M 1,7.5 V 7 H 1.5 2 V 7.5 8 H 1.5 1 V 7.5 M 2,7.375 V 7 6.875 6.75 7 Q 2,7.25 2,7.5 V 7.75 7.375 M 1,6.875 V 7 7.375 7.75 7.5 Q 1,7.25 1,7 V 6.75 6.875"
       style="fill:#ff3030;fill-opacity:1" />
    <path
       id="path56"
       d="M 4.125,7.625 Q 4.25,7.25 4.625,7.125 5,7 5.5,7 q 0.5,0 1,0 0.5,0 1,0 0.5,0 1,0 0.5,0 1,0 0.5,0 1,0 0.5,0 0.875,0.125 0.375,0.125 0.5,0.5 0.125,0.375 0,0.75 -0.125,0.375 -0.5,0.5 Q 11,9 10.5,9 10,9 9.5,9 9,9 8.5,9 8,9 7.5,9 7,9 6.5,9 6,9 5.5,9 5,9 4.625,8.875 4.25,8.75 4.125,8.375 4,8 4.125,7.625"
       style="fill:#fbfbfb;fill-opacity:1" />
    <path
       id="path58"
       d="M 14,7.5 V 7 H 14.5 15 V 7.5 8 H 14.5 14 V 7.5 M 15,7.375 V 7 6.875 6.75 7 q 0,0.25 0,0.5 V 7.75 7.375 m -1,-0.5 V 7 7.375 7.75 7.5 Q 14,7.25 14,7 V 6.75 6.875"
       style="fill:#ff5151;fill-opacity:1" />
    <path
       id="path60"
       d="M 1,8.5 V 8 H 1.5 2 V 8.5 9 H 1.5 1 V 8.5 M 1,8.625 V 9 9.125 9.25 9 Q 1,8.75 1,8.5 V 8.25 8.625 m 1,0.5 V 9 8.625 8.25 8.5 Q 2,8.75 2,9 V 9.25 9.125"
       style="fill:#ff3333;fill-opacity:1" />
    <path
       id="path62"
       d="M 14,8.5 V 8 H 14.5 15 V 8.5 9 H 14.5 14 V 8.5 m 0,0.125 V 9 9.125 9.25 9 Q 14,8.75 14,8.5 V 8.25 8.625 m 1,0.5 V 9 8.625 8.25 8.5 Q 15,8.75 15,9 V 9.25 9.125"
       style="fill:#ff5454;fill-opacity:1" />
    <path
       id="path64"
       d="M 1,9.5 V 9 H 1.5 2 V 9.5 10 H 1.5 1 V 9.5 M 1,9.625 V 10 10.125 10.25 10 Q 1,9.75 1,9.5 V 9.25 9.625 m 1,0.5 V 10 9.625 9.25 9.5 Q 2,9.75 2,10 v 0.25 -0.125 M 2,9.375 V 9 8.875 8.75 9 Q 2,9.25 2,9.5 V 9.75 9.375 M 1,8.875 V 9 9.375 9.75 9.5 Q 1,9.25 1,9 V 8.75 8.875"
       style="fill:#ff5151;fill-opacity:1" />
    <path
       id="path66"
       d="M 14,9.5 V 9 H 14.5 15 V 9.5 10 9.625 9.25 9.5 q 0,0.25 -0.03125,0.46875 L 14.9375,10.1875 14.953125,10.078125 14.96875,9.96875 14.484375,9.984375 14,10 V 9.5 m 0,0.125 V 10 10.125 10.25 10 Q 14,9.75 14,9.5 V 9.25 9.625 m 1,-0.25 V 9 8.875 8.75 9 q 0,0.25 0,0.5 V 9.75 9.375 m -1,-0.5 V 9 9.375 9.75 9.5 Q 14,9.25 14,9 V 8.75 8.875"
       style="fill:#ff7878;fill-opacity:1" />
    <path
       id="path68"
       d="M 1,10.5 V 10 H 1.5 2 V 10.5 11 L 1.515625,10.984375 1.03125,10.96875 1.046875,11.078125 1.0625,11.1875 1.03125,10.96875 Q 1,10.75 1,10.5 V 10.25 10.625 11 10.5 M 2,10.375 V 10 9.875 9.75 10 q 0,0.25 0,0.5 v 0.25 -0.375 M 1,9.875 V 10 10.375 10.75 10.5 Q 1,10.25 1,10 V 9.75 9.875"
       style="fill:#ffa5a5;fill-opacity:1" />
    <path
       id="path70"
       d="M 14,10.5 V 10 L 14.484375,9.984375 14.96875,9.96875 14.984375,9.859375 15,9.75 14.96875,9.96875 Q 14.9375,10.1875 14.875,10.375 L 14.8125,10.5625 14.90625,10.28125 15,10 14.875,10.375 q -0.125,0.375 -0.5,0.5 L 14,11 V 10.5 M 14,9.875 V 10 10.375 10.75 10.5 Q 14,10.25 14,10 V 9.75 9.875"
       style="fill:#ffc6c6;fill-opacity:1" />
    <path
       id="path72"
       d="M 1.125,11.375 1,11 1.09375,11.28125 1.1875,11.5625 1.125,11.375 Q 1.0625,11.1875 1.03125,10.96875 L 1,10.75 1.015625,10.859375 1.03125,10.96875 1.515625,10.984375 2,11 V 11.5 12 L 1.625,11.875 q -0.375,-0.125 -0.5,-0.5"
       style="fill:#fff9f9;fill-opacity:1" />
    <path
       id="path74"
       d="M 2,11.5 V 11 l 0.375,0.125 Q 2.75,11.25 2.828125,11.671875 L 2.90625,12.09375 2.984375,12.140625 3.0625,12.1875 2.90625,12.09375 Q 2.75,12 2.5,12 H 2.25 2.625 3 2.5 2 v -0.5"
       style="fill:#ff2424;fill-opacity:1" />
    <path
       id="path76"
       d="m 13.125,11.625 q 0.125,-0.375 0.5,-0.5 L 14,11 V 11.5 12 11.625 11.25 11.5 q 0,0.25 -0.03125,0.46875 L 13.9375,12.1875 13.95313,12.078125 13.96876,11.96875 13.484385,11.98438 13,12 13.125,11.625"
       style="fill:#ff3c3c;fill-opacity:1" />
    <path
       id="path78"
       d="M 2.125,12.375 2,12 H 2.5 Q 3,12 3.125,12.375 L 3.25,12.75 3.15625,12.46875 3.0625,12.1875 3.125,12.375 q 0.0625,0.1875 0.1875,0.3125 l 0.125,0.125 L 3.375,12.75 3.3125,12.6875 3.03125,12.96875 2.75,13.25 2.5,13 Q 2.25,12.75 2.125,12.375 M 2.5625,13.0625 2.75,13.25 2.8125,13.3125 2.875,13.375 2.75,13.25 Q 2.625,13.125 2.5,13 l -0.125,-0.125 0.1875,0.1875"
       style="fill:#ffcccc;fill-opacity:1" />
    <path
       id="path80"
       d="M 3.125,12.375 3,12 3.09375,12.28125 3.1875,12.5625 3.125,12.375 Q 3.0625,12.1875 2.90625,12.09375 L 2.75,12 2.828125,12.04687 2.90625,12.09374 3.453125,12.04687 Q 4,12 3.953125,12.546875 L 3.90625,13.09375 3.953125,13.171875 4,13.25 3.90625,13.09375 Q 3.8125,12.9375 3.625,12.875 L 3.4375,12.8125 3.71875,12.90625 4,13 3.625,12.875 q -0.375,-0.125 -0.5,-0.5"
       style="fill:#ff0909;fill-opacity:1" />
    <path
       id="path82"
       d="m 12.125,12.625 q 0.125,-0.375 0.5,-0.5 L 13,12 12.875,12.375 q -0.125,0.375 -0.5,0.5 L 12,13 12.125,12.625"
       style="fill:#ff1515;fill-opacity:1" />
    <path
       id="path84"
       d="M 12.875,12.375 13,12 13.484375,11.984375 13.96875,11.96875 13.984375,11.859375 14,11.75 13.96875,11.96875 Q 13.9375,12.1875 13.875,12.375 L 13.8125,12.5625 13.90625,12.28125 14,12 13.875,12.375 Q 13.75,12.75 13.5,13 L 13.25,13.25 12.96875,12.96875 12.6875,12.6875 12.625,12.75 l -0.0625,0.0625 0.125,-0.125 q 0.125,-0.125 0.1875,-0.3125 L 12.9375,12.1875 12.84375,12.46875 12.75,12.75 12.875,12.375 M 13.1875,13.3125 13.25,13.25 13.4375,13.0625 13.625,12.875 13.5,13 q -0.125,0.125 -0.25,0.25 l -0.125,0.125 0.0625,-0.0625"
       style="fill:#ffdede;fill-opacity:1" />
    <path
       id="path86"
       d="M 3,13.5 2.75,13.25 3.03125,12.96875 3.3125,12.6875 3.25,12.625 3.1875,12.5625 l 0.125,0.125 q 0.125,0.125 0.3125,0.1875 L 3.8125,12.9375 3.53125,12.84375 3.25,12.75 3.625,12.875 Q 4,13 4,13.5 V 14 L 3.625,13.875 Q 3.25,13.75 3,13.5 M 2.6875,13.1875 2.75,13.25 2.9375,13.4375 3.125,13.625 3,13.5 Q 2.875,13.375 2.75,13.25 l -0.125,-0.125 0.0625,0.0625"
       style="fill:#ffc9c9;fill-opacity:1" />
    <path
       id="path88"
       d="M 4,13.5 V 13 13.375 13.75 13.5 Q 4,13.25 3.90625,13.09375 L 3.8125,12.9375 3.859375,13.01563 3.90625,13.09376 4.328125,13.17189 Q 4.75,13.25 4.875,13.625 L 5,14 H 4.5 4 v -0.5"
       style="fill:#ff2424;fill-opacity:1" />
    <path
       id="path90"
       d="m 11.125,13.625 q 0.125,-0.375 0.5,-0.5 L 12,13 l -0.01563,0.484375 -0.01563,0.484375 0.109375,-0.01563 0.109375,-0.01563 -0.21875,0.03125 Q 11.75,14 11.5,14 H 11.25 11.625 12 11.5 11 l 0.125,-0.375"
       style="fill:#ff3333;fill-opacity:1" />
    <path
       id="path92"
       d="M 11.984375,13.484375 12,13 12.375,12.875 12.75,12.75 12.46875,12.84375 12.1875,12.9375 12.375,12.875 q 0.1875,-0.0625 0.3125,-0.1875 l 0.125,-0.125 -0.0625,0.0625 -0.0625,0.0625 0.28125,0.28125 L 13.25,13.25 13,13.5 q -0.25,0.25 -0.625,0.375 L 12,14 12.28125,13.90625 12.5625,13.8125 12.375,13.875 q -0.1875,0.0625 -0.40625,0.09375 L 11.75,14 11.859375,13.98437 11.96875,13.96874 11.98438,13.484365 M 13.0625,13.4375 13.25,13.25 13.3125,13.1875 13.375,13.125 13.25,13.25 Q 13.125,13.375 13,13.5 l -0.125,0.125 0.1875,-0.1875"
       style="fill:#ffdbdb;fill-opacity:1" />
    <path
       id="path94"
       d="M 4.125,14.375 4,14 H 4.5 5 L 5.015625,14.484375 5.03125,14.96875 5.140625,14.984375 5.25,15 5.03125,14.96875 Q 4.8125,14.9375 4.625,14.875 L 4.4375,14.8125 4.71875,14.90625 5,15 4.625,14.875 q -0.375,-0.125 -0.5,-0.5"
       style="fill:#fff9f9;fill-opacity:1" />
    <path
       id="path96"
       d="M 5.015625,14.484375 5,14 H 5.5 6 V 14.5 15 H 5.5 5 5.375 5.75 5.5 Q 5.25,15 5.03125,14.96875 L 4.8125,14.9375 4.921875,14.953125 5.03125,14.96875 5.015625,14.484375 M 5.625,15 H 6 6.125 6.25 6 Q 5.75,15 5.5,15 H 5.25 5.625 m 0.5,-1 H 6 5.625 5.25 5.5 Q 5.75,14 6,14 H 6.25 6.125"
       style="fill:#ff9f9f;fill-opacity:1" />
    <path
       id="path98"
       d="M 6,14.5 V 14 H 6.5 7 V 14.5 15 H 6.5 6 V 14.5 M 5.875,15 H 6 6.375 6.75 6.5 Q 6.25,15 6,15 H 5.75 5.875 m 0.75,0 H 7 7.125 7.25 7 Q 6.75,15 6.5,15 H 6.25 6.625 m 0.5,-1 H 7 6.625 6.25 6.5 Q 6.75,14 7,14 H 7.25 7.125 m -0.75,0 H 6 5.875 5.75 6 q 0.25,0 0.5,0 H 6.75 6.375"
       style="fill:#ff4e4e;fill-opacity:1" />
    <path
       id="path100"
       d="M 7,14.5 V 14 h 0.5 q 0.5,0 1,0 H 9 V 14.5 15 H 8.5 Q 8,15 7.5,15 H 7 V 14.5 M 6.875,15 H 7 7.375 7.75 7.5 Q 7.25,15 7,15 H 6.75 6.875 m 1.75,0 H 9 9.125 9.25 9 Q 8.75,15 8.5,15 H 8.25 8.625 m 0.5,-1 H 9 8.625 8.25 8.5 Q 8.75,14 9,14 H 9.25 9.125 m -1.75,0 H 7 6.875 6.75 7 q 0.25,0 0.5,0 H 7.75 7.375"
       style="fill:#ff3333;fill-opacity:1" />
    <path
       id="path102"
       d="M 9,14.5 V 14 H 9.5 10 L 9.984375,14.484375 9.96875,14.96875 10.078125,14.953125 10.1875,14.9375 9.96875,14.96875 Q 9.75,15 9.5,15 H 9.25 9.625 10 9.5 9 V 14.5 M 8.875,15 H 9 9.375 9.75 9.5 Q 9.25,15 9,15 H 8.75 8.875 m 1.25,-1 H 10 9.625 9.25 9.5 q 0.25,0 0.5,0 h 0.25 -0.125 m -0.75,0 H 9 8.875 8.75 9 q 0.25,0 0.5,0 H 9.75 9.375"
       style="fill:#ff5454;fill-opacity:1" />
    <path
       id="path104"
       d="M 9.984375,14.484375 10,14 h 0.5 0.5 l -0.125,0.375 q -0.125,0.375 -0.5,0.5 L 10,15 10.28125,14.90625 10.5625,14.8125 10.375,14.875 q -0.1875,0.0625 -0.40625,0.09375 L 9.75,15 9.859375,14.984375 9.96875,14.96875 9.984375,14.484375 M 10.375,14 H 10 9.875 9.75 10 q 0.25,0 0.5,0 h 0.25 -0.375"
       style="fill:#ffaeae;fill-opacity:1" />
  </g>
</svg>
