<?xml version="1.0" encoding="UTF-8" standalone="no"?>
<svg
   xmlns:dc="http://purl.org/dc/elements/1.1/"
   xmlns:cc="http://creativecommons.org/ns#"
   xmlns:rdf="http://www.w3.org/1999/02/22-rdf-syntax-ns#"
   xmlns:svg="http://www.w3.org/2000/svg"
   xmlns="http://www.w3.org/2000/svg"
   viewBox="0 0 16 16"
   height="16"
   width="16"
   id="svg2"
   version="1.1">
  <metadata
     id="metadata8">
    <rdf:RDF>
      <cc:Work
         rdf:about="">
        <dc:format>image/svg+xml</dc:format>
        <dc:type
           rdf:resource="http://purl.org/dc/dcmitype/StillImage" />
        <dc:title></dc:title>
      </cc:Work>
    </rdf:RDF>
  </metadata>
  <defs
     id="defs6" />
  <g
     id="g56"
     transform="translate(0 0)">
    <path
       id="path12"
       d="M 0,0.5 V 0 H 0.5 1 1.5 2 2.5 3 3.5 4 4.5 5 5.5 6 6.5 7 7.5 8 8.5 9 9.5 10 10.5 11 11.5 12 12.5 13 13.5 14 14.5 15 15.5 16 V 0.5 1 1.5 2 2.5 3 3.5 4 4.5 5 5.5 6 6.5 7 7.5 8 8.5 9 9.5 10 10.5 11 11.5 12 12.5 13 13.5 14 14.5 15 15.5 16 H 15.5 15 14.5 14 13.5 13 12.5 12 11.5 11 10.5 10 9.5 9 8.5 8 7.5 7 6.5 6 5.5 5 4.5 4 3.5 3 2.5 2 1.5 1 0.5 0 V 15.5 15 14.5 14 13.5 13 12.5 12 11.5 11 10.5 10 9.5 9 8.5 8 7.5 7 6.5 6 5.5 5 4.5 4 3.5 3 2.5 2 1.5 1 0.5 M 13.5,15 q 0.5,0 0.875,-0.125 0.375,-0.125 0.5,-0.5 0.125,-0.375 0,-0.75 -0.125,-0.375 -0.5,-0.5 Q 14,13 14,12.5 14,12 13.875,11.625 13.75,11.25 13.375,11.125 13,11 13,10.5 13,10 12.875,9.625 12.75,9.25 12.375,9.125 12,9 12,8.5 12,8 11.875,7.625 11.75,7.25 11.375,7.125 11,7 11,6.5 11,6 10.875,5.625 10.75,5.25 10.375,5.125 10,5 10,4.5 10,4 9.875,3.625 9.75,3.25 9.375,3.125 9,3 8.875,2.625 8.75,2.25 8.375,2.125 L 8,2 7.625,2.125 Q 7.25,2.25 7.125,2.625 7,3 6.625,3.125 6.25,3.25 6.125,3.625 6,4 6,4.5 6,5 5.625,5.125 5.25,5.25 5.125,5.625 5,6 5,6.5 5,7 4.625,7.125 4.25,7.25 4.125,7.625 4,8 4,8.5 4,9 3.625,9.125 3.25,9.25 3.125,9.625 3,10 3,10.5 3,11 2.625,11.125 2.25,11.25 2.125,11.625 2,12 2,12.5 2,13 1.625,13.125 1.25,13.25 1.125,13.625 1,14 1.125,14.375 1.25,14.75 1.625,14.875 2,15 2.5,15 q 0.5,0 1,0 0.5,0 1,0 0.5,0 1,0 0.5,0 1,0 0.5,0 1,0 0.5,0 1,0 0.5,0 1,0 0.5,0 1,0 0.5,0 1,0 0.5,0 1,0 0.5,0 1,0"
       style="fill:#000000;fill-opacity:0" />
    <path
       id="path14"
       d="M 7.125,2.625 Q 7.25,2.25 7.625,2.125 L 8,2 V 2.5 3 L 7.46875,2.96875 6.9375,2.9375 6.875,3 6.8125,3.0625 6.9375,2.9375 Q 7.0625,2.8125 7.125,2.625 L 7.1875,2.4375 7.09375,2.71875 7,3 7.125,2.625"
       style="fill:#ffc30c;fill-opacity:1" />
    <path
       id="path16"
       d="M 8,2.5 V 2 l 0.375,0.125 q 0.375,0.125 0.5,0.5 L 9,3 8.90625,2.71875 8.8125,2.4375 8.875,2.625 Q 8.9375,2.8125 9.0625,2.9375 L 9.1875,3.0625 9.125,3 9.0625,2.9375 8.53125,2.96875 8,3 V 2.5"
       style="fill:#ffc106;fill-opacity:1" />
    <path
       id="path18"
       d="M 6.125,3.625 Q 6.25,3.25 6.625,3.125 L 7,3 6.71875,3.09375 6.4375,3.1875 6.625,3.125 Q 6.8125,3.0625 6.9375,2.9375 L 7.0625,2.8125 7,2.875 6.9375,2.9375 6.84375,3.34375 Q 6.75,3.75 6.390625,3.890625 L 6.03125,4.03125 6.015625,4.140625 6,4.25 6.03125,4.03125 Q 6.0625,3.8125 6.125,3.625 L 6.1875,3.4375 6.09375,3.71875 6,4 6.125,3.625"
       style="fill:#ffdc72;fill-opacity:1" />
    <path
       id="path20"
       d="M 6.84375,3.34375 6.9375,2.9375 7.46875,2.96875 8,3 8.53125,2.96875 9.0625,2.9375 9.15625,3.34375 9.25,3.75 9.15625,3.46875 9.0625,3.1875 9.125,3.375 Q 9.1875,3.5625 9.3125,3.6875 L 9.4375,3.8125 9.375,3.75 9.3125,3.6875 9.03125,3.96875 Q 8.75,4.25 8.875,4.625 9,5 9.546875,4.953125 L 10.09375,4.90625 10.171875,5.328125 Q 10.25,5.75 10.609375,5.890625 L 10.96875,6.03125 10.953125,5.921875 10.9375,5.8125 10.96875,6.03125 Q 11,6.25 11,6.5 V 6.75 6.375 6 6.5 7 6.625 6.25 6.5 q 0,0.25 0.09375,0.40625 L 11.1875,7.0625 11.140625,6.984375 11.09375,6.90625 11.171875,7.328125 Q 11.25,7.75 11.609375,7.890625 L 11.96875,8.03125 11.953125,7.921875 11.9375,7.8125 11.96875,8.03125 Q 12,8.25 12,8.5 V 8.75 8.375 8 8.5 9 8.625 8.25 8.5 q 0,0.25 0.09375,0.40625 L 12.1875,9.0625 12.140625,8.984375 12.09375,8.90625 12.171875,9.328125 Q 12.25,9.75 12.609375,9.890625 L 12.96875,10.03125 12.953125,9.921875 12.9375,9.8125 12.96875,10.03125 Q 13,10.25 13,10.5 V 10.75 10.375 10 10.5 11 10.625 10.25 10.5 q 0,0.25 0.09375,0.40625 l 0.09375,0.15625 -0.04687,-0.07813 -0.04687,-0.07813 0.07813,0.421875 q 0.07813,0.421875 0.4375,0.5625 L 13.96875,12.03125 13.953125,11.921875 13.9375,11.8125 13.96875,12.03125 Q 14,12.25 14,12.5 V 12.75 12.375 12 12.5 13 12.625 12.25 12.5 q 0,0.25 0.09375,0.40625 l 0.09375,0.15625 -0.04687,-0.07813 -0.04687,-0.07813 0.07813,0.421875 Q 14.25,13.75 14.59375,13.875 L 14.9375,14 V 13.90625 13.8125 14 q 0,0.1875 -0.0625,0.375 L 14.8125,14.5625 14.90625,14.28125 15,14 14.875,14.375 q -0.125,0.375 -0.5,0.5 Q 14,15 13.5,15 q -0.5,0 -1,0 -0.5,0 -1,0 -0.5,0 -1,0 -0.5,0 -1,0 Q 9,15 8.5,15 8,15 7.5,15 7,15 6.5,15 6,15 5.5,15 5,15 4.5,15 4,15 3.5,15 3,15 2.5,15 2,15 1.625,14.875 1.25,14.75 1.125,14.375 L 1,14 1.09375,14.28125 1.1875,14.5625 1.125,14.375 Q 1.0625,14.1875 1.0625,14 V 13.8125 13.90625 14 L 1.40625,13.875 Q 1.75,13.75 1.828125,13.328125 L 1.90625,12.90625 1.859375,12.984375 1.8125,13.0625 1.90625,12.90625 Q 2,12.75 2,12.5 V 12.25 12.625 13 12.5 12 12.375 12.75 12.5 Q 2,12.25 2.03125,12.03125 L 2.0625,11.8125 2.046875,11.921875 2.03125,12.03125 2.390625,11.890625 Q 2.75,11.75 2.828125,11.328125 L 2.90625,10.90625 2.859375,10.984375 2.8125,11.0625 2.90625,10.90625 Q 3,10.75 3,10.5 V 10.25 10.625 11 10.5 10 10.375 10.75 10.5 Q 3,10.25 3.03125,10.03125 L 3.0625,9.8125 3.046875,9.921875 3.03125,10.03125 3.390625,9.890625 Q 3.75,9.75 3.828125,9.328125 L 3.90625,8.90625 4.453125,8.953125 Q 5,9 5.125,8.625 5.25,8.25 4.96875,7.96875 L 4.6875,7.6875 4.625,7.75 4.5625,7.8125 4.6875,7.6875 Q 4.8125,7.5625 4.875,7.375 L 4.9375,7.1875 4.84375,7.46875 4.75,7.75 4.828125,7.328125 4.90625,6.90625 5.453125,6.953125 Q 6,7 6.125,6.625 6.25,6.25 5.96875,5.96875 L 5.6875,5.6875 5.625,5.75 5.5625,5.8125 5.6875,5.6875 Q 5.8125,5.5625 5.875,5.375 L 5.9375,5.1875 5.84375,5.46875 5.75,5.75 5.828125,5.328125 5.90625,4.90625 6.453125,4.953125 Q 7,5 7.125,4.625 7.25,4.25 6.96875,3.96875 L 6.6875,3.6875 6.625,3.75 6.5625,3.8125 6.6875,3.6875 Q 6.8125,3.5625 6.875,3.375 L 6.9375,3.1875 6.84375,3.46875 6.75,3.75 6.84375,3.34375 M 7.625,13.875 Q 8,14 8.375,13.875 8.75,13.75 8.875,13.375 9,13 8.875,12.625 8.75,12.25 8.375,12.125 8,12 7.625,12.125 q -0.375,0.125 -0.5,0.5 -0.125,0.375 0,0.75 0.125,0.375 0.5,0.5 m 0,-3 Q 8,11 8.375,10.875 8.75,10.75 8.875,10.375 9,10 9,9.5 9,9 9,8.5 9,8 9,7.5 9,7 8.875,6.625 8.75,6.25 8.375,6.125 8,6 7.625,6.125 7.25,6.25 7.125,6.625 7,7 7,7.5 q 0,0.5 0,1 0,0.5 0,1 0,0.5 0.125,0.875 0.125,0.375 0.5,0.5"
       style="fill:#ffc000;fill-opacity:1" />
    <path
       id="path22"
       d="M 9.15625,3.34375 9.0625,2.9375 9,2.875 8.9375,2.8125 9.0625,2.9375 Q 9.1875,3.0625 9.375,3.125 L 9.5625,3.1875 9.28125,3.09375 9,3 9.375,3.125 q 0.375,0.125 0.5,0.5 L 10,4 9.90625,3.71875 9.8125,3.4375 9.875,3.625 Q 9.9375,3.8125 9.96875,4.03125 L 10,4.25 9.984375,4.140625 9.96875,4.03125 9.609375,3.890625 Q 9.25,3.75 9.15625,3.34375"
       style="fill:#ffd860;fill-opacity:1" />
    <path
       id="path24"
       d="M 6,4.5 V 4 4.375 4.75 4.5 Q 6,4.25 6.03125,4.03125 L 6.0625,3.8125 6.046875,3.921875 6.03125,4.03125 6.390625,3.890625 6.75,3.75 6.46875,3.84375 6.1875,3.9375 6.375,3.875 Q 6.5625,3.8125 6.6875,3.6875 L 6.8125,3.5625 6.75,3.625 6.6875,3.6875 6.96875,3.96875 Q 7.25,4.25 7.125,4.625 7,5 6.453125,4.953125 L 5.90625,4.90625 5.859375,4.984375 5.8125,5.0625 5.90625,4.90625 Q 6,4.75 6,4.5 V 4.25 4.625 5 4.5"
       style="fill:#ffc209;fill-opacity:1" />
    <path
       id="path26"
       d="M 8.875,4.625 Q 8.75,4.25 9.03125,3.96875 L 9.3125,3.6875 9.25,3.625 9.1875,3.5625 9.3125,3.6875 Q 9.4375,3.8125 9.625,3.875 L 9.8125,3.9375 9.53125,3.84375 9.25,3.75 9.609375,3.890625 9.96875,4.03125 9.953125,3.921875 9.9375,3.8125 9.96875,4.03125 Q 10,4.25 10,4.5 V 4.75 4.375 4 4.5 5 4.625 4.25 4.5 q 0,0.25 0.09375,0.40625 L 10.1875,5.0625 10.140625,4.984375 10.09375,4.90625 9.546875,4.953125 Q 9,5 8.875,4.625"
       style="fill:#ffc103;fill-opacity:1" />
    <path
       id="path28"
       d="M 5.125,5.625 Q 5.25,5.25 5.625,5.125 L 6,5 5.71875,5.09375 5.4375,5.1875 5.625,5.125 Q 5.8125,5.0625 5.90625,4.90625 L 6,4.75 5.953125,4.828125 5.90625,4.90625 5.828125,5.328125 Q 5.75,5.75 5.390625,5.890625 L 5.03125,6.03125 5.015625,6.140625 5,6.25 5.03125,6.03125 Q 5.0625,5.8125 5.125,5.625 L 5.1875,5.4375 5.09375,5.71875 5,6 5.125,5.625"
       style="fill:#ffd966;fill-opacity:1" />
    <path
       id="path30"
       d="M 10.171875,5.328125 10.09375,4.90625 10.046875,4.828125 10,4.75 10.09375,4.90625 Q 10.1875,5.0625 10.375,5.125 L 10.5625,5.1875 10.28125,5.09375 10,5 10.375,5.125 q 0.375,0.125 0.5,0.5 L 11,6 10.90625,5.71875 10.8125,5.4375 10.875,5.625 q 0.0625,0.1875 0.09375,0.40625 L 11,6.25 10.984375,6.140625 10.96875,6.03125 10.609375,5.890625 Q 10.25,5.75 10.171875,5.328125"
       style="fill:#ffd554;fill-opacity:1" />
    <path
       id="path32"
       d="M 5,6.5 V 6 6.375 6.75 6.5 Q 5,6.25 5.03125,6.03125 L 5.0625,5.8125 5.046875,5.921875 5.03125,6.03125 5.390625,5.890625 5.75,5.75 5.46875,5.84375 5.1875,5.9375 5.375,5.875 Q 5.5625,5.8125 5.6875,5.6875 L 5.8125,5.5625 5.75,5.625 5.6875,5.6875 5.96875,5.96875 Q 6.25,6.25 6.125,6.625 6,7 5.453125,6.953125 L 4.90625,6.90625 4.859375,6.984375 4.8125,7.0625 4.90625,6.90625 Q 5,6.75 5,6.5 V 6.25 6.625 7 6.5"
       style="fill:#ffc106;fill-opacity:1" />
    <path
       id="path34"
       d="M 7.125,6.625 Q 7.25,6.25 7.625,6.125 8,6 8.375,6.125 8.75,6.25 8.875,6.625 9,7 9,7.5 9,8 9,8.5 9,9 9,9.5 9,10 8.875,10.375 8.75,10.75 8.375,10.875 8,11 7.625,10.875 7.25,10.75 7.125,10.375 7,10 7,9.5 7,9 7,8.5 7,8 7,7.5 7,7 7.125,6.625"
       style="fill:#fdfdfd;fill-opacity:1" />
    <path
       id="path36"
       d="M 4.125,7.625 Q 4.25,7.25 4.625,7.125 L 5,7 4.71875,7.09375 4.4375,7.1875 4.625,7.125 Q 4.8125,7.0625 4.90625,6.90625 L 5,6.75 4.953125,6.828125 4.90625,6.90625 4.828125,7.328125 Q 4.75,7.75 4.390625,7.890625 L 4.03125,8.03125 4.015625,8.140625 4,8.25 4.03125,8.03125 Q 4.0625,7.8125 4.125,7.625 L 4.1875,7.4375 4.09375,7.71875 4,8 4.125,7.625"
       style="fill:#ffd860;fill-opacity:1" />
    <path
       id="path38"
       d="M 11.171875,7.328125 11.09375,6.90625 11.046875,6.828125 11,6.75 11.09375,6.90625 Q 11.1875,7.0625 11.375,7.125 L 11.5625,7.1875 11.28125,7.09375 11,7 11.375,7.125 q 0.375,0.125 0.5,0.5 L 12,8 11.90625,7.71875 11.8125,7.4375 11.875,7.625 q 0.0625,0.1875 0.09375,0.40625 L 12,8.25 11.984375,8.140625 11.96875,8.03125 11.609375,7.890625 Q 11.25,7.75 11.171875,7.328125"
       style="fill:#ffd34b;fill-opacity:1" />
    <path
       id="path40"
       d="M 4,8.5 V 8 8.375 8.75 8.5 Q 4,8.25 4.03125,8.03125 L 4.0625,7.8125 4.046875,7.921875 4.03125,8.03125 4.390625,7.890625 4.75,7.75 4.46875,7.84375 4.1875,7.9375 4.375,7.875 Q 4.5625,7.8125 4.6875,7.6875 L 4.8125,7.5625 4.75,7.625 4.6875,7.6875 4.96875,7.96875 Q 5.25,8.25 5.125,8.625 5,9 4.453125,8.953125 L 3.90625,8.90625 3.859375,8.984375 3.8125,9.0625 3.90625,8.90625 Q 4,8.75 4,8.5 V 8.25 8.625 9 8.5"
       style="fill:#ffc103;fill-opacity:1" />
    <path
       id="path42"
       d="M 3.125,9.625 Q 3.25,9.25 3.625,9.125 L 4,9 3.71875,9.09375 3.4375,9.1875 3.625,9.125 Q 3.8125,9.0625 3.90625,8.90625 L 4,8.75 3.953125,8.828125 3.90625,8.90625 3.828125,9.328125 Q 3.75,9.75 3.390625,9.890625 L 3.03125,10.03125 3.015625,10.140625 3,10.25 3.03125,10.03125 Q 3.0625,9.8125 3.125,9.625 L 3.1875,9.4375 3.09375,9.71875 3,10 3.125,9.625"
       style="fill:#ffd554;fill-opacity:1" />
    <path
       id="path44"
       d="M 12.171875,9.328125 12.09375,8.90625 12.046875,8.828125 12,8.75 12.09375,8.90625 Q 12.1875,9.0625 12.375,9.125 L 12.5625,9.1875 12.28125,9.09375 12,9 12.375,9.125 q 0.375,0.125 0.5,0.5 L 13,10 12.90625,9.71875 12.8125,9.4375 12.875,9.625 q 0.0625,0.1875 0.09375,0.40625 L 13,10.25 12.984375,10.140625 12.96875,10.03125 12.609375,9.890625 Q 12.25,9.75 12.171875,9.328125"
       style="fill:#ffd042;fill-opacity:1" />
    <path
       id="path46"
       d="m 2.125,11.625 q 0.125,-0.375 0.5,-0.5 L 3,11 2.71875,11.09375 2.4375,11.1875 2.625,11.125 Q 2.8125,11.0625 2.90625,10.90625 L 3,10.75 2.953125,10.828125 2.90625,10.90625 2.828125,11.328125 Q 2.75,11.75 2.390625,11.890625 L 2.03125,12.03125 2.015625,12.140625 2,12.25 2.03125,12.03125 Q 2.0625,11.8125 2.125,11.625 L 2.1875,11.4375 2.09375,11.71875 2,12 2.125,11.625"
       style="fill:#ffd34e;fill-opacity:1" />
    <path
       id="path48"
       d="M 13.171875,11.328125 13.09375,10.90625 13.046875,10.828125 13,10.75 13.09375,10.90625 Q 13.1875,11.0625 13.375,11.125 L 13.5625,11.1875 13.28125,11.09375 13,11 l 0.375,0.125 q 0.375,0.125 0.5,0.5 L 14,12 13.90625,11.71875 13.8125,11.4375 13.875,11.625 q 0.0625,0.1875 0.09375,0.40625 L 14,12.25 13.984375,12.140625 13.96875,12.03125 13.609375,11.890625 Q 13.25,11.75 13.171875,11.328125"
       style="fill:#ffcd36;fill-opacity:1" />
    <path
       id="path50"
       d="m 7.125,12.625 q 0.125,-0.375 0.5,-0.5 0.375,-0.125 0.75,0 0.375,0.125 0.5,0.5 0.125,0.375 0,0.75 -0.125,0.375 -0.5,0.5 Q 8,14 7.625,13.875 7.25,13.75 7.125,13.375 7,13 7.125,12.625"
       style="fill:#fdfdfd;fill-opacity:1" />
    <path
       id="path52"
       d="m 1.125,13.625 q 0.125,-0.375 0.5,-0.5 L 2,13 1.71875,13.09375 1.4375,13.1875 1.625,13.125 Q 1.8125,13.0625 1.90625,12.90625 L 2,12.75 1.953125,12.828125 1.90625,12.90625 1.828125,13.328125 Q 1.75,13.75 1.40625,13.875 L 1.0625,14 V 14.09375 14.1875 14 q 0,-0.1875 0.0625,-0.375 L 1.1875,13.4375 1.09375,13.71875 1,14 1.125,13.625"
       style="fill:#ffd042;fill-opacity:1" />
    <path
       id="path54"
       d="M 14.171875,13.328125 14.09375,12.90625 14.046875,12.828125 14,12.75 14.09375,12.90625 Q 14.1875,13.0625 14.375,13.125 L 14.5625,13.1875 14.28125,13.09375 14,13 l 0.375,0.125 q 0.375,0.125 0.5,0.5 L 15,14 14.90625,13.71875 14.8125,13.4375 14.875,13.625 Q 14.9375,13.8125 14.9375,14 V 14.1875 14.09375 14 L 14.59375,13.875 Q 14.25,13.75 14.171875,13.328125"
       style="fill:#ffcb2d;fill-opacity:1" />
  </g>
</svg>
