<?xml version="1.0" encoding="UTF-8" standalone="no"?>
<svg
   xmlns:dc="http://purl.org/dc/elements/1.1/"
   xmlns:cc="http://creativecommons.org/ns#"
   xmlns:rdf="http://www.w3.org/1999/02/22-rdf-syntax-ns#"
   xmlns:svg="http://www.w3.org/2000/svg"
   xmlns="http://www.w3.org/2000/svg"
   version="1.1"
   id="svg2"
   width="10"
   height="10"
   viewBox="0 0 10 10">
  <metadata
     id="metadata8">
    <rdf:RDF>
      <cc:Work
         rdf:about="">
        <dc:format>image/svg+xml</dc:format>
        <dc:type
           rdf:resource="http://purl.org/dc/dcmitype/StillImage" />
        <dc:title></dc:title>
      </cc:Work>
    </rdf:RDF>
  </metadata>
  <defs
     id="defs6" />
  <g
     id="g28">
    <path
       style="fill:#000000;fill-opacity:0"
       d="M 0,0.5 V 0 H 0.5 1 L 0.875,0.375 Q 0.75,0.75 0.375,0.875 L 0,1 V 0.5"
       id="path12" />
    <path
       style="fill:#5a8294;fill-opacity:1"
       d="M 0.875,0.375 1,0 H 1.5 2 2.5 3 3.5 4 4.5 5 5.5 6 6.5 7 7.5 8 8.5 9 l 0.125,0.375 q 0.125,0.375 0.5,0.5 L 10,1 V 1.5 2 2.5 3 3.5 4 4.5 5 5.5 6 6.5 7 7.5 8 8.5 9 L 9.625,9.125 Q 9.25,9.25 9.125,9.625 L 9,10 H 8.5 8 7.5 7 6.5 6 5.5 5 4.5 4 3.5 3 2.5 2 1.5 1 L 0.875,9.625 Q 0.75,9.25 0.375,9.125 L 0,9 V 8.5 8 7.5 7 6.5 6 5.5 5 4.5 4 3.5 3 2.5 2 1.5 1 L 0.375,0.875 Q 0.75,0.75 0.875,0.375 M 6.5,9 Q 7,9 7.375,8.875 7.75,8.75 8,8.5 8.25,8.25 8.5,8 8.75,7.75 8.875,7.375 9,7 9,6.5 9,6 9,5.5 9,5 9,4.5 9,4 9,3.5 9,3 8.875,2.625 8.75,2.25 8.5,2 8.25,1.75 8,1.5 7.75,1.25 7.375,1.125 7,1 6.5,1 6,1 5.5,1 5,1 4.5,1 4,1 3.5,1 3,1 2.625,1.125 2.25,1.25 2,1.5 1.75,1.75 1.5,2 1.25,2.25 1.125,2.625 1,3 1,3.5 1,4 1,4.5 1,5 1,5.5 1,6 1,6.5 1,7 1.125,7.375 1.25,7.75 1.5,8 1.75,8.25 2,8.5 2.25,8.75 2.625,8.875 3,9 3.5,9 4,9 4.5,9 5,9 5.5,9 6,9 6.5,9"
       id="path14" />
    <path
       style="fill:#000000;fill-opacity:0"
       d="M 9.125,0.375 9,0 H 9.5 10 V 0.5 1 L 9.625,0.875 Q 9.25,0.75 9.125,0.375"
       id="path16" />
    <path
       style="fill:#000000;fill-opacity:0"
       d="M 2,1.5 Q 2.25,1.25 2.625,1.125 3,1 3.5,1 4,1 4.5,1 5,1 5.5,1 6,1 6.5,1 7,1 7.375,1.125 7.75,1.25 8,1.5 8.25,1.75 8.5,2 8.75,2.25 8.875,2.625 9,3 9,3.5 9,4 9,4.5 9,5 9,5.5 9,6 9,6.5 9,7 8.875,7.375 8.75,7.75 8.5,8 8.25,8.25 8,8.5 7.75,8.75 7.375,8.875 7,9 6.5,9 6,9 5.5,9 5,9 4.5,9 4,9 3.5,9 3,9 2.625,8.875 2.25,8.75 2,8.5 1.75,8.25 1.5,8 1.25,7.75 1.125,7.375 1,7 1,6.5 1,6 1,5.5 1,5 1,4.5 1,4 1,3.5 1,3 1.125,2.625 1.25,2.25 1.5,2 1.75,1.75 2,1.5 M 4.625,7.875 Q 5,8 5.375,7.875 5.75,7.75 6,7.5 6.25,7.25 6.5,7 6.75,6.75 7,6.5 7.25,6.25 7.5,6 7.75,5.75 7.875,5.375 8,5 7.875,4.625 7.75,4.25 7.5,4 7.25,3.75 7,3.5 6.75,3.25 6.5,3 6.25,2.75 6,2.5 5.75,2.25 5.375,2.125 5,2 4.625,2.125 4.25,2.25 4,2.5 3.75,2.75 3.5,3 3.25,3.25 3,3.5 2.75,3.75 2.5,4 2.25,4.25 2.125,4.625 2,5 2.125,5.375 2.25,5.75 2.5,6 2.75,6.25 3,6.5 3.25,6.75 3.5,7 3.75,7.25 4,7.5 4.25,7.75 4.625,7.875"
       id="path18" />
    <path
       style="fill:#a6bcc6;fill-opacity:1"
       d="M 4,2.5 Q 4.25,2.25 4.625,2.125 5,2 5.375,2.125 5.75,2.25 6,2.5 6.25,2.75 6.5,3 6.75,3.25 7,3.5 7.25,3.75 7.5,4 7.75,4.25 7.875,4.625 8,5 7.875,5.375 7.75,5.75 7.5,6 7.25,6.25 7,6.5 6.75,6.75 6.5,7 6.25,7.25 6,7.5 5.75,7.75 5.375,7.875 5,8 4.625,7.875 4.25,7.75 4,7.5 3.75,7.25 3.5,7 3.25,6.75 3,6.5 2.75,6.25 2.5,6 2.25,5.75 2.125,5.375 2,5 2.125,4.625 2.25,4.25 2.5,4 2.75,3.75 3,3.5 3.25,3.25 3.5,3 3.75,2.75 4,2.5 M 4.625,5.875 Q 5,6 5.375,5.875 5.75,5.75 5.875,5.375 6,5 5.875,4.625 5.75,4.25 5.375,4.125 5,4 4.625,4.125 4.25,4.25 4.125,4.625 4,5 4.125,5.375 q 0.125,0.375 0.5,0.5"
       id="path20" />
    <path
       style="fill:#5a8294;fill-opacity:1"
       d="M 4.125,4.625 Q 4.25,4.25 4.625,4.125 5,4 5.375,4.125 5.75,4.25 5.875,4.625 6,5 5.875,5.375 5.75,5.75 5.375,5.875 5,6 4.625,5.875 4.25,5.75 4.125,5.375 4,5 4.125,4.625"
       id="path22" />
    <path
       style="fill:#000000;fill-opacity:0"
       d="M 0,9.5 V 9 l 0.375,0.125 q 0.375,0.125 0.5,0.5 L 1,10 H 0.5 0 V 9.5"
       id="path24" />
    <path
       style="fill:#000000;fill-opacity:0"
       d="M 9.125,9.625 Q 9.25,9.25 9.625,9.125 L 10,9 V 9.5 10 H 9.5 9 L 9.125,9.625"
       id="path26" />
  </g>
</svg>
